<?xml version="1.0" encoding="UTF-8"?>
<svg width="40px" height="35px" viewBox="0 0 40 35" version="1.1" xmlns="http://www.w3.org/2000/svg" xmlns:xlink="http://www.w3.org/1999/xlink">
    <!-- Generator: Sketch 55.2 (78181) - https://sketchapp.com -->
    <title>noun_Ambulance_2628194</title>
    <desc>Created with Sketch.</desc>
    <g id="Page-1" stroke="none" stroke-width="1" fill="none" fill-rule="evenodd">
        <g id="Artboard" transform="translate(-50.000000, -367.000000)" fill="#AA005F" fill-rule="nonzero">
            <g id="Group-3" transform="translate(30.000000, 165.000000)">
                <g id="Group-2-Copy" transform="translate(20.000000, 197.000000)">
                    <g id="noun_Ambulance_2628194" transform="translate(0.000000, 5.000000)">
                        <g id="Group">
                            <path d="M9.67741935,27.7419355 C8.61032258,27.7419355 7.74193548,28.6103226 7.74193548,29.6774194 C7.74193548,30.7445161 8.61032258,31.6129032 9.67741935,31.6129032 C10.7445161,31.6129032 11.6129032,30.7445161 11.6129032,29.6774194 C11.6129032,28.6103226 10.7445161,27.7419355 9.67741935,27.7419355 Z M9.67741935,30.3225806 C9.32129032,30.3225806 9.03225806,30.0335484 9.03225806,29.6774194 C9.03225806,29.3212903 9.32129032,29.0322581 9.67741935,29.0322581 C10.0335484,29.0322581 10.3225806,29.3212903 10.3225806,29.6774194 C10.3225806,30.0335484 10.0335484,30.3225806 9.67741935,30.3225806 Z" id="Shape"></path>
                            <path d="M30.3225806,27.7419355 C29.2554839,27.7419355 28.3870968,28.6103226 28.3870968,29.6774194 C28.3870968,30.7445161 29.2554839,31.6129032 30.3225806,31.6129032 C31.3896774,31.6129032 32.2580645,30.7445161 32.2580645,29.6774194 C32.2580645,28.6103226 31.3896774,27.7419355 30.3225806,27.7419355 Z M30.3225806,30.3225806 C29.9664516,30.3225806 29.6774194,30.0335484 29.6774194,29.6774194 C29.6774194,29.3212903 29.9664516,29.0322581 30.3225806,29.0322581 C30.6787097,29.0322581 30.9677419,29.3212903 30.9677419,29.6774194 C30.9677419,30.0335484 30.6787097,30.3225806 30.3225806,30.3225806 Z" id="Shape"></path>
                            <path d="M36.7741935,7.74193548 L20.5032258,7.74193548 L19.8587097,5.16129032 L14.98,5.16129032 L14.3354839,7.74193548 L11.3980645,7.74193548 C10.0916129,7.74193548 8.92258065,8.52129032 8.42064516,9.72709677 L6.2516129,14.9322581 C6.06,15.3909677 5.70451613,15.7541935 5.25096774,15.956129 L1.91548387,17.4387097 C0.751612903,17.956129 0,19.1129032 0,20.3870968 L0,30.9677419 C0,32.0348387 0.868387097,32.9032258 1.93548387,32.9032258 L6.52322581,32.9032258 C7.33806452,33.7 8.45096774,34.1935484 9.67741935,34.1935484 C10.903871,34.1935484 12.0167742,33.7 12.8316129,32.9032258 L27.1677419,32.9032258 C27.9825806,33.7 29.0954839,34.1935484 30.3219355,34.1935484 C31.5483871,34.1935484 32.6612903,33.7 33.476129,32.9032258 L38.0645161,32.9032258 C39.1316129,32.9032258 40,32.0348387 40,30.9677419 L40,10.9677419 C40,9.18903226 38.5529032,7.74193548 36.7741935,7.74193548 Z M15.9877419,6.4516129 L18.8509677,6.4516129 L19.1741935,7.74193548 L15.6651613,7.74193548 L15.9877419,6.4516129 Z M2.43935484,18.6180645 L5.77483871,17.1354839 C6.53096774,16.7993548 7.12322581,16.1935484 7.44193548,15.4283871 L9.61096774,10.2232258 C9.91290323,9.5 10.6141935,9.03225806 11.3980645,9.03225806 L36.7741935,9.03225806 C37.8412903,9.03225806 38.7096774,9.90064516 38.7096774,10.9677419 L38.7096774,27.7419355 L37.4193548,27.7419355 L37.4193548,11.6129032 C37.4193548,10.9012903 36.8406452,10.3225806 36.1290323,10.3225806 L20.6451613,10.3225806 L20.6451613,27.7419355 L19.3548387,27.7419355 L19.3548387,10.3225806 L11.1941935,10.3225806 L8.38709677,16.6374194 L8.38709677,20 L9.67741935,20 L9.67741935,17.4193548 L18.0645161,17.4193548 L18.0645161,27.7419355 L13.7516129,27.7419355 C13.0251613,26.2187097 11.4741935,25.1612903 9.67741935,25.1612903 L9.67741935,21.2903226 L8.38709677,21.2903226 L8.38709677,25.3516129 C7.15677419,25.7193548 6.1483871,26.5993548 5.60322581,27.7419355 L1.29032258,27.7419355 L1.29032258,26.8503226 L4.44774194,25.2716129 C4.88774194,25.0522581 5.16129032,24.6103226 5.16129032,24.1174194 L5.16129032,21.9354839 C5.16129032,21.223871 4.58258065,20.6451613 3.87096774,20.6451613 L1.29032258,20.6451613 L1.29032258,20.3870968 C1.29032258,19.6225806 1.74129032,18.9283871 2.43935484,18.6180645 Z M30.3225806,25.1612903 C28.5258065,25.1612903 26.9754839,26.2187097 26.2483871,27.7419355 L21.9354839,27.7419355 L21.9354839,17.4193548 L32.9032258,17.4193548 L32.9032258,16.1290323 L21.9354839,16.1290323 L21.9354839,11.6129032 L36.1290323,11.6129032 L36.1290323,16.1290323 L34.1935484,16.1290323 L34.1935484,17.4193548 L36.1290323,17.4193548 L36.1290323,27.7419355 L34.3967742,27.7419355 C33.6696774,26.2187097 32.1193548,25.1612903 30.3225806,25.1612903 Z M14.1419355,29.0322581 L25.8580645,29.0322581 C25.8277419,29.243871 25.8064516,29.4580645 25.8064516,29.6774194 C25.8064516,30.3703226 25.9683871,31.0251613 26.2483871,31.6129032 L13.7516129,31.6129032 C14.0316129,31.0251613 14.1935484,30.3703226 14.1935484,29.6774194 C14.1935484,29.4580645 14.1722581,29.243871 14.1419355,29.0322581 Z M18.0645161,16.1290323 L10.0251613,16.1290323 L12.0322581,11.6129032 L18.0645161,11.6129032 L18.0645161,16.1290323 Z M1.29032258,25.4077419 L1.29032258,21.9354839 L3.87096774,21.9354839 L3.87096774,24.1174194 L1.29032258,25.4077419 Z M1.29032258,30.9677419 L1.29032258,29.0322581 L5.21290323,29.0322581 C5.18258065,29.243871 5.16129032,29.4580645 5.16129032,29.6774194 C5.16129032,30.3703226 5.32322581,31.0251613 5.60322581,31.6129032 L1.93548387,31.6129032 C1.57935484,31.6129032 1.29032258,31.323871 1.29032258,30.9677419 Z M9.67741935,32.9032258 C7.89870968,32.9032258 6.4516129,31.456129 6.4516129,29.6774194 C6.4516129,27.8987097 7.89870968,26.4516129 9.67741935,26.4516129 C11.456129,26.4516129 12.9032258,27.8987097 12.9032258,29.6774194 C12.9032258,31.456129 11.456129,32.9032258 9.67741935,32.9032258 Z M30.3225806,32.9032258 C28.543871,32.9032258 27.0967742,31.456129 27.0967742,29.6774194 C27.0967742,27.8987097 28.543871,26.4516129 30.3225806,26.4516129 C32.1012903,26.4516129 33.5483871,27.8987097 33.5483871,29.6774194 C33.5483871,31.456129 32.1012903,32.9032258 30.3225806,32.9032258 Z M38.0645161,31.6129032 L34.3967742,31.6129032 C34.6767742,31.0251613 34.8387097,30.3703226 34.8387097,29.6774194 C34.8387097,29.4580645 34.8174194,29.243871 34.7870968,29.0322581 L38.7096774,29.0322581 L38.7096774,30.9677419 C38.7096774,31.323871 38.4206452,31.6129032 38.0645161,31.6129032 Z" id="Shape"></path>
                            <rect id="Rectangle" x="23.2258065" y="18.7096774" width="2.58064516" height="1.29032258"></rect>
                            <rect id="Rectangle" x="14.1935484" y="18.7096774" width="2.58064516" height="1.29032258"></rect>
                            <rect id="Rectangle" x="16.7741935" y="0" width="1.29032258" height="3.87096774"></rect>
                            <polygon id="Rectangle" transform="translate(12.857121, 3.179643) rotate(-45.000000) translate(-12.857121, -3.179643) " points="12.2119663 1.24450014 13.5022766 1.24450014 13.5022766 5.1147856 12.2119663 5.1147856"></polygon>
                            <polygon id="Rectangle" transform="translate(21.981518, 3.179960) rotate(-45.000000) translate(-21.981518, -3.179960) " points="20.0463757 2.53480506 23.9166612 2.53480506 23.9166612 3.82511526 20.0463757 3.82511526"></polygon>
                            <polygon id="Path" points="34.8387097 21.2903226 33.5483871 21.2903226 33.5483871 20 32.2580645 20 32.2580645 21.2903226 30.9677419 21.2903226 30.9677419 22.5806452 32.2580645 22.5806452 32.2580645 23.8709677 33.5483871 23.8709677 33.5483871 22.5806452 34.8387097 22.5806452"></polygon>
                        </g>
                    </g>
                </g>
            </g>
        </g>
    </g>
</svg>