<?xml version="1.0" encoding="UTF-8"?>
<svg width="40px" height="40px" viewBox="0 0 40 40" version="1.1" xmlns="http://www.w3.org/2000/svg" xmlns:xlink="http://www.w3.org/1999/xlink">
    <!-- Generator: Sketch 55.2 (78181) - https://sketchapp.com -->
    <title>noun_Lung_1283898</title>
    <desc>Created with Sketch.</desc>
    <g id="Page-1" stroke="none" stroke-width="1" fill="none" fill-rule="evenodd">
        <g id="Artboard" transform="translate(-50.000000, -438.000000)" fill="#AA005F" fill-rule="nonzero">
            <g id="Group-3" transform="translate(30.000000, 165.000000)">
                <g id="Group-2-Copy-2" transform="translate(20.000000, 268.000000)">
                    <g id="noun_Lung_1283898" transform="translate(0.000000, 5.000000)">
                        <g id="Group">
                            <rect id="Rectangle" x="8.38709677" y="30.3225806" width="1.29032258" height="1.29032258"></rect>
                            <path d="M26.4516129,9.03225806 C24.6729032,9.03225806 23.2258065,10.4793548 23.2258065,12.2580645 L23.2258065,19.0877419 L21.9354839,17.7974194 L21.9354839,0 L20.6451613,0 L20.6451613,18.3316129 L23.2258065,20.9122581 L23.2258065,22.9587097 L20,19.7329032 L16.7741935,22.9587097 L16.7741935,20.9122581 L19.3548387,18.3316129 L19.3548387,0 L18.0645161,0 L18.0645161,17.7974194 L16.7741935,19.0877419 L16.7741935,12.2580645 C16.7741935,10.4793548 15.3270968,9.03225806 13.5483871,9.03225806 C6.07741935,9.03225806 0,15.1096774 0,22.5806452 L0,36.7741935 C0,38.5529032 1.44709677,40 3.22580645,40 C10.6967742,40 16.7741935,33.9225806 16.7741935,26.4516129 L16.7741935,24.7832258 L20,21.5574194 L23.2258065,24.7832258 L23.2258065,26.4516129 C23.2258065,33.9225806 29.3032258,40 36.7741935,40 C38.5529032,40 40,38.5529032 40,36.7741935 L40,22.5806452 C40,15.1096774 33.9225806,9.03225806 26.4516129,9.03225806 Z M3.22580645,38.7096774 C2.15870968,38.7096774 1.29032258,37.8412903 1.29032258,36.7741935 L1.29032258,22.5806452 C1.29032258,15.8212903 6.78903226,10.3225806 13.5483871,10.3225806 C14.6154839,10.3225806 15.483871,11.1909677 15.483871,12.2580645 L15.483871,16.5070968 L13.2812903,18.7096774 L3.87096774,18.7096774 L3.87096774,20 L11.9909677,20 L3.41483871,28.576129 L4.32709677,29.4883871 L8.38709677,25.4283871 L8.38709677,29.0322581 L9.67741935,29.0322581 L9.67741935,24.1380645 L12.9032258,20.9122581 L12.9032258,25.1612903 L14.1935484,25.1612903 L14.1935484,19.6219355 L15.483871,18.3316129 L15.483871,26.4516129 C15.483871,33.2109677 9.98516129,38.7096774 3.22580645,38.7096774 Z M38.7096774,36.7741935 C38.7096774,37.8412903 37.8412903,38.7096774 36.7741935,38.7096774 C30.0148387,38.7096774 24.516129,33.2109677 24.516129,26.4516129 L24.516129,18.3316129 L25.8064516,19.6219355 L25.8064516,25.1612903 L27.0967742,25.1612903 L27.0967742,20.9122581 L30.3225806,24.1380645 L30.3225806,31.6129032 L31.6129032,31.6129032 L31.6129032,25.4283871 L35.6729032,29.4883871 L36.5851613,28.576129 L28.0090323,20 L33.5483871,20 L33.5483871,18.7096774 L26.7187097,18.7096774 L24.516129,16.5070968 L24.516129,12.2580645 C24.516129,11.1909677 25.3845161,10.3225806 26.4516129,10.3225806 C33.2109677,10.3225806 38.7096774,15.8212903 38.7096774,22.5806452 L38.7096774,36.7741935 Z" id="Shape"></path>
                            <rect id="Rectangle" x="34.8387097" y="18.7096774" width="1.29032258" height="1.29032258"></rect>
                        </g>
                    </g>
                </g>
            </g>
        </g>
    </g>
</svg>