<?xml version="1.0" standalone="no"?>
<!DOCTYPE svg PUBLIC "-//W3C//DTD SVG 1.1//EN" "http://www.w3.org/Graphics/SVG/1.1/DTD/svg11.dtd" >
<svg>
<metadata>
Created by FontForge 20090914 at Thu Oct  3 04:51:54 2019
 By www-data
Copyright (c) 2011 by Fontsmith Ltd. All rights reserved.
</metadata>
<defs>
<font id="FSHumana-Bold" horiz-adv-x="1208" >
  <font-face 
    font-family="FS Humana"
    font-weight="700"
    font-stretch="normal"
    units-per-em="2048"
    panose-1="2 0 8 3 4 0 0 2 0 4"
    ascent="1536"
    descent="-512"
    x-height="1081"
    cap-height="1475"
    bbox="-163.067 -559.002 2048 2003"
    underline-thickness="102"
    underline-position="-102"
    unicode-range="U+0020-U+FB02"
  />
<missing-glyph horiz-adv-x="748" 
d="M68 0v1365h544v-1365h-544zM136 68h408v1229h-408v-1229z" />
    <glyph glyph-name="uniFB01" unicode="fi" horiz-adv-x="1310" 
d="M47 1081l155.999 0.00878906v29c0 134.667 38.667 242.667 116 324c89.333 95.333 222 143 398 143c136.667 0 261.667 -28 375 -84c10 -4.66699 16.167 -10.334 18.5 -17.001s2.33301 -14.834 0 -24.501s-7.83301 -25.834 -16.5 -48.501l-19 -51
c-12.667 -32.667 -22.5 -52.834 -29.5 -60.501s-16.833 -8.83398 -29.5 -3.50098c-88 38.667 -174.667 58 -260 58c-94 0 -163.667 -22.667 -209 -68c-42.667 -42.667 -64 -105.334 -64 -188.001v-9h234c6.66699 0 11.667 -1.5 15 -4.5s6 -12 8 -27s3 -38.5 3 -70.5v-14
c0 -32 -1 -55.5 -3 -70.5s-4.66699 -24.167 -8 -27.5s-8.33301 -5 -15 -5h-234v-831c0 -8.66699 -2.66699 -14.834 -8 -18.501s-17.5 -6.66699 -36.5 -9s-48.5 -3.5 -88.5 -3.5h-10c-43.333 0 -74.833 1.16699 -94.5 3.5s-31.667 5.33301 -36 9s-6.5 9.83398 -6.5 18.501
v831h-156c-6.66699 0 -11.667 1.66699 -15 5s-6.16602 12.666 -8.49902 27.999s-3.5 38.666 -3.5 69.999v14c0 31.333 1.16699 54.666 3.5 69.999s5 24.5 8 27.5s8.16699 4.5 15.5 4.5zM1024 1081.01h10.001c40 0 69.5 -1 88.5 -3s31.167 -4.83301 36.5 -8.5
s8 -9.83398 8 -18.501v-1020c0 -8.66699 -2.66699 -14.834 -8 -18.501s-17.5 -6.66699 -36.5 -9s-48.5 -3.5 -88.5 -3.5h-10c-43.333 0 -74.833 1.16699 -94.5 3.5s-31.667 5.33301 -36 9s-6.5 9.83398 -6.5 18.501v1020c0 8.66699 2.16699 14.834 6.5 18.501
s16.166 6.5 35.499 8.5s51 3 95 3z" />
    <glyph glyph-name="uniFB02" unicode="fl" horiz-adv-x="1357" 
d="M47 1081l155.998 0.00585938v29c0 134.667 38.667 242.667 116 324c89.333 95.333 228.666 143 417.999 143c82.667 0 161.667 -10.333 237 -31s130.333 -46.667 165 -78c14.667 -12.667 23.834 -24.5 27.501 -35.5s6.16699 -29.167 7.5 -54.5
c4 -115.333 6 -263.333 6 -444v-651c0 -24.667 5 -42.5 15 -53.5s27.333 -16.5 52 -16.5h25c8.66699 0 14.167 -5.33301 16.5 -16s3.5 -35.334 3.5 -74.001v-19c0 -36.667 -1 -59.834 -3 -69.501s-7 -16.5 -15 -20.5c-35.333 -16 -81 -24 -137 -24
c-74 0 -131.333 20.333 -172 61c-44 44 -66 115.667 -66 215v711c0 80 -2.66699 192.667 -8 338c-40 20.667 -86.333 31 -139 31c-91.333 0 -159.666 -22.667 -204.999 -68c-42.667 -42.667 -64 -105.334 -64 -188.001v-9h234c6.66699 0 11.667 -1.5 15 -4.5s6 -12 8 -27
s3 -38.5 3 -70.5v-14c0 -32 -1 -55.5 -3 -70.5s-4.66699 -24.167 -8 -27.5s-8.33301 -5 -15 -5h-234v-831c0 -8.66699 -2.66699 -14.834 -8 -18.501s-17.5 -6.66699 -36.5 -9s-48.5 -3.5 -88.5 -3.5h-10c-43.333 0 -74.833 1.16699 -94.5 3.5s-31.667 5.33301 -36 9
s-6.5 9.83398 -6.5 18.501v831h-156c-6.66699 0 -11.667 1.66699 -15 5s-6.16602 12.666 -8.49902 27.999s-3.5 38.666 -3.5 69.999v14c0 31.333 1.16699 54.666 3.5 69.999s5 24.5 8 27.5s8.16699 4.5 15.5 4.5z" />
    <glyph glyph-name=".notdef" horiz-adv-x="748" 
d="M68 0v1365h544v-1365h-544zM136 68h408v1229h-408v-1229z" />
    <glyph glyph-name="space" unicode=" " horiz-adv-x="520" 
 />
    <glyph glyph-name="exclam" unicode="!" horiz-adv-x="612" 
d="M131 147c0 47.333 16.667 87.5 50 120.5s74.666 49.5 123.999 49.5c50.667 0 92.667 -16.5 126 -49.5s50 -73.167 50 -120.5c0 -46.667 -16.667 -86.167 -50 -118.5s-75.333 -48.5 -126 -48.5c-49.333 0 -90.666 16.167 -123.999 48.5s-50 71.833 -50 118.5zM291 1475h22
c57.333 0 95 -2.5 113 -7.5s27 -14.167 27 -27.5l-33 -930c0 -10 -6.33301 -16.667 -19 -20s-37.667 -5 -75 -5h-43c-37.333 0 -62.5 1.66699 -75.5 5s-19.5 10 -19.5 20l-36 930c0 13.333 9 22.5 27 27.5s55.333 7.5 112 7.5z" />
    <glyph glyph-name="quotedbl" unicode="&#x22;" horiz-adv-x="886" 
d="M231 1475h12.9961c56.667 0 92.334 -1.66699 107.001 -5s21.334 -11.333 20.001 -24l-29 -520c0 -15.333 -31.333 -23 -94 -23h-19c-65.333 0 -98 7.66699 -98 23l-27 520c-1.33301 12.667 5.33398 20.667 20.001 24s50.334 5 107.001 5zM642.996 1475h11.9961
c56.667 0 92.334 -1.66699 107.001 -5s21.334 -11.333 20.001 -24l-28 -520c0 -15.333 -31.667 -23 -95 -23h-18c-65.333 0 -98 7.66699 -98 23l-27 520c-1.33301 12.667 5.33398 20.667 20.001 24s50.334 5 107.001 5z" />
    <glyph glyph-name="numbersign" unicode="#" 
d="M530 877l-55 -271h203l55 271h-203zM510 1475l42.9971 0.000976562c27.333 0 48.166 -1 62.499 -3s23.333 -4.5 27 -7.5s5.16699 -7.16699 4.5 -12.5l-72 -354h203l74 354c1.33301 5.33301 4 9.5 8 12.5s13.167 5.5 27.5 7.5s35.166 3 62.499 3h43
c27.333 0 48.166 -1 62.499 -3s23.333 -4.5 27 -7.5s5.16699 -7.16699 4.5 -12.5l-71 -354h123h4c10 0 16.833 -1.33301 20.5 -4s6.66699 -11.334 9 -26.001s3.5 -39 3.5 -73v-6c0 -49.333 -2.5 -80.333 -7.5 -93s-14.833 -19 -29.5 -19h-166l-55 -271h118
c12 0 19.833 -0.833008 23.5 -2.5s6.83398 -9.66699 9.50098 -24s4 -39.5 4 -75.5v-6c0 -49.333 -2.5 -80.5 -7.5 -93.5s-14.833 -19.5 -29.5 -19.5h-164h-2l-75 -362c-2 -8 -9.16699 -13.833 -21.5 -17.5s-38.166 -5.5 -77.499 -5.5h-43c-27.333 0 -48.166 1 -62.499 3
s-23.333 4.5 -27 7.5s-5.16699 7.16699 -4.5 12.5l74 362h-203l-76 -362c-1.33301 -5.33301 -4 -9.5 -8 -12.5s-13.167 -5.5 -27.5 -7.5s-35.166 -3 -62.499 -3h-43c-27.333 0 -48.166 1 -62.499 3s-23.333 4.5 -27 7.5s-5.16699 7.16699 -4.5 12.5l74 362h-123
c-14.667 0 -24.5 6.5 -29.5 19.5s-7.5 44.167 -7.5 93.5v6c0 36 1.33301 61.167 4 75.5s5.83398 22.333 9.50098 24s11.5 2.5 23.5 2.5h168l55 271h-121c-14.667 0 -24.5 6.33301 -29.5 19s-7.5 43.667 -7.5 93v6c0 36 1.33301 61.167 4 75.5s5.83398 22.5 9.50098 24.5
s11.5 3 23.5 3h166l74 354c1.33301 5.33301 4 9.5 8 12.5s13.167 5.5 27.5 7.5s35.166 3 62.499 3z" />
    <glyph glyph-name="dollar" unicode="$" 
d="M647 1698l5.99805 0.00488281c40 0 69 -1.16699 87 -3.5s29.167 -5.33301 33.5 -9s6.5 -9.83398 6.5 -18.501v-182c96 -16.667 179.333 -49.667 250 -99c15.333 -12.667 22.333 -25.667 21 -39s-11 -38.333 -29 -75l-21 -41c-18 -36.667 -31.667 -58.834 -41 -66.501
s-20 -6.83398 -32 2.49902c-48.667 30 -92 51.833 -130 65.5s-79.333 20.5 -124 20.5c-58 0 -104.667 -15.5 -140 -46.5s-53 -70.833 -53 -119.5c0 -24 4.83301 -45.5 14.5 -64.5s27.834 -38.167 54.501 -57.5s47.167 -33 61.5 -41s42.5 -22.667 84.5 -44
c6.66699 -3.33301 11.667 -6 15 -8l59.5 -31l57.5 -32c24.667 -14 44 -26 58 -36s31.167 -23.167 51.5 -39.5s36.333 -31.833 48 -46.5s24.334 -32 38.001 -52s24.167 -40.333 31.5 -61s13.5 -43.834 18.5 -69.501s7.5 -52.5 7.5 -80.5c0 -116 -32.167 -212.5 -96.5 -289.5
s-157.5 -125.167 -279.5 -144.5v-183c0 -8.66699 -2.16699 -14.834 -6.5 -18.501s-15.5 -6.5 -33.5 -8.5s-47 -3 -87 -3h-7c-41.333 0 -71.333 1 -90 3s-30.167 4.83301 -34.5 8.5s-6.5 9.83398 -6.5 18.501v187c-118 19.333 -217 61.666 -297 126.999
c-14 10.667 -20.667 23.667 -20 39s9.66699 39.666 27 72.999l24 48c17.333 33.333 31.666 54.333 42.999 63s23.666 8.66699 36.999 0c109.333 -78 213 -117 311 -117c68 0 121.833 15.167 161.5 45.5s59.5 73.166 59.5 128.499c0 19.333 -2.33301 37.333 -7 54
s-13.167 32.334 -25.5 47.001s-23.166 26.834 -32.499 36.501s-25.166 21 -47.499 34s-38.666 22.167 -48.999 27.5l-57.5 29c-8.66699 4.66699 -15.334 8 -20.001 10l-75 37.5c-19.333 9.66699 -43.166 23.167 -71.499 40.5s-51.333 33.5 -69 48.5s-36.667 33.5 -57 55.5
s-36.333 44.333 -48 67s-21.334 49.167 -29.001 79.5s-11.5 62.166 -11.5 95.499c0 106.667 30.5 196.167 91.5 268.5s140.5 120.833 238.5 145.5v190c0 8.66699 2.16699 14.834 6.5 18.501s15.833 6.66699 34.5 9s48.667 3.5 90 3.5z" />
    <glyph glyph-name="percent" unicode="%" horiz-adv-x="1984" 
d="M477 1317c-95.333 0 -143 -82.667 -143 -248c0 -158.667 43.667 -238 131 -238c95.333 0 143 82.667 143 248c0 158.667 -43.667 238 -131 238zM479 1495c105.333 0 190.333 -35 255 -105s97 -171 97 -303c0 -139.333 -33.333 -246.5 -100 -321.5
s-156 -112.5 -268 -112.5c-105.333 0 -190.333 35 -255 105s-97 171 -97 303c0 139.333 33.333 246.5 100 321.5s156 112.5 268 112.5zM1462 1475h4c72 0 109.333 -5.33301 112 -16c0.666992 -4 -1.66602 -10.333 -6.99902 -19l-895 -1405c-8 -13.333 -22 -22.5 -42 -27.5
s-54.667 -7.5 -104 -7.5h-14c-65.333 0 -98.333 6.66699 -99 20c-0.666992 4 1 9 5 15l895 1405c8.66699 14.667 22.167 24.167 40.5 28.5s53.166 6.5 104.499 6.5zM1520 643c-96 0 -144 -82.667 -144 -248c0 -158 43.667 -237 131 -237c96 0 144 82.667 144 248
c0 158 -43.667 237 -131 237zM1522 821c105.333 0 190.333 -35 255 -105s97 -170.667 97 -302c0 -139.333 -33.333 -246.5 -100 -321.5s-156.334 -112.5 -269.001 -112.5c-105.333 0 -190.333 35 -255 105s-97 170.667 -97 302c0 139.333 33.333 246.5 100 321.5
s156.334 112.5 269.001 112.5z" />
    <glyph glyph-name="ampersand" unicode="&#x26;" horiz-adv-x="1425" 
d="M993 1315l-16 -32.999c-13.333 -30 -24.5 -49.333 -33.5 -58s-19.833 -10.334 -32.5 -5.00098c-65.333 30 -128.666 45 -189.999 45c-58.667 0 -104.334 -16.167 -137.001 -48.5s-49 -72.833 -49 -121.5c0 -35.333 8.33301 -70.5 25 -105.5s45.667 -76.5 87 -124.5
c70 -82.667 184 -197.334 342 -344.001c34.667 86.667 56 189.667 64 309c1.33301 12.667 8.5 21.334 21.5 26.001s42.5 7 88.5 7h23c43.333 0 73.833 -2.33301 91.5 -7s26.167 -13.334 25.5 -26.001c-8.66699 -183.333 -49 -343.666 -121 -480.999
c82.667 -69.333 140 -115.666 172 -138.999c21.333 -14.667 5.66602 -54.334 -47.001 -119.001l-17 -20c-29.333 -36.667 -51.666 -59.167 -66.999 -67.5s-27 -7.83301 -35 1.5c-47.333 32.667 -103.333 77 -168 133c-118 -104.667 -268.333 -157 -451 -157
c-90 0 -172 17.167 -246 51.5s-134 86 -180 155s-69 149.5 -69 241.5c0 87.333 22.833 164.166 68.5 230.499s110.167 119.833 193.5 160.5c-60 89.333 -90 181 -90 275c0 113.333 40.833 208.5 122.5 285.5s188.834 115.5 321.501 115.5c117.333 0 220.333 -28.667 309 -86
c10 -6.66699 14.667 -16.667 14 -30s-7.33398 -34.666 -20.001 -63.999zM463 664.001c-62.667 -52.667 -94 -123.667 -94 -213c0 -70 23.167 -125.833 69.5 -167.5s107.833 -62.5 184.5 -62.5c80 0 151 26 213 78c-166 152 -290.333 273.667 -373 365z" />
    <glyph glyph-name="quotesingle" unicode="'" horiz-adv-x="475" 
d="M231 1475h12.9961c56.667 0 92.334 -1.66699 107.001 -5s21.334 -11.333 20.001 -24l-29 -520c0 -15.333 -31.333 -23 -94 -23h-19c-65.333 0 -98 7.66699 -98 23l-27 520c-1.33301 12.667 5.33398 20.667 20.001 24s50.334 5 107.001 5z" />
    <glyph glyph-name="parenleft" unicode="(" horiz-adv-x="706" 
d="M565 1546l29 -17.999c24.667 -15.333 42.5 -28.166 53.5 -38.499s16.333 -17.833 16 -22.5s-1.83301 -9.66699 -4.5 -15c-72 -106 -129.167 -228.667 -171.5 -368s-63.5 -289 -63.5 -449s21.167 -309.667 63.5 -449s99.5 -262 171.5 -368
c2.66699 -5.33301 4.16699 -10.333 4.5 -15s-5 -12.167 -16 -22.5s-28.833 -23.166 -53.5 -38.499l-29 -18c-33.333 -20.667 -57.166 -32.834 -71.499 -36.501s-23.166 -1.83398 -26.499 5.49902c-99.333 96 -183.5 228.333 -252.5 397s-103.5 350.334 -103.5 545.001
c0 190.667 34.833 371.5 104.5 542.5s153.5 304.167 251.5 399.5c3.33301 7.33301 12.166 9.16602 26.499 5.49902s38.166 -15.834 71.499 -36.501z" />
    <glyph glyph-name="parenright" unicode=")" horiz-adv-x="706" 
d="M113 1528l28 17.9971c33.333 20.667 57.333 32.834 72 36.501s23.667 1.83398 27 -5.49902c98 -95.333 181.833 -228.5 251.5 -399.5s104.5 -351.833 104.5 -542.5c0 -194.667 -34.5 -376.334 -103.5 -545.001s-153.167 -301 -252.5 -397
c-3.33301 -7.33301 -12.333 -9.16602 -27 -5.49902s-38.667 15.834 -72 36.501l-28 18c-24.667 15.333 -42.667 28 -54 38s-16.833 17.5 -16.5 22.5s1.83301 10.167 4.5 15.5c72 106 129.333 228.667 172 368s64 289 64 449s-21.333 309.667 -64 449s-100 262 -172 368
c-2.66699 5.33301 -4.16699 10.5 -4.5 15.5s5.16699 12.5 16.5 22.5s29.333 22.667 54 38z" />
    <glyph glyph-name="asterisk" unicode="*" horiz-adv-x="864" 
d="M123 1323l221 -94l-20 237c-0.666992 12.667 4.83301 20.667 16.5 24s36.167 5 73.5 5h26c37.333 0 61.833 -1.66699 73.5 -5s17.167 -11.333 16.5 -24l-22 -237l233 94c13.333 4.66699 23.666 1.66699 30.999 -9s16.333 -33.667 27 -69l8 -26
c10.667 -34.667 15.834 -58.5 15.501 -71.5s-6.83301 -20.833 -19.5 -23.5l-242 -59l166 -186c9.33301 -8.66699 10.333 -19 3 -31s-24.666 -28.333 -51.999 -49l-25 -19c-28.667 -21.333 -49.334 -33.833 -62.001 -37.5s-22.667 0.166016 -30 11.499l-135 213l-125 -213
c-7.33301 -11.333 -17.333 -15.166 -30 -11.499s-33.334 16.167 -62.001 37.5l-25 19c-28 20.667 -45.333 36.167 -52 46.5s-5.66699 21.5 3 33.5l156 186l-230 59c-12.667 2.66699 -19.167 10.5 -19.5 23.5s4.83398 36.833 15.501 71.5l9 26
c10.667 35.333 19.5 58.333 26.5 69s17.167 13.667 30.5 9z" />
    <glyph glyph-name="plus" unicode="+" 
d="M127 829h358v359c0 10.667 6.5 18.167 19.5 22.5s40.833 6.5 83.5 6.5h28c42.667 0 70.5 -2.16699 83.5 -6.5s19.5 -11.833 19.5 -22.5v-359h360c10.667 0 18.167 -6.33301 22.5 -19s6.5 -40.334 6.5 -83.001v-29c0 -42.667 -2.16699 -70.334 -6.5 -83.001
s-11.833 -19 -22.5 -19h-360v-360c0 -10.667 -6.5 -18.167 -19.5 -22.5s-40.833 -6.5 -83.5 -6.5h-28c-42.667 0 -70.5 2.16699 -83.5 6.5s-19.5 11.833 -19.5 22.5v360h-358c-10.667 0 -18.167 6.33301 -22.5 19s-6.5 40.334 -6.5 83.001v29
c0 42.667 2.16699 70.334 6.5 83.001s11.833 19 22.5 19z" />
    <glyph glyph-name="comma" unicode="," horiz-adv-x="489" 
d="M90 -371l-36.999 32.999c-12 10 -18.5 18.333 -19.5 25s2.83301 16 11.5 28c75.333 96.667 113 179.334 113 248.001c0 21.333 -4.83301 40.666 -14.5 57.999s-20.167 31.333 -31.5 42s-21.833 25.167 -31.5 43.5s-14.5 38.833 -14.5 61.5
c0 38.667 14.833 72.834 44.5 102.501s67.167 44.5 112.5 44.5c53.333 0 97.166 -18.667 131.499 -56s51.5 -86 51.5 -146c0 -82.667 -22.5 -165.834 -67.5 -249.501s-107.833 -162.5 -188.5 -236.5c-18.667 -17.333 -38.667 -16.666 -60 2.00098z" />
    <glyph glyph-name="hyphen" unicode="-" horiz-adv-x="798" 
d="M98 707h602c10.667 0 18.167 -6.5 22.5 -19.5s6.5 -40.833 6.5 -83.5v-29c0 -42.667 -2.16699 -70.334 -6.5 -83.001s-11.833 -19 -22.5 -19h-602c-10.667 0 -18 6.33301 -22 19s-6 40.334 -6 83.001v29c0 42.667 2 70.5 6 83.5s11.333 19.5 22 19.5z" />
    <glyph glyph-name="period" unicode="." horiz-adv-x="489" 
d="M70 147c0 47.333 16.667 87.5 50 120.5s74.666 49.5 123.999 49.5c50.667 0 92.667 -16.5 126 -49.5s50 -73.167 50 -120.5c0 -46.667 -16.667 -86.167 -50 -118.5s-75.333 -48.5 -126 -48.5c-49.333 0 -90.666 16.167 -123.999 48.5s-50 71.833 -50 118.5z" />
    <glyph glyph-name="slash" unicode="/" horiz-adv-x="755" 
d="M586 1475h26c74 0 114 -5.66699 120 -17c2 -4 1.66699 -10 -1 -18l-426 -1405c-4 -14.667 -14.667 -24.167 -32 -28.5s-51.666 -6.5 -102.999 -6.5h-27c-73.333 0 -113 5.66699 -119 17c-2 4 -1.66699 10 1 18l426 1405c4 14.667 14.667 24.167 32 28.5
s51.666 6.5 102.999 6.5z" />
    <glyph glyph-name="zero" unicode="0" 
d="M612 1260c-160.667 0 -241 -178.333 -241 -535c0 -173.333 18.5 -301.666 55.5 -384.999s93.5 -125 169.5 -125c161.333 0 242 178.333 242 535c0 173.333 -18.667 301.666 -56 384.999s-94 125 -170 125zM621 1495c162 0 287.332 -61.833 375.999 -185.5
s133 -305.5 133 -545.5c0 -252.667 -47.167 -446.5 -141.5 -581.5s-227.833 -202.5 -400.5 -202.5c-162 0 -287.5 61.833 -376.5 185.5s-133.5 305.5 -133.5 545.5c0 252.667 47.333 446.5 142 581.5s228.334 202.5 401.001 202.5z" />
    <glyph glyph-name="one" unicode="1" 
d="M150 1270l356 166.001c58.667 26 108.334 39 149.001 39h52c31.333 0 51.333 -2.16699 60 -6.5s13 -12.5 13 -24.5v-1223h240c9.33301 0 15.666 -5.83301 18.999 -17.5s5 -39.167 5 -82.5v-21c0 -42.667 -1.66699 -70 -5 -82s-9.66602 -18 -18.999 -18h-791
c-9.33301 0 -15.666 6 -18.999 18s-5 39.333 -5 82v21c0 43.333 1.66699 70.833 5 82.5s9.66602 17.5 18.999 17.5h267v946l-252 -108c-13.333 -5.33301 -24.833 -3 -34.5 7s-22.834 34.333 -39.501 73l-12 28c-15.333 35.333 -23.5 60.166 -24.5 74.499
s4.5 23.833 16.5 28.5z" />
    <glyph glyph-name="two" unicode="2" 
d="M186 1231l-23.998 43c-14 25.333 -20.833 44.5 -20.5 57.5s7.83301 24.5 22.5 34.5c53.333 38.667 114.666 69.834 183.999 93.501s137.666 35.5 204.999 35.5c141.333 0 252.5 -38 333.5 -114s121.5 -179.333 121.5 -310c0 -93.333 -26 -186.833 -78 -280.5
s-144.333 -215.167 -277 -364.5l-166 -186h514c6.66699 0 11.667 -2.16699 15 -6.5s5.83301 -13.833 7.5 -28.5s2.5 -36.667 2.5 -66v-39c0 -29.333 -0.833008 -51.333 -2.5 -66s-4.16699 -24 -7.5 -28s-8.33301 -6 -15 -6h-782c-38.667 0 -63 1.83301 -73 5.5
s-15 12.167 -15 25.5v67c0 30 2.5 53.667 7.5 71s16.833 37.333 35.5 60l275 334c99.333 120.667 168.5 216.167 207.5 286.5s58.5 140.833 58.5 211.5c0 63.333 -18 113 -54 149s-84.333 54 -145 54c-67.333 0 -152 -31 -254 -93
c-10.667 -6.66699 -21.5 -6.33398 -32.5 0.999023s-25.5 27 -43.5 59z" />
    <glyph glyph-name="three" unicode="3" 
d="M221 1264l-17.999 33.999c-16.667 32.667 -25.667 54.834 -27 66.501s5.66699 22.5 21 32.5c48 30 103.167 53.833 165.5 71.5s125.166 26.5 188.499 26.5c134 0 240.833 -37 320.5 -111s119.5 -168.667 119.5 -284c0 -68.667 -19.667 -130.667 -59 -186
s-93.333 -97.333 -162 -126c82 -24.667 146.167 -67.667 192.5 -129s69.5 -136.333 69.5 -225c0 -127.333 -39 -231 -117 -311c-93.333 -95.333 -230.333 -143 -411 -143c-73.333 0 -144.666 9.5 -213.999 28.5s-128.333 45.5 -177 79.5c-12 6 -17.833 15.5 -17.5 28.5
s8.16602 35.5 23.499 67.5l18 37c16 33.333 29.167 54.833 39.5 64.5s21.166 11.5 32.499 5.5c96 -53.333 191 -80 285 -80c74.667 0 134.167 19.667 178.5 59s66.5 93.333 66.5 162c0 72 -21.667 126.667 -65 164c-46 40.667 -134 61 -264 61h-43
c-6.66699 0 -11.667 2 -15 6s-6.16602 13.5 -8.49902 28.5s-3.5 37.167 -3.5 66.5v18c0 29.333 1.16699 51.5 3.5 66.5s5.16602 24.5 8.49902 28.5s8.33301 6 15 6h51c106 0 180.333 18.333 223 55c44 37.333 66 87 66 149c0 56.667 -18 101.667 -54 135s-82.333 50 -139 50
c-64.667 0 -137 -20 -217 -60c-11.333 -8 -22.666 -8.16699 -33.999 -0.5s-25.333 27.167 -42 58.5z" />
    <glyph glyph-name="four" unicode="4" 
d="M600 1475l23.001 0.000976562c80 0 121.333 -7 124 -21c0 -2.66699 -0.666992 -6 -2 -10l-362 -881h289v248c0 12.667 8 21 24 25s52.333 6 109 6h10c54.667 0 91.167 -2 109.5 -6s27.5 -12.333 27.5 -25v-248h152c10.667 0 17.667 -5.5 21 -16.5s5 -38.167 5 -81.5v-31
c0 -44 -1.83301 -72.667 -5.5 -86s-10.5 -20 -20.5 -20h-152v-297c0 -12.667 -9.16699 -21 -27.5 -25s-54.833 -6 -109.5 -6h-10c-56.667 0 -93 2 -109 6s-24 12.333 -24 25v297h-498c-39.333 0 -63.833 1.66699 -73.5 5s-14.5 11.666 -14.5 24.999v82
c0 51.333 4.66699 88.333 14 111l365 893c5.33301 13.333 15.666 21.833 30.999 25.5s50 5.5 104 5.5z" />
    <glyph glyph-name="five" unicode="5" 
d="M307 1475h648.999c6.66699 0 11.667 -2.16699 15 -6.5s5.83301 -13.833 7.5 -28.5s2.5 -36.667 2.5 -66v-39c0 -29.333 -0.833008 -51.333 -2.5 -66s-4.16699 -24 -7.5 -28s-8.33301 -6 -15 -6h-483v-289c24 2.66699 53.333 4 88 4c148 0 266 -39.833 354 -119.5
s132 -194.167 132 -343.5c0 -144 -44 -262 -132 -354c-98 -102 -235 -153 -411 -153c-140.667 0 -265.667 36 -375 108c-14 7.33301 -21 18.5 -21 33.5s9 40.167 27 75.5l19 36c16.667 31.333 28.667 50.833 36 58.5s17 8.16699 29 1.5
c92.667 -54.667 186.334 -82 281.001 -82c77.333 0 139.333 23.5 186 70.5s70 111.5 70 193.5c0 83.333 -24 147.5 -72 192.5s-117.667 67.5 -209 67.5c-74.667 0 -145 -7.33301 -211 -22c-32.667 -8.66699 -49 -0.666992 -49 24v707c0 13.333 5.33301 21.833 16 25.5
s36 5.5 76 5.5z" />
    <glyph glyph-name="six" unicode="6" 
d="M985 1323l-27.001 -51.002c-14.667 -27.333 -26 -44.166 -34 -50.499s-17 -7.16602 -27 -2.49902c-66.667 32.667 -128 49 -184 49c-78 0 -139.667 -28.667 -185 -86c-56 -73.333 -92 -184 -108 -332c84 62.667 174.667 94 272 94c126 0 226.5 -40.5 301.5 -121.5
s112.5 -187.833 112.5 -320.5c0 -92.667 -20 -178.334 -60 -257.001s-98.333 -142.5 -175 -191.5s-164.334 -73.5 -263.001 -73.5c-84 0 -157.667 15.667 -221 47s-114.333 76 -153 134s-67.5 126.333 -86.5 205s-28.5 167.667 -28.5 267c0 262.667 51.833 472 155.5 628
s244.834 234 423.501 234c56 0 109.333 -8 160 -24s93 -36 127 -60c14 -11.333 20.833 -22.666 20.5 -33.999s-7.16602 -29.333 -20.499 -54zM409.999 648.998l0.00195312 -26c0 -136 18 -239 54 -309s87.333 -105 154 -105c58.667 0 107.5 26 146.5 78
s58.5 118.667 58.5 200c0 76.667 -17.5 134.5 -52.5 173.5s-85.833 58.5 -152.5 58.5c-32.667 0 -68.334 -6.5 -107.001 -19.5s-72.334 -29.833 -101.001 -50.5z" />
    <glyph glyph-name="seven" unicode="7" 
d="M166 1475h828.998c37.333 0 61.333 -2.83301 72 -8.5s16 -16.5 16 -32.5v-86c0 -35.333 -13 -84 -39 -146l-485 -1171c-4.66699 -13.333 -15.5 -21.833 -32.5 -25.5s-53.167 -5.5 -108.5 -5.5h-74c-37.333 0 -62.166 2.16699 -74.499 6.5s-16.166 12.5 -11.499 24.5
l528 1204h-620c-6.66699 0 -11.667 2 -15 6s-5.83301 13.333 -7.5 28s-2.5 36.667 -2.5 66v39c0 29.333 0.833008 51.333 2.5 66s4.16699 24.167 7.5 28.5s8.33301 6.5 15 6.5z" />
    <glyph glyph-name="eight" unicode="8" 
d="M352 745c-118.667 85.333 -178.004 199.331 -178.004 341.998c0 118.667 41.667 216 125 292s192 114 326 114c128.667 0 232.834 -34 312.501 -102s119.5 -159 119.5 -273c0 -62.667 -18.667 -121.167 -56 -175.5s-89 -102.166 -155 -143.499
c37.333 -20 70.333 -41.5 99 -64.5s55.834 -50.167 81.501 -81.5s45.334 -67.833 59.001 -109.5s20.5 -87.5 20.5 -137.5c0 -70 -13.167 -132.5 -39.5 -187.5s-63.166 -100 -110.499 -135s-102.333 -61.5 -165 -79.5s-131.667 -27 -207 -27c-90 0 -170.833 14.667 -242.5 44
s-129.5 74.833 -173.5 136.5s-66 135.5 -66 221.5c0 78.667 22.667 149.334 68 212.001s106 114 182 154zM529.996 644.998c-94 -63.333 -140.999 -145.998 -140.999 -247.998c0 -58.667 20 -104.667 60 -138s91.667 -50 155 -50c64.667 0 116.667 16.667 156 50
s59 78 59 134c0 23.333 -4.5 45.166 -13.5 65.499s-21.667 38.166 -38 53.499s-35.333 29.833 -57 43.5s-45.334 26.834 -71.001 39.501s-52.167 25 -79.5 37c-13.333 5.33301 -23.333 9.66602 -30 12.999zM656.997 889c37.333 28 68.166 60.833 92.499 98.5
s36.5 77.167 36.5 118.5c0 47.333 -15.667 86.5 -47 117.5s-72.333 46.5 -123 46.5c-48 0 -87.167 -15.667 -117.5 -47s-45.5 -69 -45.5 -113c0 -50.667 17.333 -92.5 52 -125.5s85.334 -64.833 152.001 -95.5z" />
    <glyph glyph-name="nine" unicode="9" 
d="M188 156l26.9971 50.999c14.667 27.333 26.334 44.333 35.001 51s17.334 7.33398 26.001 2.00098c63.333 -35.333 132.333 -53 207 -53c108.667 0 187.334 45.667 236.001 137c40.667 76.667 66 184.667 76 324c-87.333 -64.667 -179.666 -97 -276.999 -97
c-124.667 0 -225.167 38.833 -301.5 116.5s-114.5 179.5 -114.5 305.5c0 90.667 19 173.834 57 249.501s94.167 136.667 168.5 183s159.833 69.5 256.5 69.5c338.667 0 508 -217.667 508 -653c0 -286.667 -59 -508 -177 -664c-100 -132 -235 -198 -405 -198
c-132 0 -239.333 29.333 -322 88c-14 11.333 -20.833 22.666 -20.5 33.999s7.16602 29.333 20.499 54zM800.997 861.999c-0.666992 139.333 -18.499 241.5 -53.499 306.5s-87.5 97.5 -157.5 97.5c-58 0 -106 -22.833 -144 -68.5s-57 -105.5 -57 -179.5
c0 -72.667 18.167 -128 54.5 -166s87.166 -57 152.499 -57c33.333 0 68.833 6.16699 106.5 18.5s70.5 28.5 98.5 48.5z" />
    <glyph glyph-name="colon" unicode=":" horiz-adv-x="489" 
d="M70 147c0 47.333 16.667 87.5 50 120.5s74.666 49.5 123.999 49.5c50.667 0 92.667 -16.5 126 -49.5s50 -73.167 50 -120.5c0 -46.667 -16.667 -86.167 -50 -118.5s-75.333 -48.5 -126 -48.5c-49.333 0 -90.666 16.167 -123.999 48.5s-50 71.833 -50 118.5zM70 881
c0 47.333 16.667 87.5 50 120.5s74.666 49.5 123.999 49.5c50.667 0 92.667 -16.5 126 -49.5s50 -73.167 50 -120.5c0 -46.667 -16.667 -86.334 -50 -119.001s-75.333 -49 -126 -49c-49.333 0 -90.666 16.333 -123.999 49s-50 72.334 -50 119.001z" />
    <glyph glyph-name="semicolon" unicode=";" horiz-adv-x="489" 
d="M70 881c0 47.333 16.667 87.5 50 120.5s74.666 49.5 123.999 49.5c50.667 0 92.667 -16.5 126 -49.5s50 -73.167 50 -120.5c0 -46.667 -16.667 -86.334 -50 -119.001s-75.333 -49 -126 -49c-49.333 0 -90.666 16.333 -123.999 49s-50 72.334 -50 119.001zM96 -371
l-36.999 32.999c-12 10 -18.5 18.333 -19.5 25s2.83301 16 11.5 28c75.333 96.667 113 179.334 113 248.001c0 21.333 -4.83301 40.666 -14.5 57.999s-20.167 31.333 -31.5 42s-21.833 25.167 -31.5 43.5s-14.5 38.833 -14.5 61.5c0 38.667 14.833 72.834 44.5 102.501
s67.167 44.5 112.5 44.5c53.333 0 97.166 -18.667 131.499 -56s51.5 -86 51.5 -146c0 -82.667 -22.5 -165.834 -67.5 -249.501s-107.833 -162.5 -188.5 -236.5c-18.667 -17.333 -38.667 -16.666 -60 2.00098z" />
    <glyph glyph-name="less" unicode="&#x3c;" 
d="M158 821l786.001 465c12 9.33301 24.667 9.83301 38 1.5s30.666 -31.166 51.999 -68.499l8 -15c22.667 -40.667 35.167 -68.5 37.5 -83.5s-3.16699 -25.167 -16.5 -30.5l-641 -377l641 -377c13.333 -5.33301 18.833 -15.666 16.5 -30.999s-14.833 -43.333 -37.5 -84
l-8 -14c-21.333 -37.333 -38.666 -60.333 -51.999 -69s-26 -8.33398 -38 0.999023l-786 465c-12.667 7.33301 -21.334 17.333 -26.001 30s-7 35.334 -7 68.001v21c0 31.333 2.5 53.666 7.5 66.999s13.5 23.666 25.5 30.999z" />
    <glyph glyph-name="equal" unicode="=" 
d="M168 1073h870c10.667 0 18.167 -6.33301 22.5 -19s6.5 -40.334 6.5 -83.001v-29c0 -42.667 -2.16699 -70.334 -6.5 -83.001s-11.833 -19 -22.5 -19h-870c-10.667 0 -18.167 6.33301 -22.5 19s-6.5 40.334 -6.5 83.001v29c0 42.667 2.16699 70.334 6.5 83.001
s11.833 19 22.5 19zM168 584h870c10.667 0 18.167 -6.5 22.5 -19.5s6.5 -40.833 6.5 -83.5v-28c0 -42.667 -2.16699 -70.5 -6.5 -83.5s-11.833 -19.5 -22.5 -19.5h-870c-10.667 0 -18.167 6.5 -22.5 19.5s-6.5 40.833 -6.5 83.5v28c0 42.667 2.16699 70.5 6.5 83.5
s11.833 19.5 22.5 19.5z" />
    <glyph glyph-name="greater" unicode="&#x3e;" 
d="M164 1204l8 14.999c21.333 37.333 38.666 60.166 51.999 68.499s26 7.83301 38 -1.5l787 -465c12 -7.33301 20.333 -17.5 25 -30.5s7 -35.5 7 -67.5v-21c0 -33.333 -2.33301 -56.166 -7 -68.499s-13 -22.166 -25 -29.499l-787 -465
c-12 -9.33301 -24.667 -9.66602 -38 -0.999023s-30.666 31.667 -51.999 69l-8 14c-22.667 40.667 -35.167 68.667 -37.5 84s3.16699 25.666 16.5 30.999l641 377l-641 377c-13.333 5.33301 -18.833 15.5 -16.5 30.5s14.833 42.833 37.5 83.5z" />
    <glyph glyph-name="question" unicode="?" horiz-adv-x="935" 
d="M213 147c0 47.333 16.332 87.5 48.999 120.5s73.667 49.5 123 49.5c50 0 91.5 -16.5 124.5 -49.5s49.5 -73.167 49.5 -120.5c0 -46.667 -16.333 -86.167 -49 -118.5s-73.667 -48.5 -123 -48.5s-90.666 16.167 -123.999 48.5s-50 71.833 -50 118.5zM114.999 1241
l-28.998 53.002c-13.333 24.667 -20 43 -20 55s7.33301 23 22 33c105.333 75.333 223.333 113 354 113c128 0 231.167 -33.167 309.5 -99.5s117.833 -156.833 118.5 -271.5c0 -46 -6.5 -88.833 -19.5 -128.5s-30 -73.834 -51 -102.501s-44.167 -55.667 -69.5 -81
s-50.833 -49.333 -76.5 -72s-49.167 -45.167 -70.5 -67.5s-38.833 -47.166 -52.5 -74.499s-21.167 -56 -22.5 -86c0 -10.667 -6.83301 -17.834 -20.5 -21.501s-42.5 -5.5 -86.5 -5.5h-39c-44 0 -72.667 1.83301 -86 5.5s-20 11.5 -20 23.5v8c0 44 6 84.833 18 122.5
s27.333 70.167 46 97.5s39.5 53.166 62.5 77.499s46 47.333 69 69s43.833 43.167 62.5 64.5s34 45.166 46 71.499s18 54.166 18 83.499c0 44.667 -14.333 80.334 -43 107.001s-71 40 -127 40c-70.667 0 -143.334 -24.333 -218.001 -73
c-12 -8.66699 -23.333 -9.16699 -34 -1.5s-24.334 27.834 -41.001 60.501z" />
    <glyph glyph-name="at" unicode="@" horiz-adv-x="1703" 
d="M1026 1032l11.9971 41.0029c2.66699 8 13.5 14.167 32.5 18.5s38.833 6.5 59.5 6.5h37c30 0 52.667 -1.33301 68 -4s25 -6 29 -10s5.33301 -9.66699 4 -17c-39.333 -155.333 -60.666 -240 -63.999 -254l-35 -160c-5.33301 -33.333 -8 -54.333 -8 -63
c0 -57.333 23.333 -86 70 -86c50.667 0 95.667 32.833 135 98.5s59 151.5 59 257.5c0 134.667 -44.333 241 -133 319s-214.334 117 -377.001 117c-95.333 0 -182.666 -16.667 -261.999 -50s-144.666 -78.333 -195.999 -135s-91.166 -122 -119.499 -196
s-42.5 -152.333 -42.5 -235c0 -72.667 10 -138.334 30 -197.001s47.333 -107.834 82 -147.501s76.5 -72.834 125.5 -99.501s101.5 -46 157.5 -58s116 -18 180 -18c132.667 0 266 19.667 400 59c8 2 15.167 -1.16699 21.5 -9.5s12.166 -24.833 17.499 -49.5l8 -35
c8 -35.333 4 -56 -12 -62c-61.333 -26 -134.166 -46.333 -218.499 -61s-167.833 -22 -250.5 -22c-116.667 0 -225.667 18 -327 54s-185.666 88 -252.999 156c-122.667 122.667 -184 281.334 -184 476.001c0 98 15 190.667 45 278s71.5 164.166 124.5 230.499
s114.833 123.833 185.5 172.5s148 85.5 232 110.5s170.333 37.5 259 37.5c220 0 395 -57 525 -171s195 -266.667 195 -458c0 -50.667 -6.16699 -101.334 -18.5 -152.001s-31 -99 -56 -145s-54.667 -86.5 -89 -121.5s-75.333 -63 -123 -84s-98.834 -31.5 -153.501 -31.5
c-60.667 0 -111.5 10 -152.5 30s-70.167 46.667 -87.5 80c-28 -33.333 -61.833 -60 -101.5 -80s-82.167 -30 -127.5 -30c-90 0 -158.167 28.5 -204.5 85.5s-69.5 128.833 -69.5 215.5c0 54.667 9.16699 109.834 27.5 165.501s43.833 107 76.5 154s75.167 85.333 127.5 115
s109.5 44.5 171.5 44.5c77.333 0 133.333 -26.667 168 -80zM953.997 721.003l34.999 164c-25.333 32.667 -60 49 -104 49c-55.333 0 -102.666 -28.833 -141.999 -86.5s-59 -125.167 -59 -202.5c0 -41.333 8.5 -73.833 25.5 -97.5s41.167 -35.5 72.5 -35.5
c40.667 0 75 15.667 103 47c30.667 34.667 53.667 88.667 69 162z" />
    <glyph glyph-name="A" unicode="A" horiz-adv-x="1351" 
d="M662 1475h18.001c55.333 0 91 -2 107 -6s26.667 -13 32 -27l506 -1405c5.33301 -14.667 -0.333984 -24.667 -17.001 -30c-18 -4.66699 -54.667 -7 -110 -7h-24c-57.333 0 -96.666 2.5 -117.999 7.5s-34 14.167 -38 27.5l-117 340h-471l-113 -340
c-4 -13.333 -15.667 -22.5 -35 -27.5s-57.333 -7.5 -114 -7.5h-21c-20.667 0 -37.834 0.166992 -51.501 0.5s-25.667 1 -36 2s-18 2.33301 -23 4s-8.66699 3.83398 -11 6.50098s-3.5 5.66699 -3.5 9s1 7.66602 3 12.999l499 1407c3.33301 8.66699 7.83301 15 13.5 19
s18.167 7.33301 37.5 10s48.333 4 87 4zM528.001 668l-22 -68h319l-22 72c-62 194 -107 342 -135 444c-38 -132.667 -84.667 -282 -140 -448z" />
    <glyph glyph-name="B" unicode="B" horiz-adv-x="1236" 
d="M446 645l-0.00195312 -411.999h103c108.667 0 186.334 20 233.001 60c38.667 34 58 83 58 147c0 63.333 -15.667 110.666 -47 141.999c-24 24 -54.667 40.5 -92 49.5s-88.666 13.5 -153.999 13.5h-101zM445.998 1239l0.000976562 -369.001h74
c85.333 0 149.666 18.667 192.999 56c36.667 32.667 55 78.334 55 137.001c0 52 -14.333 92.333 -43 121c-36.667 36.667 -105 55 -205 55h-74zM241.999 1475l268 0.000976562c113.333 0 207.5 -10.667 282.5 -32s135.833 -56.666 182.5 -105.999
c61.333 -63.333 92 -143 92 -239c0 -134.667 -66.333 -238.667 -199 -312c182 -64.667 273 -181.334 273 -350.001c0 -114 -34.333 -207.333 -103 -280c-51.333 -54.667 -116.833 -94.334 -196.5 -119.001s-178.5 -37 -296.5 -37h-303c-40 -0 -65.333 1.83301 -76 5.5
s-16 12.167 -16 25.5v1413c0 13.333 5.33301 21.833 16 25.5s36 5.5 76 5.5z" />
    <glyph glyph-name="C" unicode="C" horiz-adv-x="1200" 
d="M1106 1264l-26.999 -46.9971c-19.333 -34.667 -33 -55.834 -41 -63.501s-18 -7.83398 -30 -0.500977c-48.667 32.667 -93.167 56.167 -133.5 70.5s-84.833 21.5 -133.5 21.5c-114.667 0 -203.667 -44 -267 -132s-95 -215.333 -95 -382
c0 -160.667 30.167 -284.167 90.5 -370.5s151.5 -129.5 273.5 -129.5c94.667 0 187 24 277 72c16 7.33301 27.667 7.66602 35 0.999023s19 -26.667 35 -60l22 -49c11.333 -24.667 18.666 -42.5 21.999 -53.5s3.5 -20.333 0.5 -28s-10.5 -14.834 -22.5 -21.501
c-50.667 -31.333 -114.667 -57.833 -192 -79.5s-151.333 -32.5 -222 -32.5c-197.333 0 -350.666 65.833 -459.999 197.5s-164 313.5 -164 545.5c0 153.333 25.5 288 76.5 404s125.5 206.333 223.5 271s213 97 345 97c152.667 0 283.667 -41 393 -123
c17.333 -14 25.666 -26.667 24.999 -38s-11 -34.666 -31 -69.999z" />
    <glyph glyph-name="D" unicode="D" horiz-adv-x="1374" 
d="M446 1237v-999.002h107c143.333 0 249 31.333 317 94c84.667 80.667 127 216.334 127 407.001c0 168.667 -32 291.667 -96 369c-37.333 44.667 -83 77.334 -137 98.001s-121.667 31 -203 31h-115zM242 1475h307c260.667 0 449 -61 565 -183
c58 -60 103.5 -137.167 136.5 -231.5s49.5 -200.166 49.5 -317.499c0 -256 -71.667 -451.667 -215 -587c-60 -56.667 -132.667 -96.834 -218 -120.501s-188 -35.5 -308 -35.5h-317c-40 0 -65.333 1.83301 -76 5.5s-16 12.167 -16 25.5v1413c0 13.333 5.33301 21.833 16 25.5
s36 5.5 76 5.5z" />
    <glyph glyph-name="E" unicode="E" horiz-adv-x="1157" 
d="M242 1475h768c15.333 0 24.833 -5.5 28.5 -16.5s5.5 -41.833 5.5 -92.5v-16c0 -48.667 -2.16699 -79.667 -6.5 -93s-13.5 -20 -27.5 -20h-564v-373h478c15.333 0 24.833 -5.5 28.5 -16.5s5.5 -41.5 5.5 -91.5v-17c0 -48.667 -2.16699 -79.5 -6.5 -92.5
s-13.5 -19.5 -27.5 -19.5h-478v-389h572c15.333 0 25 -5.66699 29 -17s6 -42 6 -92v-16c0 -48 -2.33301 -78.833 -7 -92.5s-14 -20.5 -28 -20.5h-776c-40 -0 -65.333 1.83301 -76 5.5s-16 12.167 -16 25.5v1413c0 13.333 5.33301 21.833 16 25.5s36 5.5 76 5.5z" />
    <glyph glyph-name="F" unicode="F" horiz-adv-x="1099" 
d="M242 1475l767.999 0.000976562c15.333 0 24.833 -5.5 28.5 -16.5s5.5 -41.833 5.5 -92.5v-16c0 -48.667 -2.16699 -79.667 -6.5 -93s-13.5 -20 -27.5 -20h-564v-373h478c15.333 0 24.833 -5.5 28.5 -16.5s5.5 -41.5 5.5 -91.5v-17c0 -48.667 -2.16699 -79.5 -6.5 -92.5
s-13.5 -19.5 -27.5 -19.5h-478v-600c0 -10 -9.66699 -17 -29 -21s-56 -6 -110 -6h-22c-57.333 0 -94.166 1.66699 -110.499 5s-24.5 10.666 -24.5 21.999v1417c0 13.333 5.33301 21.833 16 25.5s36 5.5 76 5.5z" />
    <glyph glyph-name="G" unicode="G" horiz-adv-x="1363" 
d="M705 827l430.003 -0.00195312c40.667 0 66.167 -1.66699 76.5 -5s15.5 -11.666 15.5 -24.999v-676c0 -20 -8.33301 -34.333 -25 -43c-52.667 -28 -124.334 -51.333 -215.001 -70s-178 -28 -262 -28c-212.667 0 -374.334 65.833 -485.001 197.5s-166 318.167 -166 559.5
c0 239.333 62.667 427 188 563c58.667 62.667 130 110.834 214 144.501s176 50.5 276 50.5c163.333 0 307.333 -44.333 432 -133c16 -8 23.167 -19.5 21.5 -34.5s-14.5 -42.5 -38.5 -82.5l-24 -41c-20 -33.333 -35.5 -53.5 -46.5 -60.5s-20.833 -5.83301 -29.5 3.5
c-50 33.333 -97.667 58 -143 74s-96 24 -152 24c-128.667 0 -226.334 -43 -293.001 -129s-100 -211.667 -100 -377c0 -164.667 31 -291.167 93 -379.5s156.667 -132.5 284 -132.5c58 0 116.667 9 176 27v336h-227c-14.667 0 -24.5 6.33301 -29.5 19s-7.5 43.667 -7.5 93v17
c0 36 1.33301 61.667 4 77s6 24.333 10 27s11.667 4 23 4z" />
    <glyph glyph-name="H" unicode="H" horiz-adv-x="1411" 
d="M285 1475h22c54.667 0 91.5 -2 110.5 -6s28.5 -12.333 28.5 -25v-580h519v580c0 12.667 8.33301 21 25 25s53.334 6 110.001 6h22c55.333 0 92.5 -2 111.5 -6s28.5 -12.333 28.5 -25v-1413c0 -12.667 -9.5 -21 -28.5 -25s-56.167 -6 -111.5 -6h-22
c-56.667 0 -93.334 2 -110.001 6s-25 12.333 -25 25v596h-519v-596c0 -12.667 -9.5 -21 -28.5 -25s-55.833 -6 -110.5 -6h-22c-56.667 0 -93.334 2 -110.001 6s-25 12.333 -25 25v1413c0 12.667 8.33301 21 25 25s53.334 6 110.001 6z" />
    <glyph glyph-name="I" unicode="I" horiz-adv-x="841" 
d="M139 1475h563c6.66699 0 11.667 -2.16699 15 -6.5s5.83301 -13.833 7.5 -28.5s2.5 -36.667 2.5 -66v-10c0 -29.333 -0.833008 -51.333 -2.5 -66s-4.16699 -24 -7.5 -28s-8.33301 -6 -15 -6h-133v-1053h133c6.66699 0 11.667 -2 15 -6s5.83301 -13.333 7.5 -28
s2.5 -36.667 2.5 -66v-11c0 -29.333 -0.833008 -51.333 -2.5 -66s-4.16699 -24 -7.5 -28s-8.33301 -6 -15 -6h-563c-9.33301 0 -15.666 6 -18.999 18s-5 39.333 -5 82v11c0 43.333 1.66699 70.833 5 82.5s9.66602 17.5 18.999 17.5h133v1053h-133
c-9.33301 0 -15.666 6 -18.999 18s-5 39.333 -5 82v10c0 43.333 1.66699 71 5 83s9.66602 18 18.999 18z" />
    <glyph glyph-name="J" unicode="J" horiz-adv-x="968" 
d="M662 1475l22.002 0.00195312c54 0 90.667 -2.16699 110 -6.5s29 -12.5 29 -24.5v-950c0 -179.333 -37.333 -309.333 -112 -390c-74.667 -82.667 -189.334 -124 -344.001 -124c-111.333 0 -207 18.333 -287 55c-11.333 5.33301 -17.333 15.166 -18 29.499
s4 39.166 14 74.499l12 41c10.667 35.333 20.5 58.666 29.5 69.999s21.833 14 38.5 8c65.333 -20.667 122.666 -31 171.999 -31c68 0 116.333 17.333 145 52c21.333 22.667 35.5 50.834 42.5 84.501s10.5 78.5 10.5 134.5v946c0 12 8.83301 20.167 26.5 24.5
s54.167 6.5 109.5 6.5z" />
    <glyph glyph-name="K" unicode="K" horiz-adv-x="1275" 
d="M285 1475l22.002 0.000976562c54 0 90.667 -2.16699 110 -6.5s29 -12.5 29 -24.5v-572l56 60c152 162.667 287.667 334 407 514c7.33301 12 18.833 19.833 34.5 23.5s49.167 5.5 100.5 5.5h25c78 0 119.667 -5.33301 125 -16c2 -4 1.33301 -9.66699 -2 -17
c-82 -169.333 -231.667 -367.333 -449 -594l476 -811c8 -16 2.33301 -26.333 -17 -31c-16 -4 -46 -6 -90 -6h-59c-45.333 0 -77.5 0.833008 -96.5 2.5s-32 4.16699 -39 7.5s-13.167 9.66602 -18.5 18.999l-352 614l-101 -104v-508c0 -20.667 -46.333 -31 -139 -31h-22
c-56.667 0 -93.334 2 -110.001 6s-25 12.333 -25 25v1413c0 12 8.66699 20.167 26 24.5s53.666 6.5 108.999 6.5z" />
    <glyph glyph-name="L" unicode="L" horiz-adv-x="1056" 
d="M285 1475h22.001c54 0 90.667 -2.16699 110 -6.5s29 -12.5 29 -24.5v-1206h525c15.333 0 25 -5.66699 29 -17s6 -42 6 -92v-16c0 -48 -2.33301 -78.833 -7 -92.5s-14 -20.5 -28 -20.5h-729c-40 -0 -65.333 1.83301 -76 5.5s-16 12.167 -16 25.5v1413
c0 12 8.66699 20.167 26 24.5s53.666 6.5 108.999 6.5z" />
    <glyph glyph-name="M" unicode="M" horiz-adv-x="1710" 
d="M344 1475h25.002c56 0 92.667 -2.16699 110 -6.5s29 -13.833 35 -28.5l193 -463c73.333 -175.333 126.333 -317.333 159 -426c32 106.667 83.333 246.667 154 420l190 469c4 9.33301 8.66699 16 14 20s18.333 7.5 39 10.5s51 4.5 91 4.5h16c40.667 0 70.167 -1 88.5 -3
s30.5 -5 36.5 -9s9.33301 -11 10 -21l56 -1411c0 -13.333 -7.5 -21.833 -22.5 -25.5s-52.167 -5.5 -111.5 -5.5h-16c-56.667 -0 -92.667 1.83301 -108 5.5s-23 11.5 -23 23.5l-10 508c-5.33301 209.333 -5.33301 365.666 0 468.999c-43.333 -151.333 -98 -306.333 -164 -465
l-111 -271c-4 -10 -8.66699 -17 -14 -21s-16.333 -7.16699 -33 -9.5s-42.667 -3.5 -78 -3.5h-22c-50 0 -82.333 2.33301 -97 7s-24.667 13.667 -30 27l-113 265c-81.333 187.333 -140 342.666 -176 465.999c9.33301 -146 10.666 -314.333 3.99902 -505l-14 -467
c0 -13.333 -7.33301 -21.5 -22 -24.5s-50.334 -4.5 -107.001 -4.5h-12c-32 0 -56.5 0.333008 -73.5 1s-30 2.33398 -39 5.00098s-14.5 5.66699 -16.5 9s-2.66699 8.66602 -2 15.999l59 1411c0.666992 8 2.16699 13.833 4.5 17.5s8.5 6.83398 18.5 9.50098
s23 4.33398 39 5.00098s40.333 1 73 1z" />
    <glyph glyph-name="N" unicode="N" horiz-adv-x="1445" 
d="M266 1475l9.99805 0.000976562c54 0 89.5 -2.33301 106.5 -7s29.5 -13.334 37.5 -26.001l368 -561c82.667 -127.333 138.334 -215 167.001 -263s53.667 -98.333 75 -151c-8 98 -12 255.667 -12 473v504c0 12 8.16699 20.167 24.5 24.5s51.833 6.5 106.5 6.5h14
c52 0 87.167 -2.16699 105.5 -6.5s27.5 -12.5 27.5 -24.5v-1413c0 -13.333 -6.5 -21.833 -19.5 -25.5s-45.833 -5.5 -98.5 -5.5h-13c-48.667 0 -82 2.16699 -100 6.5s-31 13.166 -39 26.499l-369 561c-79.333 120.667 -135.833 209.667 -169.5 267s-58.167 107 -73.5 149
c9.33301 -89.333 14 -247.666 14 -474.999v-504c0 -12.667 -8.66699 -21 -26 -25s-52.333 -6 -105 -6h-12c-57.333 -0 -94.166 1.83301 -110.499 5.5s-24.5 12.167 -24.5 25.5v1413c0 14 5.83301 22.667 17.5 26s44.5 5 98.5 5z" />
    <glyph glyph-name="O" unicode="O" horiz-adv-x="1427" 
d="M729 1247c-114 0 -200.833 -44.668 -260.5 -134.001s-89.5 -218.666 -89.5 -387.999c0 -332 106.333 -498 319 -498c114 0 201 44.833 261 134.5s90 219.167 90 388.5c0 331.333 -106.667 497 -320 497zM735 1495c93.333 0 177.168 -14.167 251.501 -42.5
s139.166 -71.666 194.499 -129.999s98 -135.166 128 -230.499s45 -206.666 45 -333.999c0 -158.667 -24.5 -295.667 -73.5 -411s-123.5 -205.333 -223.5 -270s-221.667 -97 -365 -97c-93.333 0 -177 14.167 -251 42.5s-138.667 71.666 -194 129.999
s-98 135.166 -128 230.499s-45 206.666 -45 333.999c0 158.667 24.333 295.667 73 411s123 205.333 223 270s221.667 97 365 97z" />
    <glyph glyph-name="P" unicode="P" horiz-adv-x="1173" 
d="M242 1475h247c126 0 228.333 -9.83301 307 -29.5s145 -56.5 199 -110.5c74 -74 111 -182.333 111 -325c0 -144.667 -43.667 -261.667 -131 -351c-90.667 -92.667 -228.667 -139 -414 -139c-35.333 0 -73.666 1.33301 -114.999 4v-493c0 -12.667 -9.5 -21 -28.5 -25
s-55.833 -6 -110.5 -6h-22c-56.667 0 -93.334 2 -110.001 6s-25 12.333 -25 25v1413c0 13.333 5.33301 21.833 16 25.5s36 5.5 76 5.5zM446 1237v-474.999c28.667 -4 61.667 -6 99 -6c97.333 0 167 26 209 78c35.333 43.333 53 102 53 176
c0 63.333 -15.667 113.666 -47 150.999c-22.667 26.667 -52.667 46 -90 58s-86 18 -146 18h-78z" />
    <glyph glyph-name="Q" unicode="Q" horiz-adv-x="1427" 
d="M1217 -135l-32.9971 -27.001c-24.667 -19.333 -44.5 -32.666 -59.5 -39.999s-26.167 -10.333 -33.5 -9s-15.333 5.33301 -24 12c-58.667 54.667 -119.334 121.667 -182.001 201c-62 -14.667 -126.333 -22 -193 -22c-93.333 0 -177 14.167 -251 42.5
s-138.667 71.666 -194 129.999s-98 135.166 -128 230.499s-45 206.666 -45 333.999c0 158.667 24.333 295.667 73 411s123 205.333 223 270s221.667 97 365 97c93.333 0 177.166 -14.167 251.499 -42.5s139.166 -71.666 194.499 -129.999s98 -135.166 128 -230.499
s45 -206.666 45 -333.999c0 -141.333 -20 -266.333 -60 -375s-99.333 -196 -178 -262c46 -56 98 -110 156 -162c10.667 -8 12 -19.333 4 -34s-27.667 -34.667 -59 -60zM711.003 507.999l26 12.001c30.667 14 54 23 70 27s26.667 4.5 32 1.5s10.333 -9.16699 15 -18.5
c38.667 -78.667 72.667 -140.667 102 -186c62 67.333 93 202.666 93 405.999c0 331.333 -106.667 497 -320 497c-114 0 -200.833 -44.667 -260.5 -134s-89.5 -218.666 -89.5 -387.999c0 -177.333 28 -305.5 84 -384.5s147.333 -117.5 274 -115.5
c-51.333 84 -88 153 -110 207c-4.66699 12.667 -2.16699 23.667 7.5 33s35.167 23.666 76.5 42.999z" />
    <glyph glyph-name="R" unicode="R" horiz-adv-x="1259" 
d="M242 1475l274.001 0.00195312c121.333 1.33301 221 -8.33398 299 -29.001s142.333 -57.667 193 -111c68 -70 102 -169 102 -297c0 -189.333 -84.667 -328.333 -254 -417l47 -86c104 -188.667 208.667 -353.334 314 -494.001c14.667 -20 6 -32.667 -26 -38
c-13.333 -2 -31.333 -3 -54 -3h-113c-38 -0 -65.333 1.83301 -82 5.5s-31.667 12.167 -45 25.5c-50.667 54.667 -134.667 191 -252 409l-67 125h-132v-534c0 -12.667 -9.5 -21 -28.5 -25s-55.833 -6 -110.5 -6h-22c-56.667 0 -93.334 2 -110.001 6s-25 12.333 -25 25v1413
c0 13.333 5.33301 21.833 16 25.5s36 5.5 76 5.5zM446.001 1237l-0.000976562 -438h101c95.333 0 164.333 22.333 207 67c38 38 57 94 57 168c0 63.333 -16.333 111.333 -49 144c-39.333 39.333 -111.666 59 -216.999 59h-99z" />
    <glyph glyph-name="S" unicode="S" horiz-adv-x="1130" 
d="M973 1272l-21.0029 -40.9941c-18 -36.667 -31.667 -58.834 -41 -66.501s-20 -6.83398 -32 2.49902c-48.667 30 -92 51.833 -130 65.5s-79.333 20.5 -124 20.5c-58 0 -104.667 -15.5 -140 -46.5s-53 -70.833 -53 -119.5c0 -24 4.83301 -45.5 14.5 -64.5
s27.834 -38.167 54.501 -57.5s47.167 -33 61.5 -41s42.5 -22.667 84.5 -44c6.66699 -3.33301 11.667 -6 15 -8l59.5 -31l57.5 -32c24.667 -14 44 -26 58 -36s31.167 -23.167 51.5 -39.5s36.333 -31.833 48 -46.5s24.334 -32 38.001 -52s24.167 -40.333 31.5 -61
s13.5 -43.834 18.5 -69.501s7.5 -52.5 7.5 -80.5c0 -134.667 -42.667 -242.334 -128 -323.001s-208.333 -121 -369 -121c-86.667 0 -169.167 12.833 -247.5 38.5s-142.833 59.167 -193.5 100.5c-14 10.667 -20.833 23.667 -20.5 39s9.16602 39.666 26.499 72.999l25 50
c17.333 33.333 31.666 54.333 42.999 63s23.666 8.66699 36.999 0c109.333 -78 213 -117 311 -117c68 0 121.833 15.167 161.5 45.5s59.5 73.166 59.5 128.499c0 19.333 -2.33301 37.333 -7 54s-13.167 32.334 -25.5 47.001s-23.166 26.834 -32.499 36.501
s-25.166 21 -47.499 34s-38.666 22.167 -48.999 27.5l-57.5 29c-8.66699 4.66699 -15.334 8 -20.001 10l-75 37.5c-19.333 9.66699 -43.166 23.167 -71.499 40.5s-51.333 33.5 -69 48.5s-36.667 33.5 -57 55.5s-36.333 44.333 -48 67s-21.334 49.167 -29.001 79.5
s-11.5 62.166 -11.5 95.499c0 88.667 21.833 166.167 65.5 232.5s100.834 116.166 171.501 149.499s149.334 50 236.001 50c145.333 0 269 -36.333 371 -109c15.333 -12.667 22.333 -25.667 21 -39s-11 -38.333 -29 -75z" />
    <glyph glyph-name="T" unicode="T" horiz-adv-x="1110" 
d="M68 1475h974c15.333 0 25 -5.66699 29 -17s6 -42 6 -92v-16c0 -48 -2.33301 -78.833 -7 -92.5s-14 -20.5 -28 -20.5h-340v-1206c0 -12.667 -9.5 -21 -28.5 -25s-55.833 -6 -110.5 -6h-22c-56.667 0 -93.334 2 -110.001 6s-25 12.333 -25 25v1206h-338
c-10 0 -17.167 2.16699 -21.5 6.5s-7.66602 14.5 -9.99902 30.5s-3.5 41.333 -3.5 76v16c0 36.667 1.16699 62.5 3.5 77.5s5.33301 24 9 27s11.167 4.5 22.5 4.5z" />
    <glyph glyph-name="U" unicode="U" horiz-adv-x="1417" 
d="M276 1475h23.0029c54 0 90.667 -2.16699 110 -6.5s29 -12.5 29 -24.5v-887c0 -125.333 26 -214 78 -266c42.667 -42.667 107 -64 193 -64c82.667 0 148 24 196 72c53.333 55.333 80 141.333 80 258v887c0 12 8.66699 20.167 26 24.5s53.666 6.5 108.999 6.5h17
c54 0 90.667 -2.16699 110 -6.5s29 -12.5 29 -24.5v-846c0 -112.667 -11.167 -206.167 -33.5 -280.5s-57.5 -136.5 -105.5 -186.5c-96.667 -100.667 -242.334 -151 -437.001 -151c-200.667 0 -346.667 51.667 -438 155c-41.333 46.667 -71.833 102.667 -91.5 168
s-29.5 149.333 -29.5 252v889c0 12 8.66699 20.167 26 24.5s53.666 6.5 108.999 6.5z" />
    <glyph glyph-name="V" unicode="V" horiz-adv-x="1335" 
d="M174 1475l34.999 -0.00292969c42 0 73.833 -1.33301 95.5 -4s36 -6.16699 43 -10.5s11.833 -11.166 14.5 -20.499l179 -604c65.333 -226 112.333 -409 141 -549c28 148 74.333 332.333 139 553l176 600c4 14.667 14 24.167 30 28.5s53.333 6.5 112 6.5h8
c85.333 0 131 -7.33301 137 -22c2 -3.33301 2 -7.66602 0 -12.999l-428 -1397c-5.33301 -16.667 -19.166 -28 -41.499 -34s-63.833 -9 -124.5 -9h-10c-71.333 0 -117.5 2.33301 -138.5 7s-34.167 15.334 -39.5 32.001l-451 1401c-4.66699 14 0.666016 23.333 15.999 28
c16.667 4.66699 52.334 7 107.001 7z" />
    <glyph glyph-name="W" unicode="W" horiz-adv-x="1974" 
d="M193 1475l28.002 -0.000976562c58 0 96.333 -2.33301 115 -7s29.667 -14 33 -28l149 -600c48 -192.667 83 -362 105 -508c23.333 186.667 52 356.667 86 510l137 598c3.33301 14.667 13.666 24.167 30.999 28.5s55.333 6.5 114 6.5h19c58 0 96.5 -2.5 115.5 -7.5
s30.167 -14.167 33.5 -27.5l137 -582c43.333 -189.333 75.666 -373.666 96.999 -552.999c19.333 153.333 53.333 336.333 102 549l137 586c2 10 6.66699 17.333 14 22s20.5 8 39.5 10s49.167 3 90.5 3h12c40.667 0 71 -1.5 91 -4.5s32.167 -6.66699 36.5 -11
s5.5 -10.833 3.5 -19.5l-371 -1405c-3.33301 -13.333 -14.5 -22.5 -33.5 -27.5s-56.833 -7.5 -113.5 -7.5h-27c-63.333 0 -105.833 2.16699 -127.5 6.5s-33.834 13.833 -36.501 28.5l-112 463c-53.333 222 -88.333 410.333 -105 565c-22 -182.667 -54.667 -367 -98 -553
l-113 -475c-3.33301 -13.333 -14.5 -22.5 -33.5 -27.5s-56.833 -7.5 -113.5 -7.5h-43c-61.333 0 -100.333 2.16699 -117 6.5s-27 13.833 -31 28.5l-389 1405c-2 7.33301 -2 13 0 17s8 7.5 18 10.5s24.333 5 43 6s44.334 1.5 77.001 1.5z" />
    <glyph glyph-name="X" unicode="X" horiz-adv-x="1253" 
d="M168 1475l83.9961 0.000976562c49.333 0 83 -1.83301 101 -5.5s30 -10.834 36 -21.501l137 -231c52.667 -90.667 93.667 -168.667 123 -234l123 238l123 227c4.66699 8 9.83398 13.5 15.501 16.5s17.334 5.5 35.001 7.5s45.167 3 82.5 3h86
c62.667 0 94.334 -6.66699 95.001 -20c0 -3.33301 -1.66699 -7.66602 -5 -12.999l-262 -430l-160 -254c28.667 -37.333 73 -106.333 133 -207l308 -520c8 -13.333 3.33301 -22 -14 -26c-15.333 -3.33301 -46.333 -5 -93 -5h-84c-49.333 0 -83 1.83301 -101 5.5
s-30 10.834 -36 21.501l-152 256c-53.333 91.333 -99 173.666 -137 246.999l-127 -237l-143 -266c-6.66699 -10.667 -17.667 -17.834 -33 -21.501s-48.666 -5.5 -99.999 -5.5h-86c-62.667 0 -94 7 -94 21c0 3.33301 1.33301 7.33301 4 12l305 497
c76 124.667 123 200.667 141 228c-46.667 70.667 -93.667 147 -141 229l-271 457c-6.66699 13.333 -1.66699 22 15 26c15.333 3.33301 46 5 92 5z" />
    <glyph glyph-name="Y" unicode="Y" horiz-adv-x="1210" 
d="M154 1475l46.999 -0.000976562c55.333 0 92.833 -2.33301 112.5 -7s32.5 -13.334 38.5 -26.001l148 -307c56.667 -117.333 98.334 -217 125.001 -299c45.333 124.667 85.333 224.334 120 299.001l144 309c5.33301 12.667 15.833 21 31.5 25s50.167 6 103.5 6h45
c74.667 0 114.334 -5.66699 119.001 -17c2 -3.33301 1.33301 -8.66602 -2 -15.999l-434 -869v-542c0 -12.667 -9.5 -21 -28.5 -25s-56.167 -6 -111.5 -6h-22c-56.667 0 -93.334 2 -110.001 6s-25 12.333 -25 25v542l-430 867c-6.66699 14 -1.66699 23.333 15 28
c18.667 4.66699 56.667 7 114 7z" />
    <glyph glyph-name="Z" unicode="Z" horiz-adv-x="1177" 
d="M150 1475l828.998 0.000976562c40 0 65.333 -1.83301 76 -5.5s16 -12.167 16 -25.5v-107c0 -48.667 -14.333 -95.667 -43 -141l-596 -958h627c11.333 0 18.833 -1.5 22.5 -4.5s6.66699 -12 9 -27s3.5 -40.833 3.5 -77.5v-16c0 -34.667 -1.16699 -60 -3.5 -76
s-5.66602 -26.167 -9.99902 -30.5s-11.5 -6.5 -21.5 -6.5h-883c-40 0 -65.333 1.83301 -76 5.5s-16 12.167 -16 25.5v106c0 47.333 15 94.666 45 141.999l596 958h-575c-10 0 -17.167 2.16699 -21.5 6.5s-7.66602 14.5 -9.99902 30.5s-3.5 41.333 -3.5 76v16
c0 36.667 1.16699 62.5 3.5 77.5s5.33301 24 9 27s11.167 4.5 22.5 4.5z" />
    <glyph glyph-name="bracketleft" unicode="[" horiz-adv-x="694" 
d="M164 1542l479 -0.00292969c10 0 16.333 -5.16699 19 -15.5s4 -35.166 4 -74.499v-18c0 -39.333 -1.33301 -64.333 -4 -75s-9 -16 -19 -16h-233v-1415h233c10 0 16.333 -5.16699 19 -15.5s4 -35.166 4 -74.499v-18c0 -39.333 -1.33301 -64.166 -4 -74.499
s-9 -15.5 -19 -15.5h-479c-11.333 0 -17 4.66699 -17 14v1784c0 9.33301 5.66699 14 17 14z" />
    <glyph glyph-name="backslash" unicode="\" horiz-adv-x="755" 
d="M143 1475h27c51.333 0 85.666 -2.16699 102.999 -6.5s28 -13.833 32 -28.5l426 -1405c4.66699 -14 0.333984 -23 -12.999 -27c-16 -5.33301 -51.333 -8 -106 -8h-26c-51.333 0 -85.666 2.16699 -102.999 6.5s-28 13.833 -32 28.5l-426 1405
c-4.66699 14 -0.666992 23 12 27c15.333 5.33301 50.666 8 105.999 8z" />
    <glyph glyph-name="bracketright" unicode="]" horiz-adv-x="694" 
d="M51 1542l479 0.00292969c11.333 0 17 -4.66699 17 -14v-1784c0 -9.33301 -5.66699 -14 -17 -14h-479c-10 0 -16.167 5.16699 -18.5 15.5s-3.5 35.166 -3.5 74.499v18c0 39.333 1.16699 64.166 3.5 74.499s8.5 15.5 18.5 15.5h234v1415h-234
c-10 0 -16.167 5.16699 -18.5 15.5s-3.5 35.5 -3.5 75.5v18c0 39.333 1.16699 64.166 3.5 74.499s8.5 15.5 18.5 15.5z" />
    <glyph glyph-name="asciicircum" unicode="^" 
d="M580 1475h48.999c34 0 57.667 -2.33301 71 -7s23 -13.334 29 -26.001l361 -750c8.66699 -18.667 7.33398 -31 -3.99902 -37c-14 -6.66699 -47.667 -10 -101 -10h-22c-40.667 0 -69.167 1.66699 -85.5 5s-26.833 10 -31.5 20l-242 528l-242 -528
c-4.66699 -10 -15 -16.667 -31 -20s-44.333 -5 -85 -5h-23c-69.333 0 -106 7 -110 21c-2 5.33301 0 14 6 26l360 750c6 12.667 15.833 21.334 29.5 26.001s37.5 7 71.5 7z" />
    <glyph glyph-name="underscore" unicode="_" horiz-adv-x="1024" 
d="M6 -229h1012c10.667 0 18.167 -6.5 22.5 -19.5s6.5 -40.833 6.5 -83.5v-12c0 -42.667 -2.16699 -70.334 -6.5 -83.001s-11.833 -19 -22.5 -19h-1012c-10.667 0 -18.167 6.33301 -22.5 19s-6.5 40.334 -6.5 83.001v12c0 42.667 2.16699 70.5 6.5 83.5
s11.833 19.5 22.5 19.5z" />
    <glyph glyph-name="grave" unicode="`" horiz-adv-x="716" 
d="M166 1610h98.001c36.667 0 61.667 -1.83301 75 -5.5s22.666 -10.167 27.999 -19.5l217 -334c6.66699 -12 6.16699 -20 -1.5 -24s-23.5 -6 -47.5 -6h-78c-43.333 0 -71.333 7.33301 -84 22l-267 334c-12 16.667 -5.33301 27 20 31c10 1.33301 23.333 2 40 2z" />
    <glyph glyph-name="a" unicode="a" horiz-adv-x="1181" 
d="M786 981l9.00293 74.002c0.666992 6.66699 3.16699 11.667 7.5 15s15.166 6 32.499 8s44 3 80 3h13c51.333 0 84 -1.66699 98 -5s21 -11 21 -23c0 -14 -0.833008 -75.333 -2.5 -184s-2.5 -195 -2.5 -259v-125c0 -160 5 -309.333 15 -448
c1.33301 -16 -4 -26.167 -16 -30.5s-45.667 -6.5 -101 -6.5h-10c-50 0 -82.333 1.66699 -97 5s-24 10.666 -28 21.999c-2.66699 6 -7.33398 29 -14.001 69c-30 -34.667 -71.167 -62.667 -123.5 -84s-104.833 -32 -157.5 -32c-134 0 -239.833 48 -317.5 144
s-116.5 228 -116.5 396c0 90.667 12 173.167 36 247.5s56.667 135.666 98 183.999s89.166 85.5 143.499 111.5s112.5 39 174.5 39c54 0 104.5 -11.333 151.5 -34s82.5 -51.667 106.5 -87zM762.003 391.002v369c-20 30 -45.833 53.833 -77.5 71.5s-65.167 26.5 -100.5 26.5
c-146 0 -219 -110 -219 -330c0 -99.333 16.333 -176.333 49 -231s88 -82 166 -82c32.667 0 62.667 5.5 90 16.5s48.333 25.833 63 44.5c19.333 24.667 29 63 29 115z" />
    <glyph glyph-name="b" unicode="b" horiz-adv-x="1183" 
d="M272 1556h11c40 0 69.5 -1 88.5 -3s31.167 -4.83301 36.5 -8.5s8 -9.83398 8 -18.501v-522c70.667 65.333 160 98 268 98c130 0 233.167 -48.667 309.5 -146s114.5 -230.333 114.5 -399c0 -196 -50.667 -344.667 -152 -446c-87.333 -87.333 -223.666 -131 -408.999 -131
c-70 0 -142 8 -216 24s-131 35.667 -171 59c-10.667 6.66699 -17.5 13.667 -20.5 21s-4.5 18.333 -4.5 33v1409c0 8.66699 2.16699 14.834 6.5 18.501s16.166 6.5 35.499 8.5s51 3 95 3zM416 700l-0.000976562 -464c39.333 -14 85 -21 137 -21
c90.667 0 156.334 25.333 197.001 76c46 56 69 144.667 69 266c0 112.667 -22.333 194.667 -67 246c-34 39.333 -84 59 -150 59c-30 0 -60.167 -4.5 -90.5 -13.5s-52.833 -21.5 -67.5 -37.5c-18.667 -20 -28 -57 -28 -111z" />
    <glyph glyph-name="c" unicode="c" horiz-adv-x="1021" 
d="M942 879l-20.001 -38.9971c-12.667 -23.333 -23.5 -40.5 -32.5 -51.5s-16.667 -16.333 -23 -16s-12.5 2.16602 -18.5 5.49902c-77.333 53.333 -153 80 -227 80c-74.667 0 -136 -25.833 -184 -77.5s-72 -129.5 -72 -233.5c0 -104.667 22.667 -184.834 68 -240.501
s112 -83.5 200 -83.5c67.333 0 143 20 227 60c12.667 6 22.5 5 29.5 -3s19.167 -32.333 36.5 -73l12 -29c14.667 -34 22.5 -57.5 23.5 -70.5s-3.5 -21.5 -13.5 -25.5c-44.667 -30 -97.667 -54.5 -159 -73.5s-125.666 -28.5 -192.999 -28.5
c-151.333 0 -270.666 40.667 -357.999 122c-108 100 -162 243.333 -162 430c0 179.333 49.667 320.666 149 423.999c95.333 97.333 223.666 146 384.999 146c64.667 0 127.167 -10.667 187.5 -32s113.833 -51 160.5 -89c11.333 -9.33301 16 -20 14 -32s-12 -35.333 -30 -70z
" />
    <glyph glyph-name="d" unicode="d" horiz-adv-x="1210" 
d="M907 1556l11.001 0.000976562c40 0 69.5 -1 88.5 -3s31.167 -4.83301 36.5 -8.5s8 -9.83398 8 -18.501v-1252c0 -22 4.5 -37 13.5 -45s24.167 -12 45.5 -12c12 0 19.5 -4.66699 22.5 -14s4.5 -32.666 4.5 -69.999v-22c0 -34.667 -1.33301 -58.334 -4 -71.001
s-7.66699 -20.667 -15 -24c-42 -16 -91 -24 -147 -24c-44 0 -81.167 9.16699 -111.5 27.5s-52.5 43.166 -66.5 74.499c-72 -76 -167 -114 -285 -114c-134 0 -239.5 48.667 -316.5 146s-115.5 230 -115.5 398c0 178.667 41 319.667 123 423s191 155 327 155
c92 0 173.333 -30.667 244 -92v516c0 8.66699 2.16699 14.834 6.5 18.501s16.166 6.5 35.499 8.5s51 3 95 3zM770.001 383.001v383.001c-52.667 62.667 -114 94 -184 94c-147.333 0 -221 -112 -221 -336c0 -110.667 23 -192.334 69 -245.001c34.667 -40 86 -60 154 -60
c29.333 0 58.333 4.83301 87 14.5s50.667 22.5 66 38.5c19.333 21.333 29 58.333 29 111z" />
    <glyph glyph-name="e" unicode="e" horiz-adv-x="1140" 
d="M1032 444h-663.001c11.333 -73.333 39.833 -129.166 85.5 -167.499s107.167 -57.5 184.5 -57.5c88.667 0 185 22 289 66c11.333 5.33301 20.5 4.16602 27.5 -3.50098s16.167 -26.5 27.5 -56.5l18 -51c12 -35.333 17.833 -58.333 17.5 -69s-6.83301 -19.667 -19.5 -27
c-52.667 -29.333 -114.5 -53 -185.5 -71s-141.5 -27 -211.5 -27c-162.667 0 -291 48.167 -385 144.5s-141 230.833 -141 403.5c0 112 20 211.167 60 297.5s98.333 154 175 203s166.334 73.5 269.001 73.5c101.333 0 188 -24 260 -72s125.5 -112.833 160.5 -194.5
s52.5 -176.5 52.5 -284.5c0 -40 -1.5 -67.833 -4.5 -83.5s-8.5 -23.5 -16.5 -23.5zM368.999 645h402.999c-6 66.667 -25.333 120.167 -58 160.5s-76.667 60.5 -132 60.5s-101.166 -19.333 -137.499 -58s-61.5 -93 -75.5 -163z" />
    <glyph glyph-name="f" unicode="f" horiz-adv-x="780" 
d="M59 1081h144v49c0 148.667 38 262 114 340c69.333 71.333 167.666 107 294.999 107c80 0 155.333 -13 226 -39c9.33301 -3.33301 14.333 -10.833 15 -22.5s-3 -35.5 -11 -71.5l-8 -35c-7.33301 -34 -14.166 -56.333 -20.499 -67s-13.833 -15 -22.5 -13
c-53.333 11.333 -97.333 17 -132 17c-65.333 0 -111 -18 -137 -54c-26 -35.333 -39 -92 -39 -170v-41h236c6.66699 0 11.667 -1.5 15 -4.5s6 -12 8 -27s3 -38.5 3 -70.5v-14c0 -32 -1 -55.5 -3 -70.5s-4.66699 -24.167 -8 -27.5s-8.33301 -5 -15 -5h-236v-831
c0 -8.66699 -2.66699 -14.834 -8 -18.501s-17.5 -6.66699 -36.5 -9s-48.5 -3.5 -88.5 -3.5h-10c-43.333 0 -74.833 1.16699 -94.5 3.5s-31.667 5.33301 -36 9s-6.5 9.83398 -6.5 18.501v831h-144c-6.66699 0 -11.667 1.66699 -15 5s-6 12.5 -8 27.5s-3 38.5 -3 70.5v14
c0 32 1 55.5 3 70.5s4.66699 24 8 27s8.33301 4.5 15 4.5z" />
    <glyph glyph-name="g" unicode="g" horiz-adv-x="1187" 
d="M909 1081l20.998 -0.00195312c42 0 68.833 -1.16699 80.5 -3.5s19.5 -9.16602 23.5 -20.499c12.667 -37.333 19 -181.333 19 -432v-537c0 -195.333 -41.667 -338.666 -125 -429.999c-82 -90 -207 -135 -375 -135c-60 0 -121.5 8 -184.5 24s-115.5 36 -157.5 60
c-11.333 6.66699 -17 15.667 -17 27s7.66699 37 23 77l14 35c14.667 34.667 26.167 56.834 34.5 66.501s18.166 12.167 29.499 7.5c87.333 -40 168 -60 242 -60c78.667 0 137.5 23 176.5 69s58.5 122 58.5 228v31c-72.667 -61.333 -160 -92 -262 -92
c-134.667 0 -240.667 47.5 -318 142.5s-116 226.167 -116 393.5c0.666992 177.333 42.5 316.666 125.5 417.999s190.5 152 322.5 152c104 0 195 -42.333 273 -127c4 39.333 9.33301 67.333 16 84c2.66699 6 5.33398 10.167 8.00098 12.5s10.834 4.5 24.501 6.5
s34.834 3 63.501 3zM771.998 396.998l-0.000976562 338c-22 40.667 -49.167 71.667 -81.5 93s-67.166 32 -104.499 32c-70 0 -124.333 -27.5 -163 -82.5s-58 -136.833 -58 -245.5c0 -199.333 75 -299 225 -299c29.333 0 58.333 5 87 15s50.667 23 66 39
c19.333 21.333 29 58 29 110z" />
    <glyph glyph-name="h" unicode="h" horiz-adv-x="1202" 
d="M272 1556h11.001c40 0 69.5 -1 88.5 -3s31.167 -4.83301 36.5 -8.5s8 -9.83398 8 -18.501v-533c72.667 72.667 164.667 109 276 109c125.333 0 220.333 -37 285 -111c34 -38 58.5 -82.833 73.5 -134.5s22.5 -116.5 22.5 -194.5v-631
c0 -8.66699 -2.66699 -14.834 -8 -18.501s-17.5 -6.66699 -36.5 -9s-48.5 -3.5 -88.5 -3.5h-10c-43.333 0 -74.833 1.16699 -94.5 3.5s-31.667 5.33301 -36 9s-6.5 9.83398 -6.5 18.501v553c0 70.667 -2.66699 120.5 -8 149.5s-16.333 52.833 -33 71.5
c-27.333 31.333 -73.333 47 -138 47c-56 0 -101.667 -11 -137 -33c-20 -12.667 -34 -27.167 -42 -43.5s-13 -37.833 -15 -64.5c-2.66699 -31.333 -4 -98.333 -4 -201v-479c0 -8.66699 -2.66699 -14.834 -8 -18.501s-17.5 -6.66699 -36.5 -9s-48.5 -3.5 -88.5 -3.5h-11
c-43.333 0 -74.833 1.16699 -94.5 3.5s-31.667 5.33301 -36 9s-6.5 9.83398 -6.5 18.501v1495c0 8.66699 2.16699 14.834 6.5 18.501s16.166 6.5 35.499 8.5s51 3 95 3z" />
    <glyph glyph-name="i" unicode="i" horiz-adv-x="567" 
d="M106 1413c0 45.333 16.667 84.668 50 118.001s74.333 50 123 50s89.5 -16.5 122.5 -49.5s49.5 -72.5 49.5 -118.5s-16.5 -85.5 -49.5 -118.5s-73.833 -49.5 -122.5 -49.5s-89.667 16.667 -123 50s-50 72.666 -50 117.999zM281 1081h10c40 0 69.5 -1 88.5 -3
s31.167 -4.83301 36.5 -8.5s8 -9.83398 8 -18.501v-1020c0 -8.66699 -2.66699 -14.834 -8 -18.501s-17.5 -6.66699 -36.5 -9s-48.5 -3.5 -88.5 -3.5h-10c-44 0 -75.833 1.16699 -95.5 3.5s-31.667 5.33301 -36 9s-6.5 9.83398 -6.5 18.501v1020
c0 8.66699 2.16699 14.834 6.5 18.501s16.333 6.5 36 8.5s51.5 3 95.5 3z" />
    <glyph glyph-name="j" unicode="j" horiz-adv-x="595" 
d="M309 1081l10 -0.000976562c40 0 69.5 -1 88.5 -3s31.333 -4.83301 37 -8.5s8.5 -9.83398 8.5 -18.501v-1041c0 -324.667 -131.333 -487 -394 -487c-38.667 0 -77.167 3.83301 -115.5 11.5s-67.166 16.834 -86.499 27.501c-12.667 6 -19.334 14.333 -20.001 25
s3.66602 36.334 12.999 77.001l9 35c8.66699 34.667 15.834 56 21.501 64s16.834 10 33.501 6c40 -8.66699 77 -13 111 -13c54 0 92 16.667 114 50s33 87.666 33 162.999v1082c0 8.66699 2.16699 14.834 6.5 18.501s16.166 6.5 35.499 8.5s51 3 95 3zM135 1413
c0 46 16.5 85.5 49.5 118.5s73.833 49.5 122.5 49.5s89.5 -16.5 122.5 -49.5s49.5 -72.5 49.5 -118.5s-16.5 -85.5 -49.5 -118.5s-73.833 -49.5 -122.5 -49.5s-89.5 16.5 -122.5 49.5s-49.5 72.5 -49.5 118.5z" />
    <glyph glyph-name="k" unicode="k" horiz-adv-x="1085" 
d="M272 1556l11 0.00195312c40 0 69.5 -1 88.5 -3s31.167 -4.83301 36.5 -8.5s8 -9.83398 8 -18.501v-844c88 86.667 194.333 211 319 373c8 11.333 19.333 18.5 34 21.5s48.334 4.5 101.001 4.5h33c70.667 0 108.334 -6 113.001 -18
c1.33301 -4 0.666016 -9.33301 -2.00098 -16c-29.333 -64.667 -76.5 -138.334 -141.5 -221.001s-135.167 -158.667 -210.5 -228l409 -555c12.667 -18.667 0 -31.334 -38 -38.001c-21.333 -3.33301 -51 -5 -89 -5h-26c-66.667 0 -109 1.66699 -127 5s-31.667 12 -41 26
l-334 458v-458c0 -8.66699 -2.66699 -14.834 -8 -18.501s-17.5 -6.66699 -36.5 -9s-48.5 -3.5 -88.5 -3.5h-11c-43.333 0 -74.833 1.16699 -94.5 3.5s-31.667 5.33301 -36 9s-6.5 9.83398 -6.5 18.501v1495c0 8.66699 2.16699 14.834 6.5 18.501s16.166 6.5 35.499 8.5
s51 3 95 3z" />
    <glyph glyph-name="l" unicode="l" horiz-adv-x="610" 
d="M256 1556l10 0.00292969c56 0 92 -1.66699 108 -5s25 -10.333 27 -21c12.667 -62 19 -260.667 19 -596v-651c0 -24.667 5 -42.5 15 -53.5s27.333 -16.5 52 -16.5h25c8.66699 0 14.167 -5.33301 16.5 -16s3.5 -35.334 3.5 -74.001v-19c0 -36.667 -1 -59.834 -3 -69.501
s-7 -16.5 -15 -20.5c-35.333 -16 -81 -24 -137 -24c-74 0 -131.333 20.333 -172 61c-44 44 -66 115.667 -66 215v711c0 91.333 -1.83301 196.166 -5.5 314.499s-7.16699 197.833 -10.5 238.5c-0.666992 6.66699 -0.5 11.334 0.5 14.001s6.16699 5.16699 15.5 7.5
s22.333 3.66602 39 3.99902s42.667 0.5 78 0.5z" />
    <glyph glyph-name="m" unicode="m" horiz-adv-x="1822" 
d="M248 1081l10 -0.00195312c50.667 0 83.5 -1.5 98.5 -4.5s24.5 -10.167 28.5 -21.5c5.33301 -15.333 10.666 -44.666 15.999 -87.999c35.333 40.667 78.166 73.334 128.499 98.001s103.833 37 160.5 37c65.333 0 125.833 -14.167 181.5 -42.5s97.5 -68.166 125.5 -119.499
c40.667 52 89.334 92 146.001 120s116.667 42 180 42c118 0 209.333 -37 274 -111c34 -38 58.667 -82.833 74 -134.5s23 -116.5 23 -194.5v-631c0 -8.66699 -2.66699 -14.834 -8 -18.501s-17.5 -6.66699 -36.5 -9s-48.5 -3.5 -88.5 -3.5h-11
c-43.333 0 -74.833 1.16699 -94.5 3.5s-31.667 5.33301 -36 9s-6.5 9.83398 -6.5 18.501v553c0 70.667 -2.66699 120.5 -8 149.5s-16.333 52.833 -33 71.5c-27.333 31.333 -70.333 47 -129 47c-50 0 -91.667 -10.333 -125 -31c-20 -12.667 -34 -27.167 -42 -43.5
s-13 -37.833 -15 -64.5c-2.66699 -31.333 -4 -98.333 -4 -201v-481c0 -8.66699 -2.66699 -14.834 -8 -18.501s-17.5 -6.66699 -36.5 -9s-48.5 -3.5 -88.5 -3.5h-11c-43.333 0 -74.833 1.16699 -94.5 3.5s-31.667 5.33301 -36 9s-6.5 9.83398 -6.5 18.501v553
c0 70.667 -2.66699 120.5 -8 149.5s-16.333 52.833 -33 71.5c-27.333 31.333 -70.333 47 -129 47c-50 0 -91.667 -10.333 -125 -31c-20 -12.667 -34 -27.167 -42 -43.5s-13 -37.833 -15 -64.5c-2.66699 -31.333 -4 -98.333 -4 -201v-481
c0 -8.66699 -2.66699 -14.834 -8 -18.501s-17.5 -6.66699 -36.5 -9s-48.5 -3.5 -88.5 -3.5h-11c-43.333 0 -74.833 1.16699 -94.5 3.5s-31.667 5.33301 -36 9s-6.5 9.83398 -6.5 18.501v565c0 169.333 -4.66699 318.666 -14 447.999
c-1.33301 15.333 4.83398 25.333 18.501 30s48.5 7 104.5 7z" />
    <glyph glyph-name="n" unicode="n" horiz-adv-x="1206" 
d="M248 1081l9.99805 0.000976562c50.667 0 83.5 -1.5 98.5 -4.5s24.5 -10.167 28.5 -21.5s8.66699 -38.666 14 -81.999c34 39.333 76.833 70.666 128.5 93.999s107.834 35 168.501 35c125.333 0 220.333 -37 285 -111c34 -38 58.5 -82.833 73.5 -134.5
s22.5 -116.5 22.5 -194.5v-631c0 -8.66699 -2.66699 -14.834 -8 -18.501s-17.5 -6.66699 -36.5 -9s-48.5 -3.5 -88.5 -3.5h-10c-43.333 0 -74.833 1.16699 -94.5 3.5s-31.667 5.33301 -36 9s-6.5 9.83398 -6.5 18.501v553c0 70.667 -2.66699 120.5 -8 149.5
s-16.333 52.833 -33 71.5c-27.333 31.333 -73.333 47 -138 47c-56 0 -101.667 -11 -137 -33c-20 -12.667 -34 -27.167 -42 -43.5s-13 -37.833 -15 -64.5c-2.66699 -31.333 -4 -98.333 -4 -201v-479c0 -8.66699 -2.66699 -14.834 -8 -18.501s-17.5 -6.66699 -36.5 -9
s-48.5 -3.5 -88.5 -3.5h-11c-43.333 0 -74.833 1.16699 -94.5 3.5s-31.667 5.33301 -36 9s-6.5 9.83398 -6.5 18.501v565c0 169.333 -4.66699 318.666 -14 447.999c-1.33301 15.333 4.83398 25.333 18.501 30s48.5 7 104.5 7z" />
    <glyph glyph-name="o" unicode="o" horiz-adv-x="1169" 
d="M602 1102c154.667 0 275.333 -46.502 362 -139.502s130 -226.833 130 -401.5c0 -186 -45.333 -329.333 -136 -430s-221 -151 -391 -151c-154.667 0 -275.167 46.333 -361.5 139s-129.5 226.334 -129.5 401.001c0 186.667 45.167 330.334 135.5 431.001
s220.5 151 390.5 151zM595.999 859.998c-154 0 -231 -109.333 -231 -328c0 -207.333 69.333 -311 208 -311c154.667 0 232 109.333 232 328c0 207.333 -69.667 311 -209 311z" />
    <glyph glyph-name="p" unicode="p" horiz-adv-x="1189" 
d="M248 1081h9.99902c50.667 0 83.5 -1.5 98.5 -4.5s24.5 -10.167 28.5 -21.5s8.66699 -38.666 14 -81.999c34.667 40 77.334 71.5 128.001 94.5s105 34.5 163 34.5c128.667 0 231.5 -49.167 308.5 -147.5s115.5 -230.833 115.5 -397.5
c0 -178.667 -41.333 -319.5 -124 -422.5s-192 -154.5 -328 -154.5c-98.667 0 -179.334 26.333 -242.001 79v-485c0 -8.66699 -2.66699 -14.834 -8 -18.501s-17.5 -6.66699 -36.5 -9s-48.5 -3.5 -88.5 -3.5h-11c-43.333 0 -74.833 1.16699 -94.5 3.5s-31.667 5.33301 -36 9
s-6.5 9.83398 -6.5 18.501v1022c0 169.333 -4.66699 318.666 -14 447.999c-1.33301 15.333 4.83398 25.333 18.501 30s48.5 7 104.5 7zM419.999 698l-0.00195312 -401c50 -52 110.667 -78 182 -78c74 0 129.667 28.833 167 86.5s56 141.5 56 251.5
c0 112.667 -22.333 194.667 -67 246c-34 39.333 -85.333 59 -154 59c-29.333 0 -58.666 -4.83301 -87.999 -14.5s-51.666 -22.5 -66.999 -38.5c-19.333 -21.333 -29 -58.333 -29 -111z" />
    <glyph glyph-name="q" unicode="q" horiz-adv-x="1181" 
d="M1044 954l-0.00292969 -813c0 -212.667 13 -401.667 39 -567c1.33301 -6.66699 1.33301 -11.667 0 -15s-6.16602 -6.33301 -14.499 -9s-21.166 -4.5 -38.499 -5.5s-42 -1.5 -74 -1.5h-16c-41.333 0 -70.666 0.833008 -87.999 2.5s-29.333 4.33398 -36 8.00098
s-11 10.5 -13 20.5c-10 43.333 -19 110.666 -27 201.999s-12 192 -12 302c-70.667 -65.333 -156 -98 -256 -98c-134 0 -239.5 48.667 -316.5 146s-115.5 230 -115.5 398c0 176 50.333 316.333 151 421s240 157 418 157c64.667 0 132.5 -9.5 203.5 -28.5
s127.5 -41.5 169.5 -67.5c11.333 -6.66699 18.5 -13.5 21.5 -20.5s4.5 -17.5 4.5 -31.5zM763.997 381v467.001c-41.333 12 -85 18 -131 18c-44.667 0 -84.5 -9.33301 -119.5 -28s-63.167 -44 -84.5 -76s-37.333 -68.167 -48 -108.5s-16 -83.5 -16 -129.5
c0 -110.667 23 -192.334 69 -245.001c34.667 -40 84.667 -60 150 -60c30 0 59 4.5 87 13.5s49.333 21.5 64 37.5c19.333 21.333 29 58.333 29 111z" />
    <glyph glyph-name="r" unicode="r" horiz-adv-x="808" 
d="M248 1081l11.998 -0.000976562c50.667 0 83.5 -1.5 98.5 -4.5s23.833 -10.167 26.5 -21.5c3.33301 -10 7.83301 -38.167 13.5 -84.5s9.5 -88.5 11.5 -126.5c34 86.667 73.5 151.334 118.5 194.001s99.5 64 163.5 64c22.667 0 40.334 -2.66699 53.001 -8
c8 -3.33301 13.167 -10.5 15.5 -21.5s3.5 -38.167 3.5 -81.5v-28c0 -34.667 -1 -59.667 -3 -75s-4.66699 -25 -8 -29s-9.33301 -6.33301 -18 -7c-104 -9.33301 -183.667 -55.666 -239 -138.999c-50.667 -77.333 -76 -206.333 -76 -387v-295
c0 -8.66699 -2.66699 -14.834 -8 -18.501s-17.5 -6.66699 -36.5 -9s-48.5 -3.5 -88.5 -3.5h-11c-43.333 0 -74.833 1.16699 -94.5 3.5s-31.667 5.33301 -36 9s-6.5 9.83398 -6.5 18.501v565c0 169.333 -4.66699 318.666 -14 447.999
c-1.33301 15.333 4.83398 25.333 18.501 30s48.5 7 104.5 7z" />
    <glyph glyph-name="s" unicode="s" horiz-adv-x="978" 
d="M100 195l21.002 35.999c18 31.333 32.333 51.833 43 61.5s21.667 10.5 33 2.5c88.667 -58.667 176 -88 262 -88c53.333 0 95.333 9 126 27s46 41 46 69c0 21.333 -9.66699 39.5 -29 54.5s-44.5 27.5 -75.5 37.5s-65.167 20 -102.5 30s-74.5 23.167 -111.5 39.5
s-71 35.833 -102 58.5s-56.167 53.834 -75.5 93.501s-29 86.167 -29 139.5c0 105.333 40 189.333 120 252s181.333 94 304 94c136 0 248.667 -34.333 338 -103c10 -6.66699 13.5 -16.334 10.5 -29.001s-14.5 -36.334 -34.5 -71.001l-19 -29
c-18.667 -31.333 -32.667 -50.833 -42 -58.5s-19.666 -7.83398 -30.999 -0.500977c-70.667 44 -140.334 66 -209.001 66c-61.333 0 -105.666 -11.667 -132.999 -35c-19.333 -17.333 -29 -37.333 -29 -60c0 -20.667 9.66699 -38.5 29 -53.5s44.333 -27.5 75 -37.5
s64.667 -20.333 102 -31s74.666 -24 111.999 -40s71.333 -35.167 102 -57.5s55.667 -52.5 75 -90.5s29 -82 29 -132c0 -47.333 -9.16699 -92.666 -27.5 -135.999s-43.833 -80.666 -76.5 -111.999c-76.667 -74.667 -189.334 -112 -338.001 -112
c-76.667 0 -148.5 11 -215.5 33s-122.167 51.667 -165.5 89c-8.66699 6 -11.834 15.833 -9.50098 29.5s11.5 34.834 27.5 63.501z" />
    <glyph glyph-name="t" unicode="t" horiz-adv-x="829" 
d="M334 1376l10 -0.00292969c40 0 69.5 -1 88.5 -3s31.167 -4.83301 36.5 -8.5s8 -9.83398 8 -18.501v-265h244c7.33301 0 12.5 -1.5 15.5 -4.5s5.66699 -12.167 8 -27.5s3.5 -38.666 3.5 -69.999v-14c0 -31.333 -1.16699 -54.666 -3.5 -69.999
s-5.16602 -24.666 -8.49902 -27.999s-8.33301 -5 -15 -5h-244v-506c0 -54.667 11.667 -92.667 35 -114c21.333 -19.333 51.333 -29 90 -29c30 0 65.667 6.66699 107 20c10.667 3.33301 19.334 -0.166992 26.001 -10.5s15.667 -33.833 27 -70.5l6 -21
c11.333 -38 16.666 -62.667 15.999 -74s-7.33398 -20 -20.001 -26c-68 -34 -146.667 -51 -236 -51c-109.333 0 -191.666 27.667 -246.999 83c-56 56 -84 148.333 -84 277v522h-142c-6.66699 0 -11.667 1.66699 -15 5s-6 12.5 -8 27.5s-3 38.5 -3 70.5v14c0 32 1 55.5 3 70.5
s4.66699 24 8 27s8.33301 4.5 15 4.5h142v265c0 8.66699 2.16699 14.834 6.5 18.501s16.166 6.5 35.499 8.5s51 3 95 3z" />
    <glyph glyph-name="u" unicode="u" horiz-adv-x="1202" 
d="M266 1081l10.002 -0.000976562c40 0 69.5 -1 88.5 -3s31.333 -4.83301 37 -8.5s8.5 -9.83398 8.5 -18.501v-553c0 -70.667 2.66699 -120.667 8 -150s16.333 -53.333 33 -72c27.333 -31.333 72.333 -47 135 -47c54.667 0 99.667 11 135 33c20 12.667 34 27.334 42 44.001
s13 38.334 15 65.001c2.66699 31.333 4 98 4 200v480c0 8.66699 2.16699 14.834 6.5 18.501s16.333 6.5 36 8.5s51.5 3 95.5 3h10c40 0 69.5 -1 88.5 -3s31.167 -4.83301 36.5 -8.5s8 -9.83398 8 -18.501v-566c0 -169.333 4.66699 -318.666 14 -447.999
c1.33301 -15.333 -4.83398 -25.333 -18.501 -30s-48.5 -7 -104.5 -7h-10c-50 0 -82.667 1.66699 -98 5s-25 10.666 -29 21.999s-8.66699 38.666 -14 81.999c-34 -40 -76.5 -71.5 -127.5 -94.5s-106.833 -34.5 -167.5 -34.5c-124.667 0 -219 36.667 -283 110
c-34 38 -58.5 83 -73.5 135s-22.5 117 -22.5 195v631c0 8.66699 2.16699 14.834 6.5 18.501s16.166 6.5 35.499 8.5s51 3 95 3z" />
    <glyph glyph-name="v" unicode="v" horiz-adv-x="1073" 
d="M147 1081l19.002 -0.00292969c54 0 90 -2 108 -6s29 -12 33 -24l139 -426c48.667 -149.333 83 -262.666 103 -339.999c37.333 96 78.666 221.5 123.999 376.5s79 284.833 101 389.5c2 12.667 10.167 20.834 24.5 24.501s49.166 5.5 104.499 5.5h12
c36 0 64.333 -1.5 85 -4.5s34 -6.5 40 -10.5s8.33301 -9 7 -15c-30 -155.333 -82.167 -331.833 -156.5 -529.5s-147.833 -363.167 -220.5 -496.5c-4.66699 -8.66699 -16.334 -15 -35.001 -19s-53 -6 -103 -6h-18c-51.333 0 -85.666 1.83301 -102.999 5.5
s-28 10.834 -32 21.501l-367 1017c-4.66699 14 -0.666992 23 12 27c17.333 6.66699 58.333 10 123 10z" />
    <glyph glyph-name="w" unicode="w" horiz-adv-x="1619" 
d="M150 1081l6.00391 -0.000976562c56 0 92.667 -2.16699 110 -6.5s27.666 -12.833 30.999 -25.5l98 -383c15.333 -59.333 31.5 -132.333 48.5 -219s27.5 -149 31.5 -187c5.33301 36 18.666 97.5 39.999 184.5s40 158.5 56 214.5l107 390c4 14 13.833 22.833 29.5 26.5
s51.5 5.5 107.5 5.5h19c51.333 0 85.166 -2.16699 101.499 -6.5s26.166 -11.5 29.499 -21.5l100 -385c38 -145.333 67.333 -279.333 88 -402c62 197.333 119.333 458.333 172 783c1.33301 10 4.5 16.833 9.5 20.5s16.333 6.5 34 8.5s47.5 3 89.5 3h8
c50.667 0 83.667 -2 99 -6s22 -12.667 20 -26c-24 -152.667 -61.667 -321.834 -113 -507.501s-108.666 -356.5 -171.999 -512.5c-4.66699 -13.333 -15.5 -21.5 -32.5 -24.5s-56.5 -4.5 -118.5 -4.5h-16c-64.667 0 -106 1.83301 -124 5.5s-28.667 10.834 -32 21.501l-92 335
c-47.333 175.333 -75.333 306 -84 392c-10.667 -112.667 -38.667 -244 -84 -394l-99 -333c-3.33301 -10 -14.333 -17 -33 -21s-56.667 -6 -114 -6h-20c-56.667 0 -94.334 1.83301 -113.001 5.5s-29.667 10.834 -33 21.501l-289 1015c-2 7.33301 -2.33301 13.5 -1 18.5
s6.5 9 15.5 12s22.833 5.16699 41.5 6.5s44.667 2 78 2z" />
    <glyph glyph-name="x" unicode="x" horiz-adv-x="1044" 
d="M141 1081l35.002 -0.00390625c62 0 104.167 -2.16699 126.5 -6.5s37.5 -12.833 45.5 -25.5l78 -119l102 -166c21.333 40 53.666 95.333 96.999 166l69 119c8 14 20.167 22.833 36.5 26.5s52.166 5.5 107.499 5.5h20c85.333 0 128 -8.33301 128 -25
c0 -4 -1.66699 -8.66699 -5 -14l-180 -272c-41.333 -64.667 -89.333 -135 -144 -211c55.333 -69.333 101.333 -130.666 138 -183.999l231 -340c9.33301 -14.667 5.33301 -24 -12 -28c-16 -4.66699 -55.667 -7 -119 -7h-33c-57.333 0 -94.833 2 -112.5 6s-31.167 13 -40.5 27
l-93 139c-60.667 94.667 -98.667 155.334 -114 182.001c-17.333 -31.333 -53 -92.666 -107 -183.999l-82 -137c-8 -14 -20.167 -23 -36.5 -27s-51.833 -6 -106.5 -6h-25c-84 0 -126.333 8.33301 -127 25c0 3.33301 1.66699 8 5 14l223 332l123 182
c-46.667 60 -89.667 120 -129 180l-209 309c-10.667 16.667 -8 27.334 8 32.001c14.667 4.66699 48.667 7 102 7z" />
    <glyph glyph-name="y" unicode="y" horiz-adv-x="1089" 
d="M178 1081l27 0.000976562c57.333 0 93.833 -2 109.5 -6s25.5 -12 29.5 -24l127 -402c44.667 -142 75.334 -264.667 92.001 -368c18.667 98 48.667 219.333 90 364l119 406c4 12 13.5 20 28.5 24s48.5 6 100.5 6h27c78 0 120 -6.33301 126 -19c2 -4 1.66699 -10 -1 -18
l-351 -1026c-60.667 -178 -129.667 -305 -207 -381s-181 -114 -311 -114c-43.333 0 -85.5 4.83301 -126.5 14.5s-72.5 21.834 -94.5 36.501c-8.66699 8 -12.5 17.167 -11.5 27.5s6.16699 33.166 15.5 68.499l8 29c10 36 19 59.167 27 69.5s19.667 13.166 35 8.49902
c46 -14 88.333 -21 127 -21c58 0 106.167 16.833 144.5 50.5s74.833 96.167 109.5 187.5l-369 1050c-4.66699 14 0 23.333 14 28c17.333 6 55.666 9 114.999 9z" />
    <glyph glyph-name="z" unicode="z" horiz-adv-x="983" 
d="M129 1081l702 -0.000976562c32 0 52.333 -1.66699 61 -5s13 -11 13 -23v-74c0 -36.667 -10.333 -70.667 -31 -102l-444 -660h461c6.66699 0 11.667 -1.66699 15 -5s6.16602 -12.833 8.49902 -28.5s3.5 -39.167 3.5 -70.5v-9c0 -31.333 -1.16699 -54.833 -3.5 -70.5
s-5.16602 -25.167 -8.49902 -28.5s-8.33301 -5 -15 -5h-741c-32 0 -52.333 1.83301 -61 5.5s-13 11.5 -13 23.5v73c0 38 10 72.333 30 103l449 659h-426c-6.66699 0 -11.667 1.83301 -15 5.5s-6.16602 13.334 -8.49902 29.001s-3.5 39.167 -3.5 70.5v8
c0 31.333 1.16699 54.833 3.5 70.5s5.16602 25.167 8.49902 28.5s8.33301 5 15 5z" />
    <glyph glyph-name="braceleft" unicode="{" horiz-adv-x="659" 
d="M532 1542l75.999 -0.00292969c10 0 16.333 -5.16699 19 -15.5s4 -35.166 4 -74.499v-25c0 -39.333 -1.33301 -64.166 -4 -74.499s-9 -15.5 -19 -15.5h-47c-41.333 0 -70 -10 -86 -30s-24 -53 -24 -99v-288c0 -72 -11.5 -130.667 -34.5 -176
s-60.833 -81.666 -113.5 -108.999c52.667 -27.333 90.5 -63.666 113.5 -108.999s34.5 -104 34.5 -176v-289c0 -45.333 7.83301 -77.833 23.5 -97.5s44.5 -29.5 86.5 -29.5h43c10.667 0 17.834 -5.66699 21.501 -17s5.5 -35.666 5.5 -72.999v-24
c0 -39.333 -1.33301 -64.166 -4 -74.499s-9 -15.5 -19 -15.5h-76c-125.333 0 -214 28.833 -266 86.5s-78 146.167 -78 265.5v293c0 49.333 -10 84.5 -30 105.5s-50 35.5 -90 43.5c-10 2 -16.333 8.16699 -19 18.5s-4 34.166 -4 71.499v41c0 37.333 1.33301 61.166 4 71.499
s9 16.5 19 18.5c40 8 70 22.667 90 44s30 56.666 30 105.999v295c0 119.333 26 207.833 78 265.5s140.667 86.5 266 86.5z" />
    <glyph glyph-name="bar" unicode="|" horiz-adv-x="559" 
d="M266 1673h23c36 0 63.167 -1.33301 81.5 -4s29.5 -5.83398 33.5 -9.50098s6 -9.5 6 -17.5v-2170c0 -8 -2 -13.833 -6 -17.5s-15.167 -6.83398 -33.5 -9.50098s-45.5 -4 -81.5 -4h-23c-36.667 0 -63.334 1.16699 -80.001 3.5s-26.834 5.33301 -30.501 9
s-5.5 9.83398 -5.5 18.501v2170c0 8.66699 1.83301 14.834 5.5 18.501s13.834 6.66699 30.501 9s43.334 3.5 80.001 3.5z" />
    <glyph glyph-name="braceright" unicode="}" horiz-adv-x="659" 
d="M51 1542h76c125.333 0 214 -28.833 266 -86.5s78 -146.167 78 -265.5v-295c0 -49.333 10.167 -84.666 30.5 -105.999s50.5 -36 90.5 -44c10 -2 16.167 -8.16699 18.5 -18.5s3.5 -34.166 3.5 -71.499v-41c0 -37.333 -1.16699 -61.166 -3.5 -71.499s-8.5 -16.5 -18.5 -18.5
c-40.667 -8 -71 -22.5 -91 -43.5s-30 -56.167 -30 -105.5v-293c0 -119.333 -26 -207.833 -78 -265.5s-140.667 -86.5 -266 -86.5h-76c-10 0 -16.167 5.16699 -18.5 15.5s-3.5 35.166 -3.5 74.499v24c0 38 1.66699 62.5 5 73.5s10.333 16.5 21 16.5h43
c41.333 0 70.166 10.833 86.499 32.5s24.5 55.5 24.5 101.5v282c0 72.667 11.5 131.5 34.5 176.5s60.5 81.167 112.5 108.5c-52 27.333 -89.5 63.5 -112.5 108.5s-34.5 103.833 -34.5 176.5v282c0 46 -8.16699 80 -24.5 102s-45.166 33 -86.499 33h-47
c-10 0 -16.167 5.16699 -18.5 15.5s-3.5 35.166 -3.5 74.499v25c0 39.333 1.16699 64.166 3.5 74.499s8.5 15.5 18.5 15.5z" />
    <glyph glyph-name="asciitilde" unicode="~" 
d="M166 614l-27 7c-31.333 7.33301 -51.333 14 -60 20s-11.667 15.667 -9 29c17.333 81.333 54.666 149.333 111.999 204s124.333 82 201 82c38 0 75.5 -5.83301 112.5 -17.5s69.833 -25.667 98.5 -42s55.834 -32.666 81.501 -48.999s51.334 -30.333 77.001 -42
s49.167 -17.5 70.5 -17.5c55.333 0 97.666 39.667 126.999 119c6.66699 20.667 36.667 25 90 13l27 -7c31.333 -7.33301 51.5 -14 60.5 -20s12.167 -15.667 9.5 -29c-18 -82 -55.667 -150.167 -113 -204.5s-124.333 -81.5 -201 -81.5c-38 0 -75.5 5.66699 -112.5 17
s-69.5 25.333 -97.5 42l-80.5 49.5c-25.667 16.333 -51.5 30.166 -77.5 41.499s-50 17 -72 17c-28 0 -52.833 -10.667 -74.5 -32s-39.167 -50 -52.5 -86c-6.66699 -20.667 -36.667 -25 -90 -13z" />
    <glyph glyph-name="uni00A0" unicode="&#xa0;" horiz-adv-x="520" 
 />
    <glyph glyph-name="exclamdown" unicode="&#xa1;" horiz-adv-x="612" 
d="M131 934c0 46.667 16.667 86.334 50 119.001s75.333 49 126 49c49.333 0 90.666 -16.333 123.999 -49s50 -72.334 50 -119.001c0 -47.333 -16.667 -87.5 -50 -120.5s-74.666 -49.5 -123.999 -49.5c-50.667 0 -92.667 16.5 -126 49.5s-50 73.167 -50 120.5zM287 596h43
c37.333 0 62.333 -1.66699 75 -5s19 -10 19 -20l37 -929c0 -13.333 -9 -22.5 -27 -27.5s-55.333 -7.5 -112 -7.5h-23c-56.667 0 -94 2.5 -112 7.5s-27 14.167 -27 27.5l33 929c0 10 6.33301 16.667 19 20s37.667 5 75 5z" />
    <glyph glyph-name="cent" unicode="&#xa2;" 
d="M678 1323l6 0.000976562c40 0 69 -1.16699 87 -3.5s29.167 -5.33301 33.5 -9s6.5 -9.83398 6.5 -18.501v-202c82.667 -16.667 158.334 -53 227.001 -109c11.333 -9.33301 16 -20 14 -32s-12 -35.333 -30 -70l-21 -39c-12.667 -23.333 -23.5 -40.5 -32.5 -51.5
s-16.5 -16.5 -22.5 -16.5s-12 2 -18 6c-80.667 53.333 -159.334 80 -236.001 80c-74.667 0 -136 -25.833 -184 -77.5s-72 -129.5 -72 -233.5c0 -104.667 22.833 -184.834 68.5 -240.501s112.5 -83.5 200.5 -83.5c71.333 0 149 20 233 60c12.667 6 22.5 5 29.5 -3
s19.167 -32.333 36.5 -73l12 -29c14.667 -34 22.5 -57.5 23.5 -70.5s-3.5 -21.5 -13.5 -25.5c-62 -42 -133.667 -70.667 -215 -86v-207c0 -8.66699 -2.16699 -14.834 -6.5 -18.501s-15.5 -6.66699 -33.5 -9s-47 -3.5 -87 -3.5h-6c-42 0 -72.333 1.16699 -91 3.5
s-30 5.33301 -34 9s-6 9.83398 -6 18.501v201c-96 16 -175.333 53.333 -238 112c-108 100 -162 243.333 -162 430c0 178.667 50 320 150 424c64.667 68 148 111.667 250 131v205c0 8.66699 2 14.834 6 18.501s15.333 6.66699 34 9s49 3.5 91 3.5z" />
    <glyph glyph-name="sterling" unicode="&#xa3;" 
d="M190 877h142.001v110c0 158 37.667 282.167 113 372.5s188.333 135.5 339 135.5c106 0 199 -21.667 279 -65c8.66699 -4.66699 13.834 -10.5 15.501 -17.5s1.16699 -16 -1.5 -27s-8.66699 -27.833 -18 -50.5l-15 -37c-14.667 -38 -25.834 -61.333 -33.501 -70
s-16.834 -10.334 -27.501 -5.00098c-58 27.333 -116.667 41 -176 41c-65.333 0 -112.333 -22 -141 -66s-43 -106.667 -43 -188v-133h323c6.66699 0 11.667 -1.66699 15 -5s6.16602 -12.666 8.49902 -27.999s3.5 -38.666 3.5 -69.999v-14
c0 -31.333 -1.16699 -54.666 -3.5 -69.999s-5.16602 -24.666 -8.49902 -27.999s-8.33301 -5 -15 -5h-325v-92c0 -76.667 -9 -144.334 -27 -203.001s-45.333 -100.667 -82 -126h547c15.333 0 25 -5.66699 29 -17s6 -42 6 -92v-14c0 -48 -2.33301 -78.833 -7 -92.5
s-14 -20.5 -28 -20.5h-858c-14 0 -23.333 6.83301 -28 20.5s-7 44.5 -7 92.5v8c0 36.667 2.33301 62 7 76s14 24.667 28 32c50 29.333 84.333 68.666 103 117.999s28 118.666 28 207.999v102h-142c-6.66699 0 -11.667 1.66699 -15 5s-6 12.5 -8 27.5s-3 38.5 -3 70.5v14
c0 32 1 55.5 3 70.5s4.66699 24.167 8 27.5s8.33301 5 15 5z" />
    <glyph glyph-name="currency" unicode="&#xa4;" 
d="M997 754c0 -123.333 -27.335 -223 -82.002 -299l150 -258c8 -14 -0.333008 -23 -25 -27c-11.333 -1.33301 -26.333 -2 -45 -2h-80c-26.667 0 -44.667 1.66699 -54 5s-17 10 -23 20l-84 143c-48.667 -16.667 -102.667 -25 -162 -25
c-54.667 0 -105.334 8.33301 -152.001 25l-84 -143c-6 -10 -13.667 -16.667 -23 -20s-27.333 -5 -54 -5h-80c-49.333 0 -73.666 6.33301 -72.999 19c0 2.66699 1 6 3 10l152 260c-46.667 70.667 -70 158.667 -70 264c0 123.333 27.333 223 82 299l-150 258
c-8 14 0.333008 23 25 27c11.333 1.33301 26.333 2 45 2h80c26.667 0 44.834 -1.66699 54.501 -5s17.5 -10 23.5 -20l84 -143c47.333 16 101 24 161 24c56 0 106.667 -8 152 -24l84 143c6 10 13.833 16.667 23.5 20s27.834 5 54.501 5h80c48.667 0 72.667 -6.33301 72 -19
c0 -2.66699 -1 -6 -3 -10l-151 -260c46 -69.333 69 -157.333 69 -264zM749.998 743c0 64 -11.832 113.499 -35.499 148.499s-57.834 52.5 -102.501 52.5c-102 0 -153 -71 -153 -213c0 -64 11.667 -113.5 35 -148.5s57.333 -52.5 102 -52.5c51.333 0 89.833 18.333 115.5 55
s38.5 89.334 38.5 158.001z" />
    <glyph glyph-name="yen" unicode="&#xa5;" 
d="M172 1475h46.999c55.333 0 93 -2.33301 113 -7s33 -13.334 39 -26.001l147 -307c56.667 -117.333 98.334 -217 125.001 -299c42.667 118 83 217.667 121 299l143 309c5.33301 12.667 15.833 21 31.5 25s50.167 6 103.5 6h45c74.667 0 114.334 -5.66699 119.001 -17
c2 -3.33301 1.33301 -8.66602 -2 -15.999l-385 -768h209c8 0 13.667 -1.33301 17 -4s6.16602 -10.667 8.49902 -24s3.5 -34.666 3.5 -63.999v-2c0 -29.333 -1.16699 -50.833 -3.5 -64.5s-5.16602 -21.834 -8.49902 -24.501s-9 -4 -17 -4h-258v-92h258
c8 0 13.667 -1.33301 17 -4s6.16602 -10.667 8.49902 -24s3.5 -34.666 3.5 -63.999v-2c0 -29.333 -1.16699 -50.666 -3.5 -63.999s-5.16602 -21.333 -8.49902 -24s-9 -4 -17 -4h-258v-178c0 -12.667 -9.5 -21 -28.5 -25s-55.833 -6 -110.5 -6h-23
c-56.667 0 -93.334 2 -110.001 6s-25 12.333 -25 25v178h-258c-8 0 -13.667 1.33301 -17 4s-6.16602 10.667 -8.49902 24s-3.5 34.666 -3.5 63.999v2c0 29.333 1.16699 50.666 3.5 63.999s5.16602 21.333 8.49902 24s9 4 17 4h258v92h-258c-8 0 -13.667 1.33301 -17 4
s-6.16602 10.834 -8.49902 24.501s-3.5 35.167 -3.5 64.5v2c0 29.333 1.16699 50.666 3.5 63.999s5.16602 21.333 8.49902 24s9 4 17 4h207l-379 766c-6.66699 14 -1.66699 23.333 15 28c18.667 4.66699 56.667 7 114 7z" />
    <glyph glyph-name="brokenbar" unicode="&#xa6;" horiz-adv-x="559" 
d="M266 367h23c36 0 63.167 -1.33301 81.5 -4s29.5 -5.83398 33.5 -9.50098s6 -9.5 6 -17.5v-760c0 -8 -2 -13.833 -6 -17.5s-15.167 -6.83398 -33.5 -9.50098s-45.5 -4 -81.5 -4h-23c-36.667 0 -63.334 1.16699 -80.001 3.5s-26.834 5.33301 -30.501 9
s-5.5 9.83398 -5.5 18.501v760c0 8.66699 1.83301 14.834 5.5 18.501s13.834 6.66699 30.501 9s43.334 3.5 80.001 3.5zM266 1569l22.999 -0.000976562c36 0 63.167 -1.33301 81.5 -4s29.5 -5.83398 33.5 -9.50098s6 -9.5 6 -17.5v-760c0 -7.33301 -2.16699 -13 -6.5 -17
s-15.333 -7.16699 -33 -9.5s-44.834 -3.5 -81.501 -3.5h-23c-36.667 0 -63.167 1 -79.5 3s-26.5 4.83301 -30.5 8.5s-6 9.83398 -6 18.501v760c0 8.66699 1.83301 14.834 5.5 18.501s13.834 6.66699 30.501 9s43.334 3.5 80.001 3.5z" />
    <glyph glyph-name="section" unicode="&#xa7;" horiz-adv-x="1107" 
d="M903 1292l-17.998 -28.0029c-18.667 -31.333 -32.834 -51 -42.501 -59s-20.167 -8.33301 -31.5 -1c-70.667 44 -140.334 66 -209.001 66c-61.333 0 -105.666 -11.667 -132.999 -35c-19.333 -17.333 -29 -37 -29 -59c0 -20.667 10.333 -38.5 31 -53.5
s47.667 -27.5 81 -37.5s70.166 -20.333 110.499 -31s80.666 -24.167 120.999 -40.5s77.166 -35.666 110.499 -57.999s60.333 -52.5 81 -90.5s31 -82 31 -132c0 -58.667 -12.833 -110.667 -38.5 -156s-60.167 -82 -103.5 -110c52 -52 78 -119.667 78 -203
c0 -105.333 -40 -189.333 -120 -252s-181.333 -94 -304 -94c-136.667 0 -249.334 34 -338.001 102c-10 6.66699 -13.5 16.5 -10.5 29.5s14.833 36.833 35.5 71.5l18 29c18 31.333 32 50.833 42 58.5s20.667 7.83398 32 0.500977c70.667 -44 140.334 -66 209.001 -66
c61.333 0 105.666 11.667 132.999 35c19.333 17.333 29 37.333 29 60c0 18 -8.16699 34 -24.5 48s-37.666 25.333 -63.999 34l-90.5 28.5c-34 10.333 -68.667 20.333 -104 30s-70 23.167 -104 40.5s-64.167 36.666 -90.5 57.999s-47.666 49.5 -63.999 84.5
s-24.5 74.5 -24.5 118.5c0 114.667 46.667 203.334 140 266.001c-50.667 50.667 -76 118.334 -76 203.001c0 105.333 40 189.333 120 252s181.333 94 304 94c136.667 0 249.334 -34 338.001 -102c10 -6.66699 13.5 -16.5 10.5 -29.5s-14.833 -36.833 -35.5 -71.5z
M659.002 577.997c48 28 72 64.001 72 108.001c0 14 -4 26.667 -12 38s-17.833 21 -29.5 29s-28 16 -49 24s-40 14.333 -57 19l-68 19c-28.333 8 -51.5 15 -69.5 21c-46 -30 -69 -66.333 -69 -109c0 -16.667 4.66699 -31.334 14 -44.001s24.833 -24 46.5 -34
s41.667 -18 60 -24s45 -13.833 80 -23.5s62.167 -17.5 81.5 -23.5z" />
    <glyph glyph-name="dieresis" unicode="&#xa8;" horiz-adv-x="716" 
d="M-14 1391c0 40.667 14.167 75 42.5 103s63.833 42 106.5 42c43.333 0 79.166 -14 107.499 -42s42.5 -62.333 42.5 -103c0 -39.333 -14.167 -72.833 -42.5 -100.5s-64.166 -41.5 -107.499 -41.5c-42.667 0 -78.167 13.833 -106.5 41.5s-42.5 61.167 -42.5 100.5zM432 1391
c0 40.667 13.666 75 40.999 103s62.333 42 105 42c44.667 0 81.334 -14 110.001 -42s43 -62.333 43 -103c0 -39.333 -14.5 -72.833 -43.5 -100.5s-65.5 -41.5 -109.5 -41.5c-42.667 0 -77.667 13.833 -105 41.5s-41 61.167 -41 100.5z" />
    <glyph glyph-name="copyright" unicode="&#xa9;" horiz-adv-x="1638" 
d="M1057 1030l-12.998 -22.002c-10.667 -19.333 -18.167 -31 -22.5 -35s-10.166 -4 -17.499 0c-47.333 31.333 -97.333 47 -150 47c-65.333 0 -115.166 -24.333 -149.499 -73s-51.5 -120 -51.5 -214c0 -184 67 -276 201 -276c58 0 110 11.667 156 35
c7.33301 5.33301 14.166 5.83301 20.499 1.5s13.166 -15.833 20.499 -34.5l10 -25c10.667 -27.333 14.667 -43.666 12 -48.999c-1.33301 -3.33301 -5.33301 -6.66602 -12 -9.99902c-26.667 -18.667 -61.834 -34.334 -105.501 -47.001s-85.834 -19 -126.501 -19
c-112 0 -199 37.333 -261 112s-93 177.334 -93 308.001c0 131.333 32.833 236.833 98.5 316.5s155.167 119.5 268.5 119.5c88 0 161 -23 219 -69c10 -7.33301 14.667 -15 14 -23s-6.66699 -22.333 -18 -43zM819.002 1495c103.333 0 200.67 -18.167 292.003 -54.5
s170.5 -87 237.5 -152s119.833 -145.167 158.5 -240.5s58 -199 58 -311c0 -149.333 -33.333 -282 -100 -398s-156.334 -204.833 -269.001 -266.5s-238.334 -92.5 -377.001 -92.5s-264.334 30.833 -377.001 92.5s-202.167 150.5 -268.5 266.5s-99.5 248.667 -99.5 398
c0 112.667 19.333 216.5 58 311.5s91.5 175 158.5 240s146 115.667 237 152s188.167 54.5 291.5 54.5zM813.006 1331c-76 0 -148 -14.333 -216 -43s-127 -68.667 -177 -120s-89.5 -114.166 -118.5 -188.499s-43.5 -155.166 -43.5 -242.499c0 -116 25 -219.5 75 -310.5
s117.333 -161 202 -210s178.667 -73.5 282 -73.5c76 0 148 14.333 216 43s127 68.667 177 120s89.5 114.166 118.5 188.499s43.5 155.166 43.5 242.499c0 116 -25 219.5 -75 310.5s-117.333 161 -202 210s-178.667 73.5 -282 73.5z" />
    <glyph glyph-name="ordfeminine" unicode="&#xaa;" horiz-adv-x="837" 
d="M551 1415l5.99609 48.999c0.666992 4.66699 2.33398 8 5.00098 10s9.83398 3.66699 21.501 5s29.5 2 53.5 2h29c32.667 0 53.667 -1.33301 63 -4s14 -7.66699 14 -15c0 -9.33301 -0.333008 -49.666 -1 -120.999s-1 -128.666 -1 -171.999v-82c0 -86 3 -184.667 9 -296
c0.666992 -6.66699 -0.166016 -11.334 -2.49902 -14.001s-8.83301 -4.83398 -19.5 -6.50098s-28.667 -2.5 -54 -2.5h-29c-32.667 0 -53.667 0.833008 -63 2.5s-15.666 6.16699 -18.999 13.5c-2 4 -4.66699 19 -8 45c-20 -23.333 -47 -41.666 -81 -54.999s-69 -20 -105 -20
c-88 0 -157.833 31.833 -209.5 95.5s-77.5 150.5 -77.5 260.5c0 119.333 28.667 213.333 86 282s128.333 103 213 103c36 0 69.333 -7.5 100 -22.5s54 -34.167 70 -57.5zM534.996 1055l0.00195312 205c-26.667 42 -62.334 63 -107.001 63
c-46.667 0 -80.834 -17 -102.501 -51s-32.5 -86 -32.5 -156c0 -64 10 -112.667 30 -146s53 -50 99 -50c33.333 0 60 10 80 30c22 22 33 57 33 105z" />
    <glyph glyph-name="guillemotleft" unicode="&#xab;" horiz-adv-x="1110" 
d="M473 1065l33 -17.998c30 -17.333 49.5 -31.833 58.5 -43.5s9.83301 -23.834 2.5 -36.501l-215 -349l215 -348c7.33301 -12.667 6.5 -24.834 -2.5 -36.501s-28.5 -26.167 -58.5 -43.5l-33 -18c-29.333 -16.667 -51.166 -25.5 -65.499 -26.5s-25.166 5.16699 -32.499 18.5
l-262 381c-15.333 22 -23 44.333 -23 67v13c0 22.667 7.66699 45 23 67l262 381c7.33301 13.333 18.166 19.5 32.499 18.5s36.166 -9.83301 65.499 -26.5zM924 1065l32 -17.998c30.667 -17.333 50.5 -31.833 59.5 -43.5s9.83301 -23.834 2.5 -36.501l-215 -349l215 -348
c7.33301 -12.667 6.5 -24.834 -2.5 -36.501s-28.833 -26.167 -59.5 -43.5l-32 -18c-29.333 -16.667 -51.333 -25.5 -66 -26.5s-25.667 5.16699 -33 18.5l-262 381c-14.667 20.667 -22 43 -22 67v13c0 24 7.33301 46.333 22 67l262 381c7.33301 13.333 18.333 19.5 33 18.5
s36.667 -9.83301 66 -26.5z" />
    <glyph glyph-name="logicalnot" unicode="&#xac;" 
d="M168 1073l879.002 -0.00195312c8 0 13.333 -1 16 -3s4 -7 4 -15v-676c0 -10.667 -6.33301 -18.167 -19 -22.5s-40.334 -6.5 -83.001 -6.5h-29c-42.667 0 -70.334 2.16699 -83.001 6.5s-19 11.833 -19 22.5v461h-666c-10.667 0 -18.167 6.33301 -22.5 19
s-6.5 40.334 -6.5 83.001v29c0 42.667 2.16699 70.334 6.5 83.001s11.833 19 22.5 19z" />
    <glyph glyph-name="uni00AD" unicode="&#xad;" horiz-adv-x="798" 
d="M98 707h602c10.667 0 18.167 -6.5 22.5 -19.5s6.5 -40.833 6.5 -83.5v-29c0 -42.667 -2.16699 -70.334 -6.5 -83.001s-11.833 -19 -22.5 -19h-602c-10.667 0 -18 6.33301 -22 19s-6 40.334 -6 83.001v29c0 42.667 2 70.5 6 83.5s11.333 19.5 22 19.5z" />
    <glyph glyph-name="registered" unicode="&#xae;" horiz-adv-x="1638" 
d="M596 1153l169.998 0.000976562c46 0 86.833 -3.5 122.5 -10.5s69.5 -19 101.5 -36s56.667 -42.333 74 -76s26 -74.834 26 -123.501c0 -106.667 -48.667 -185 -146 -235l27 -49c56.667 -106 115.334 -199 176.001 -279c8 -11.333 2 -18.333 -18 -21
c-7.33301 -0.666992 -16.333 -1 -27 -1h-68c-23.333 0 -39.333 0.833008 -48 2.5s-16.334 6.16699 -23.001 13.5c-33.333 38 -81.333 115.667 -144 233l-39 70h-65v-303c0 -6.66699 -5.16699 -11 -15.5 -13s-31.166 -3 -62.499 -3h-16c-32 0 -52.667 1 -62 3
s-14 6.33301 -14 13v799c0 7.33301 2.83301 11.833 8.5 13.5s19.834 2.5 42.501 2.5zM714.998 1014v-238h55c52 0 90.333 12.333 115 37c22 22 33 52 33 90c0 34 -9.66699 60.667 -29 80c-20.667 20.667 -61.667 31 -123 31h-51zM818.998 1495
c103.333 0 200.67 -18.167 292.003 -54.5s170.5 -87 237.5 -152s119.833 -145.167 158.5 -240.5s58 -199 58 -311c0 -149.333 -33.333 -282 -100 -398s-156.334 -204.833 -269.001 -266.5s-238.334 -92.5 -377.001 -92.5s-264.334 30.833 -377.001 92.5
s-202.167 150.5 -268.5 266.5s-99.5 248.667 -99.5 398c0 112.667 19.333 216.5 58 311.5s91.5 175 158.5 240s146 115.667 237 152s188.167 54.5 291.5 54.5zM817.002 1331c-76 0 -148 -14.333 -216 -43s-127 -68.667 -177 -120s-89.5 -114.166 -118.5 -188.499
s-43.5 -155.166 -43.5 -242.499c0 -116 25 -219.5 75 -310.5s117.333 -161 202 -210s178.667 -73.5 282 -73.5c76 0 148 14.333 216 43s127 68.667 177 120s89.5 114.166 118.5 188.499s43.5 155.166 43.5 242.499c0 116 -25 219.5 -75 310.5s-117.333 161 -202 210
s-178.667 73.5 -282 73.5z" />
    <glyph glyph-name="macron" unicode="&#xaf;" horiz-adv-x="716" 
d="M82 1505h553c11.333 0 18.666 -6 21.999 -18s5 -34 5 -66v-28c0 -32 -1.66699 -54 -5 -66s-10.666 -18 -21.999 -18h-553c-11.333 0 -18.666 6 -21.999 18s-5 34 -5 66v28c0 32 1.66699 54 5 66s10.666 18 21.999 18z" />
    <glyph glyph-name="degree" unicode="&#xb0;" horiz-adv-x="722" 
d="M362 1352c-40.667 0 -73.332 -13.668 -97.999 -41.001s-37 -63.666 -37 -108.999c0 -44.667 11.333 -79.667 34 -105s54.334 -38 95.001 -38c41.333 0 74.666 13.167 99.999 39.5s38 62.833 38 109.5c0 44 -11.833 79 -35.5 105s-55.834 39 -96.501 39zM66.002 1198
c0 89.333 27.833 161.168 83.5 215.501s128.834 81.5 219.501 81.5c86.667 0 156.334 -24.833 209.001 -74.5s79 -119.834 79 -210.501c0 -89.333 -27.833 -160.833 -83.5 -214.5s-128.834 -80.5 -219.501 -80.5c-86.667 0 -156.334 24.667 -209.001 74s-79 119 -79 209z
" />
    <glyph glyph-name="plusminus" unicode="&#xb1;" 
d="M127 1055h358v358c0 10.667 6.5 18.167 19.5 22.5s40.833 6.5 83.5 6.5h28c42.667 0 70.5 -2.16699 83.5 -6.5s19.5 -11.833 19.5 -22.5v-358h360c10.667 0 18.167 -6.5 22.5 -19.5s6.5 -40.833 6.5 -83.5v-28c0 -42.667 -2.16699 -70.5 -6.5 -83.5
s-11.833 -19.5 -22.5 -19.5h-360v-360c0 -10.667 -6.5 -18.167 -19.5 -22.5s-40.833 -6.5 -83.5 -6.5h-28c-42.667 0 -70.5 2.16699 -83.5 6.5s-19.5 11.833 -19.5 22.5v360h-358c-10.667 0 -18.167 6.5 -22.5 19.5s-6.5 40.833 -6.5 83.5v28
c0 42.667 2.16699 70.5 6.5 83.5s11.833 19.5 22.5 19.5zM127 233h952c10.667 0 18.167 -6.33301 22.5 -19s6.5 -40.334 6.5 -83.001v-29c0 -42.667 -2.16699 -70.334 -6.5 -83.001s-11.833 -19 -22.5 -19h-952c-10.667 0 -18.167 6.33301 -22.5 19s-6.5 40.334 -6.5 83.001
v29c0 42.667 2.16699 70.334 6.5 83.001s11.833 19 22.5 19z" />
    <glyph glyph-name="uni00B2" unicode="&#xb2;" horiz-adv-x="901" 
d="M180 840l-0.000976562 10c0 22 2.33301 38.833 7 50.5s14 23.5 28 35.5c190 153.333 285 282.333 285 387c0 50.667 -28 76 -84 76c-36.667 0 -81.667 -17 -135 -51c-5.33301 -2.66699 -11 -3.83398 -17 -3.50098s-13.833 6.33301 -23.5 18s-21.5 29.167 -35.5 52.5
c-18.667 32 -29.167 54.5 -31.5 67.5s1.83398 22.5 12.501 28.5c36 24.667 77.333 45.167 124 61.5s92 24.5 136 24.5c83.333 0 152 -22.667 206 -68s81 -108.666 81 -189.999c0 -128 -77.667 -253.333 -233 -376h211c12 0 20 -6.5 24 -19.5s6 -40.167 6 -81.5v-8
c0 -41.333 -2 -68.333 -6 -81s-12 -19 -24 -19h-500c-12 0 -20.167 5 -24.5 15s-6.5 33.667 -6.5 71z" />
    <glyph glyph-name="uni00B3" unicode="&#xb3;" horiz-adv-x="901" 
d="M348 1272l24.9961 0.00195312c39.333 0 70 6.16699 92 18.5s33 29.833 33 52.5c0 20 -8 35.667 -24 47s-38.667 17 -68 17c-47.333 0 -96.666 -17 -147.999 -51c-6 -2.66699 -11.833 -4 -17.5 -4s-13.5 5.66699 -23.5 17s-21.667 28.666 -35 51.999
c-18.667 31.333 -28.667 53.666 -30 66.999s3.33398 22.666 14.001 27.999c34 24.667 75.5 44.334 124.5 59.001s98.167 22 147.5 22c89.333 0 160.833 -21 214.5 -63s80.5 -100 80.5 -174c0 -36.667 -10.167 -69.667 -30.5 -99s-46.166 -51 -77.499 -65
c41.333 -12 74.5 -34.667 99.5 -68s37.5 -73.333 37.5 -120c0 -84.667 -32.667 -150.334 -98 -197.001s-147.333 -70 -246 -70c-92.667 0 -173.334 15.667 -242.001 47c-12 5.33301 -18 14 -18 26s6 35 18 69c14.667 37.333 26.167 61.333 34.5 72s18.166 14 29.499 10
c56.667 -19.333 113.334 -29 170.001 -29c34.667 0 62.334 7.33301 83.001 22s31 33.334 31 56.001c0 24.667 -11.167 43 -33.5 55s-58.166 18 -107.499 18h-35c-12.667 0 -21 5.16699 -25 15.5s-6 35.5 -6 75.5v8c0 37.333 2.16699 61 6.5 71s12.5 15 24.5 15z" />
    <glyph glyph-name="acute" unicode="&#xb4;" horiz-adv-x="716" 
d="M453 1610h98c42.667 0 64.334 -5.66699 65.001 -17c0.666992 -4 -1.33301 -9.33301 -6 -16l-266 -334c-12.667 -14.667 -40.667 -22 -84 -22h-78c-24 0 -39.833 2 -47.5 6s-8.16699 12 -1.5 24l217 334c5.33301 9.33301 14.666 15.833 27.999 19.5s38.333 5.5 75 5.5z
" />
    <glyph glyph-name="paragraph" unicode="&#xb6;" horiz-adv-x="1255" 
d="M559 1475l637 -0.00195312c7.33301 0 12.166 -4.16699 14.499 -12.5s3.5 -26.166 3.5 -53.499v-70c0 -26 -1.16699 -43 -3.5 -51s-7.16602 -12 -14.499 -12h-147v-1536c0 -14 -26 -21 -78 -21h-68c-53.333 0 -80 7 -80 21v1536h-110v-1536c0 -14 -26 -21 -78 -21h-68
c-53.333 0 -80 7 -80 21v872c-124.667 4.66699 -224.667 46.334 -300 125.001s-113 177.667 -113 297c0 134 42.5 241 127.5 321s204.167 120 357.5 120z" />
    <glyph glyph-name="periodcentered" unicode="&#xb7;" horiz-adv-x="489" 
d="M70 745c0 47.333 16.667 87.5 50 120.5s74.666 49.5 123.999 49.5c50.667 0 92.667 -16.5 126 -49.5s50 -73.167 50 -120.5c0 -46.667 -16.667 -86.167 -50 -118.5s-75.333 -48.5 -126 -48.5c-49.333 0 -90.666 16.167 -123.999 48.5s-50 71.833 -50 118.5z" />
    <glyph glyph-name="cedilla" unicode="&#xb8;" horiz-adv-x="716" 
d="M270 47l15.002 0.00292969c36 0 59 -2 69 -6s14.333 -12.333 13 -25l-9 -92c66 -2 118.667 -18.833 158 -50.5s59 -78.834 59 -141.501c0 -62 -22.333 -114.333 -67 -157s-109 -64 -193 -64c-64 0 -117 8.66699 -159 26c-8.66699 3.33301 -13.5 9.16602 -14.5 17.499
s1.83301 26.5 8.5 54.5l6 22c6.66699 25.333 12.667 41.666 18 48.999s14.333 9 27 5c31.333 -8.66699 62.666 -13 93.999 -13c26.667 0 46.667 5.5 60 16.5s20 25.5 20 43.5c0 40.667 -30.667 61 -92 61c-42 0 -83 -2.66699 -123 -8l35 242
c1.33301 8.66699 6.16602 14.167 14.499 16.5s28.5 3.5 60.5 3.5z" />
    <glyph glyph-name="uni00B9" unicode="&#xb9;" horiz-adv-x="901" 
d="M164 1432l225 120c30 16.667 61.333 25 94 25h90c27.333 0 41 -6 41 -18v-621h86c12 0 20.167 -5.66699 24.5 -17s6.5 -37 6.5 -77v-2c0 -40 -2.16699 -65.667 -6.5 -77s-12.5 -17 -24.5 -17h-442c-12 0 -20.167 5.66699 -24.5 17s-6.5 37 -6.5 77v2
c0 40 2.16699 65.667 6.5 77s12.5 17 24.5 17h123v393l-119 -63c-10.667 -6 -21.667 -4.83301 -33 3.5s-26.333 29.5 -45 63.5c-20 36 -31 60 -33 72s2.33301 20.333 13 25z" />
    <glyph glyph-name="ordmasculine" unicode="&#xba;" horiz-adv-x="837" 
d="M426 1325c-88.667 0 -133 -69 -133 -207c0 -129.333 39.667 -194 119 -194c88.667 0 133 68.667 133 206c0 130 -39.667 195 -119 195zM430 1495c102.667 0 182.667 -30.5 240 -91.5s86 -149.167 86 -264.5c0 -123.333 -30 -218.333 -90 -285s-146 -100 -258 -100
c-102.667 0 -182.667 30.5 -240 91.5s-86 149.167 -86 264.5c0 123.333 30 218.333 90 285s146 100 258 100z" />
    <glyph glyph-name="guillemotright" unicode="&#xbb;" horiz-adv-x="1110" 
d="M604 1047l33 17.998c29.333 16.667 51.166 25.5 65.499 26.5s25.166 -5.16699 32.499 -18.5l262 -381c15.333 -22 23 -44.333 23 -67v-13c0 -22.667 -7.66699 -45 -23 -67l-262 -381c-7.33301 -13.333 -18.166 -19.5 -32.499 -18.5s-36.166 9.83301 -65.499 26.5l-33 18
c-30 17.333 -49.5 31.833 -58.5 43.5s-9.83301 23.834 -2.5 36.501l215 348l-215 349c-7.33301 12.667 -6.5 24.834 2.5 36.501s28.5 26.167 58.5 43.5zM154 1047l32 17.998c29.333 16.667 51.333 25.5 66 26.5s25.667 -5.16699 33 -18.5l262 -381
c14.667 -20.667 22 -43 22 -67v-13c0 -24 -7.33301 -46.333 -22 -67l-262 -381c-7.33301 -13.333 -18.333 -19.5 -33 -18.5s-36.667 9.83301 -66 26.5l-32 18c-30.667 17.333 -50.5 31.833 -59.5 43.5s-9.83301 23.834 -2.5 36.501l215 348l-215 349
c-7.33301 12.667 -6.5 24.834 2.5 36.501s28.833 26.167 59.5 43.5z" />
    <glyph glyph-name="onequarter" unicode="&#xbc;" horiz-adv-x="2007" 
d="M1360 1475l18 -0.000976562c66 0 100.667 -5.66699 104 -17c1.33301 -3.33301 0.333008 -8.66602 -3 -15.999l-645 -1407c-4.66699 -10 -10.167 -17.167 -16.5 -21.5s-18.5 -7.66602 -36.5 -9.99902s-45 -3.5 -81 -3.5h-18c-65.333 0 -99.666 5.66699 -102.999 17
c-1.33301 3.33301 -0.333008 8.66602 3 15.999l645 1407c7.33301 15.333 18.166 25 32.499 29s47.833 6 100.5 6zM162 1329l225.001 120.999c30 16.667 61.333 25 94 25h90c27.333 0 41 -6.33301 41 -19v-620h86c12 0 20.167 -5.83301 24.5 -17.5s6.5 -37.5 6.5 -77.5v-2
c0 -40 -2.16699 -65.667 -6.5 -77s-12.5 -17 -24.5 -17h-442c-12 0 -20.167 5.66699 -24.5 17s-6.5 37 -6.5 77v2c0 40 2.16699 65.833 6.5 77.5s12.5 17.5 24.5 17.5h123v393l-119 -64c-10 -6 -20.833 -4.66699 -32.5 4s-26.834 30 -45.501 64c-20 36 -31 59.833 -33 71.5
s2.33301 19.834 13 24.501zM1524 828.998l7.99902 0.000976562c69.333 0 104.666 -7 105.999 -21c0 -2.66699 -0.666992 -5.66699 -2 -9l-176 -432h119v102c0 12 7 20.167 21 24.5s41.667 6.5 83 6.5h9c41.333 0 69 -2.16699 83 -6.5s21 -12.5 21 -24.5v-102h45
c12 0 20.167 -6.33301 24.5 -19s6.5 -39.334 6.5 -80.001v-6c0 -39.333 -2 -63.833 -6 -73.5s-12.333 -14.5 -25 -14.5h-45v-143c0 -12 -7 -20.167 -21 -24.5s-41.667 -6.5 -83 -6.5h-9c-41.333 0 -69 2.16699 -83 6.5s-21 12.5 -21 24.5v143h-344
c-12.667 0 -21 4.83301 -25 14.5s-6 34.167 -6 73.5v4c0 33.333 10.333 73.666 31 120.999l168 412c4.66699 12.667 14.834 20.834 30.501 24.501s45.834 5.5 90.501 5.5z" />
    <glyph glyph-name="onehalf" unicode="&#xbd;" horiz-adv-x="2007" 
d="M1276 86v9.99805c0 22 2.33301 38.833 7 50.5s14 23.5 28 35.5c189.333 152.667 284 281.667 284 387c0 50.667 -28 76 -84 76c-36.667 0 -81.667 -17 -135 -51c-5.33301 -2.66699 -11 -3.66699 -17 -3s-13.833 6.83398 -23.5 18.501s-21.5 29.167 -35.5 52.5
c-18.667 32 -29 54.5 -31 67.5s2.33301 22.5 13 28.5c36 24.667 77.333 45.167 124 61.5s92 24.5 136 24.5c83.333 0 152 -22.667 206 -68s81 -108.666 81 -189.999c0 -128 -78 -253.667 -234 -377h211c12 0 20.167 -6.5 24.5 -19.5s6.5 -39.833 6.5 -80.5v-9
c0 -40.667 -2.16699 -67.5 -6.5 -80.5s-12.5 -19.5 -24.5 -19.5h-499c-12 0 -20.167 5 -24.5 15s-6.5 33.667 -6.5 71zM1360 1475l18 -0.000976562c66 0 100.667 -5.66699 104 -17c1.33301 -3.33301 0.333008 -8.66602 -3 -15.999l-645 -1407
c-4.66699 -10 -10.167 -17.167 -16.5 -21.5s-18.5 -7.66602 -36.5 -9.99902s-45 -3.5 -81 -3.5h-18c-65.333 0 -99.666 5.66699 -102.999 17c-1.33301 3.33301 -0.333008 8.66602 3 15.999l645 1407c7.33301 15.333 18.166 25 32.499 29s47.833 6 100.5 6zM162 1329
l225.001 120.999c30 16.667 61.333 25 94 25h90c27.333 0 41 -6.33301 41 -19v-620h86c12 0 20.167 -5.83301 24.5 -17.5s6.5 -37.5 6.5 -77.5v-2c0 -40 -2.16699 -65.667 -6.5 -77s-12.5 -17 -24.5 -17h-442c-12 0 -20.167 5.66699 -24.5 17s-6.5 37 -6.5 77v2
c0 40 2.16699 65.833 6.5 77.5s12.5 17.5 24.5 17.5h123v393l-119 -64c-10 -6 -20.833 -4.66699 -32.5 4s-26.834 30 -45.501 64c-20 36 -31 59.833 -33 71.5s2.33301 19.834 13 24.501z" />
    <glyph glyph-name="threequarters" unicode="&#xbe;" horiz-adv-x="2007" 
d="M377 1169l23.998 0.00292969c39.333 0 70 6.33301 92 19s33 30.334 33 53.001c0 20 -8 35.667 -24 47s-38.667 17 -68 17c-45.333 0 -94.333 -17.333 -147 -52c-6 -2.66699 -11.833 -3.83398 -17.5 -3.50098s-13.5 6.16602 -23.5 17.499s-21.667 28.666 -35 51.999
c-18.667 31.333 -28.667 53.5 -30 66.5s3.33398 22.167 14.001 27.5c34.667 24.667 76.334 44.5 125.001 59.5s97.667 22.5 147 22.5c89.333 0 160.833 -21.167 214.5 -63.5s80.5 -100.5 80.5 -174.5c0 -36 -10.333 -68.667 -31 -98s-46.667 -51 -78 -65
c41.333 -12 74.666 -34.833 99.999 -68.5s38 -73.834 38 -120.501c0 -56.667 -15.833 -105.5 -47.5 -146.5s-73.167 -71.167 -124.5 -90.5s-109 -29 -173 -29c-92 0 -172.333 15.667 -241 47c-12 5.33301 -18 13.833 -18 25.5s6 34.5 18 68.5c14.667 38 26 62.167 34 72.5
s17.667 13.5 29 9.5c54.667 -18.667 111.334 -28 170.001 -28c34.667 0 62.5 7.16699 83.5 21.5s31.5 32.833 31.5 55.5c0 49.333 -47 74 -141 74h-35c-12.667 0 -21 5 -25 15s-6 35 -6 75v8c0 37.333 2.16699 61 6.5 71s12.5 15 24.5 15zM1360 1475l18 -0.000976562
c66 0 100.667 -5.66699 104 -17c1.33301 -3.33301 0.333008 -8.66602 -3 -15.999l-645 -1407c-4.66699 -10 -10.167 -17.167 -16.5 -21.5s-18.5 -7.66602 -36.5 -9.99902s-45 -3.5 -81 -3.5h-18c-65.333 0 -99.666 5.66699 -102.999 17
c-1.33301 3.33301 -0.333008 8.66602 3 15.999l645 1407c7.33301 15.333 18.166 25 32.499 29s47.833 6 100.5 6zM1524 829.002l7.99902 0.000976562c69.333 0 104.666 -7 105.999 -21c0 -2.66699 -0.666992 -5.66699 -2 -9l-176 -432h119v102c0 12 7 20.167 21 24.5
s41.667 6.5 83 6.5h9c41.333 0 69 -2.16699 83 -6.5s21 -12.5 21 -24.5v-102h45c12 0 20.167 -6.33301 24.5 -19s6.5 -39.334 6.5 -80.001v-6c0 -39.333 -2 -63.833 -6 -73.5s-12.333 -14.5 -25 -14.5h-45v-143c0 -12 -7 -20.167 -21 -24.5s-41.667 -6.5 -83 -6.5h-9
c-41.333 0 -69 2.16699 -83 6.5s-21 12.5 -21 24.5v143h-344c-12.667 0 -21 4.83301 -25 14.5s-6 34.167 -6 73.5v4c0 33.333 10.333 73.666 31 120.999l168 412c4.66699 12.667 14.834 20.834 30.501 24.501s45.834 5.5 90.501 5.5z" />
    <glyph glyph-name="questiondown" unicode="&#xbf;" horiz-adv-x="935" 
d="M723 934c0 -47.333 -16.332 -87.5 -48.999 -120.5s-73.667 -49.5 -123 -49.5c-50 0 -91.5 16.333 -124.5 49s-49.5 73 -49.5 121c0 46.667 16.333 86.334 49 119.001s73.667 49 123 49s90.666 -16.333 123.999 -49s50 -72.334 50 -119.001zM821.001 -160l29 -53.0029
c13.333 -24.667 20 -43 20 -55s-7.33301 -23 -22 -33c-105.333 -75.333 -223.333 -113 -354 -113c-128 0 -231.167 33.167 -309.5 99.5s-117.833 156.833 -118.5 271.5c0 46 6.5 88.833 19.5 128.5s30 73.834 51 102.501s44.167 55.667 69.5 81s50.833 49.333 76.5 72
s49.167 45.167 70.5 67.5s38.833 47.166 52.5 74.499s21.167 56 22.5 86c0 10.667 6.83301 17.834 20.5 21.501s42.5 5.5 86.5 5.5h38c44 0 72.833 -1.83301 86.5 -5.5s20.5 -11.5 20.5 -23.5v-8c0 -44 -6 -84.833 -18 -122.5s-27.333 -70.167 -46 -97.5
s-39.5 -53.166 -62.5 -77.499s-46 -47.333 -69 -69s-43.833 -43.167 -62.5 -64.5s-34 -45.166 -46 -71.499s-18 -54.166 -18 -83.499c0 -44.667 14.333 -80.334 43 -107.001s71 -40 127 -40c68.667 0 141 24.667 217 74c12 8.66699 23.5 9 34.5 1s24.833 -28.333 41.5 -61z
" />
    <glyph glyph-name="Agrave" unicode="&#xc0;" horiz-adv-x="1351" 
d="M662 1475h18.001c55.333 0 91 -2 107 -6s26.667 -13 32 -27l506 -1405c5.33301 -14.667 -0.333984 -24.667 -17.001 -30c-18 -4.66699 -54.667 -7 -110 -7h-24c-57.333 0 -96.666 2.5 -117.999 7.5s-34 14.167 -38 27.5l-117 340h-471l-113 -340
c-4 -13.333 -15.667 -22.5 -35 -27.5s-57.333 -7.5 -114 -7.5h-21c-20.667 0 -37.834 0.166992 -51.501 0.5s-25.667 1 -36 2s-18 2.33301 -23 4s-8.66699 3.83398 -11 6.50098s-3.5 5.66699 -3.5 9s1 7.66602 3 12.999l499 1407c3.33301 8.66699 7.83301 15 13.5 19
s18.167 7.33301 37.5 10s48.333 4 87 4zM528.001 668l-22 -68h319l-22 72c-62 194 -107 342 -135 444c-38 -132.667 -84.667 -282 -140 -448zM453.001 2003h98c36.667 0 61.5 -1.83301 74.5 -5.5s22.167 -10.167 27.5 -19.5l217 -333
c6.66699 -12 6.16699 -20.167 -1.5 -24.5s-23.5 -6.5 -47.5 -6.5h-78c-43.333 0 -71.333 7.33301 -84 22l-266 334c-12 16.667 -5.33301 27 20 31c10 1.33301 23.333 2 40 2z" />
    <glyph glyph-name="Aacute" unicode="&#xc1;" horiz-adv-x="1351" 
d="M662 1475h18.001c55.333 0 91 -2 107 -6s26.667 -13 32 -27l506 -1405c5.33301 -14.667 -0.333984 -24.667 -17.001 -30c-18 -4.66699 -54.667 -7 -110 -7h-24c-57.333 0 -96.666 2.5 -117.999 7.5s-34 14.167 -38 27.5l-117 340h-471l-113 -340
c-4 -13.333 -15.667 -22.5 -35 -27.5s-57.333 -7.5 -114 -7.5h-21c-20.667 0 -37.834 0.166992 -51.501 0.5s-25.667 1 -36 2s-18 2.33301 -23 4s-8.66699 3.83398 -11 6.50098s-3.5 5.66699 -3.5 9s1 7.66602 3 12.999l499 1407c3.33301 8.66699 7.83301 15 13.5 19
s18.167 7.33301 37.5 10s48.333 4 87 4zM528.001 668l-22 -68h319l-22 72c-62 194 -107 342 -135 444c-38 -132.667 -84.667 -282 -140 -448zM807.001 2003h98c43.333 0 65.333 -5.66699 66 -17c0.666992 -4.66699 -1.33301 -10 -6 -16l-267 -334
c-12.667 -14.667 -40.667 -22 -84 -22h-77c-24 0 -40 2.16699 -48 6.5s-8.66699 12.5 -2 24.5l218 333c5.33301 9.33301 14.5 15.833 27.5 19.5s37.833 5.5 74.5 5.5z" />
    <glyph glyph-name="Acircumflex" unicode="&#xc2;" horiz-adv-x="1351" 
d="M662 1475h18.001c55.333 0 91 -2 107 -6s26.667 -13 32 -27l506 -1405c5.33301 -14.667 -0.333984 -24.667 -17.001 -30c-18 -4.66699 -54.667 -7 -110 -7h-24c-57.333 0 -96.666 2.5 -117.999 7.5s-34 14.167 -38 27.5l-117 340h-471l-113 -340
c-4 -13.333 -15.667 -22.5 -35 -27.5s-57.333 -7.5 -114 -7.5h-21c-20.667 0 -37.834 0.166992 -51.501 0.5s-25.667 1 -36 2s-18 2.33301 -23 4s-8.66699 3.83398 -11 6.50098s-3.5 5.66699 -3.5 9s1 7.66602 3 12.999l499 1407c3.33301 8.66699 7.83301 15 13.5 19
s18.167 7.33301 37.5 10s48.333 4 87 4zM528.001 668l-22 -68h319l-22 72c-62 194 -107 342 -135 444c-38 -132.667 -84.667 -282 -140 -448zM348.001 1751l187.004 199c12 13.333 26.5 22 43.5 26s44.833 6 83.5 6h28c38.667 0 66.5 -2 83.5 -6s31.5 -12.667 43.5 -26
l187 -199c9.33301 -10.667 12.166 -20.667 8.49902 -30s-14.834 -23.333 -33.501 -42l-21 -20c-21.333 -21.333 -36 -33.833 -44 -37.5s-18.333 -1.5 -31 6.5l-207 180l-207 -180c-12 -8 -22.333 -10.167 -31 -6.5s-23.667 16.167 -45 37.5l-20 20
c-18.667 18.667 -29.834 32.667 -33.501 42s-0.833984 19.333 8.49902 30z" />
    <glyph glyph-name="Atilde" unicode="&#xc3;" horiz-adv-x="1351" 
d="M662 1475h18.001c55.333 0 91 -2 107 -6s26.667 -13 32 -27l506 -1405c5.33301 -14.667 -0.333984 -24.667 -17.001 -30c-18 -4.66699 -54.667 -7 -110 -7h-24c-57.333 0 -96.666 2.5 -117.999 7.5s-34 14.167 -38 27.5l-117 340h-471l-113 -340
c-4 -13.333 -15.667 -22.5 -35 -27.5s-57.333 -7.5 -114 -7.5h-21c-20.667 0 -37.834 0.166992 -51.501 0.5s-25.667 1 -36 2s-18 2.33301 -23 4s-8.66699 3.83398 -11 6.50098s-3.5 5.66699 -3.5 9s1 7.66602 3 12.999l499 1407c3.33301 8.66699 7.83301 15 13.5 19
s18.167 7.33301 37.5 10s48.333 4 87 4zM528.001 668l-22 -68h319l-22 72c-62 194 -107 342 -135 444c-38 -132.667 -84.667 -282 -140 -448zM348.001 1710l-8.00195 8c-20 20 -32.333 35 -37 45s-3.33398 20.333 3.99902 31c73.333 91.333 152 137 236 137
c30 0 60.167 -6.33301 90.5 -19s57.833 -25.334 82.5 -38.001s45.334 -19 62.001 -19c36.667 0 77 22 121 66c12.667 12.667 37.334 0.333984 74.001 -36.999l8 -8c20 -20 32.333 -35 37 -45s3.33398 -20.333 -3.99902 -31c-73.333 -91.333 -152 -137 -236 -137
c-29.333 0 -59 6.33301 -89 19s-57.5 25.334 -82.5 38.001s-46.167 19 -63.5 19c-36.667 0 -77 -22 -121 -66c-12 -12.667 -36.667 -0.333984 -74 36.999z" />
    <glyph glyph-name="Adieresis" unicode="&#xc4;" horiz-adv-x="1351" 
d="M662 1475h18.001c55.333 0 91 -2 107 -6s26.667 -13 32 -27l506 -1405c5.33301 -14.667 -0.333984 -24.667 -17.001 -30c-18 -4.66699 -54.667 -7 -110 -7h-24c-57.333 0 -96.666 2.5 -117.999 7.5s-34 14.167 -38 27.5l-117 340h-471l-113 -340
c-4 -13.333 -15.667 -22.5 -35 -27.5s-57.333 -7.5 -114 -7.5h-21c-20.667 0 -37.834 0.166992 -51.501 0.5s-25.667 1 -36 2s-18 2.33301 -23 4s-8.66699 3.83398 -11 6.50098s-3.5 5.66699 -3.5 9s1 7.66602 3 12.999l499 1407c3.33301 8.66699 7.83301 15 13.5 19
s18.167 7.33301 37.5 10s48.333 4 87 4zM528.001 668l-22 -68h319l-22 72c-62 194 -107 342 -135 444c-38 -132.667 -84.667 -282 -140 -448zM303.001 1784c0 40.667 14.333 75 43 103s64.334 42 107.001 42c43.333 0 79 -14 107 -42s42 -62.333 42 -103
c0 -40 -14 -73.667 -42 -101s-63.667 -41 -107 -41c-42.667 0 -78.334 13.833 -107.001 41.5s-43 61.167 -43 100.5zM750.001 1784c0 40.667 13.667 75 41 103s62 42 104 42c44.667 0 81.5 -14 110.5 -42s43.5 -62.333 43.5 -103c0 -39.333 -14.5 -72.833 -43.5 -100.5
s-65.833 -41.5 -110.5 -41.5c-42 0 -76.667 13.667 -104 41s-41 61 -41 101z" />
    <glyph glyph-name="Aring" unicode="&#xc5;" horiz-adv-x="1351" 
d="M811 1464l514 -1427c5.33301 -14.667 -0.333984 -24.667 -17.001 -30c-18 -4.66699 -54.667 -7 -110 -7h-24c-57.333 0 -96.666 2.5 -117.999 7.5s-34 14.167 -38 27.5l-117 340h-471l-113 -340c-4 -13.333 -15.667 -22.5 -35 -27.5s-57.333 -7.5 -114 -7.5h-21
c-20.667 0 -37.834 0.166992 -51.501 0.5s-25.667 1 -36 2s-18 2.33301 -23 4s-8.66699 3.83398 -11 6.50098s-3.5 5.66699 -3.5 9s1 7.66602 3 12.999l507 1433c-28 20.667 -50 46.834 -66 78.501s-24 65.834 -24 102.501c0 62 23 114.667 69 158s101 65 165 65
s118.5 -21.5 163.5 -64.5s67.5 -95.833 67.5 -158.5c0 -38 -8.66699 -73 -26 -105s-40.666 -58.667 -69.999 -80zM528 667.998l-22 -68h319l-22 72c-62 194 -107 342 -135 444c-38 -132.667 -84.667 -282 -140 -448zM594 1649c0 -23.333 8 -42.833 24 -58.5
s35.333 -23.5 58 -23.5c22 0 40.5 8 55.5 24s22.5 35.333 22.5 58c0 22 -7.5 40.833 -22.5 56.5s-33.5 23.5 -55.5 23.5c-22.667 0 -42 -7.5 -58 -22.5s-24 -34.167 -24 -57.5z" />
    <glyph glyph-name="AE" unicode="&#xc6;" horiz-adv-x="2000" 
d="M989 1475l863.998 0.000976562c15.333 0 25 -5.66699 29 -17s6 -42 6 -92v-16c0 -48 -2.33301 -78.833 -7 -92.5s-14 -20.5 -28 -20.5h-563v-373h477c15.333 0 25 -5.5 29 -16.5s6 -41.5 6 -91.5v-17c0 -48 -2.33301 -78.667 -7 -92s-14 -20 -28 -20h-477v-389h572
c15.333 0 24.833 -5.5 28.5 -16.5s5.5 -41.833 5.5 -92.5v-16c0 -48.667 -2.16699 -79.667 -6.5 -93s-13.5 -20 -27.5 -20h-777c-40 0 -65.333 1.83301 -76 5.5s-16 12.167 -16 25.5v325h-485l-191 -321c-8 -14 -22.333 -23.333 -43 -28s-56.667 -7 -108 -7h-51
c-73.333 0 -111.666 6 -114.999 18c-0.666992 4 1.33301 9.66699 6 17l866 1407c8.66699 13.333 19.834 22.166 33.501 26.499s41.5 6.5 83.5 6.5zM787.998 827.001l-147 -247.001h352v620c-26.667 -65.333 -95 -189.666 -205 -372.999z" />
    <glyph glyph-name="Ccedilla" unicode="&#xc7;" horiz-adv-x="1200" 
d="M1106 1264l-26.9971 -46.9932c-19.333 -34.667 -33 -55.834 -41 -63.501s-18 -7.83398 -30 -0.500977c-48.667 32.667 -93.167 56.167 -133.5 70.5s-84.833 21.5 -133.5 21.5c-114.667 0 -203.667 -44 -267 -132s-95 -215.333 -95 -382
c0 -160.667 30.167 -284.167 90.5 -370.5s151.5 -129.5 273.5 -129.5c94.667 0 187 24 277 72c16 7.33301 27.667 7.66602 35 0.999023s19 -26.667 35 -60l22 -49c11.333 -24.667 18.666 -42.5 21.999 -53.5s3.5 -20.333 0.5 -28s-10.5 -14.834 -22.5 -21.501
c-46.667 -28.667 -105.334 -53.5 -176.001 -74.5s-139.667 -33.5 -207 -37.5l-4 -56c66 -2 118.667 -18.833 158 -50.5s59 -78.834 59 -141.501c0 -62 -22.333 -114.333 -67 -157s-109 -64 -193 -64c-64.667 0 -118 8.66699 -160 26
c-8.66699 3.33301 -13.5 9.16602 -14.5 17.499s1.83301 26.5 8.5 54.5l6 22c6.66699 25.333 12.667 41.666 18 48.999s14.333 9 27 5c31.333 -8.66699 63 -13 95 -13c52.667 0 79 20 79 60c0 40.667 -30.667 61 -92 61c-42 0 -83 -2.66699 -123 -8l29 209
c-154 29.333 -272.667 107.666 -356 234.999s-125 292 -125 494c0 153.333 25.5 288 76.5 404s125.5 206.333 223.5 271s213 97 345 97c152.667 0 283.667 -41 393 -123c17.333 -14 25.666 -26.667 24.999 -38s-11 -34.666 -31 -69.999z" />
    <glyph glyph-name="Egrave" unicode="&#xc8;" horiz-adv-x="1157" 
d="M242 1475h768c15.333 0 24.833 -5.5 28.5 -16.5s5.5 -41.833 5.5 -92.5v-16c0 -48.667 -2.16699 -79.667 -6.5 -93s-13.5 -20 -27.5 -20h-564v-373h478c15.333 0 24.833 -5.5 28.5 -16.5s5.5 -41.5 5.5 -91.5v-17c0 -48.667 -2.16699 -79.5 -6.5 -92.5
s-13.5 -19.5 -27.5 -19.5h-478v-389h572c15.333 0 25 -5.66699 29 -17s6 -42 6 -92v-16c0 -48 -2.33301 -78.833 -7 -92.5s-14 -20.5 -28 -20.5h-776c-40 -0 -65.333 1.83301 -76 5.5s-16 12.167 -16 25.5v1413c0 13.333 5.33301 21.833 16 25.5s36 5.5 76 5.5zM385 2003h98
c36.667 0 61.667 -1.83301 75 -5.5s22.666 -10.167 27.999 -19.5l217 -333c6.66699 -12 6.16699 -20.167 -1.5 -24.5s-23.5 -6.5 -47.5 -6.5h-78c-43.333 0 -71.333 7.33301 -84 22l-266 334c-11.333 16.667 -5.66602 26.667 17.001 30c10 2 24 3 42 3z" />
    <glyph glyph-name="Eacute" unicode="&#xc9;" horiz-adv-x="1157" 
d="M242 1475h768c15.333 0 24.833 -5.5 28.5 -16.5s5.5 -41.833 5.5 -92.5v-16c0 -48.667 -2.16699 -79.667 -6.5 -93s-13.5 -20 -27.5 -20h-564v-373h478c15.333 0 24.833 -5.5 28.5 -16.5s5.5 -41.5 5.5 -91.5v-17c0 -48.667 -2.16699 -79.5 -6.5 -92.5
s-13.5 -19.5 -27.5 -19.5h-478v-389h572c15.333 0 25 -5.66699 29 -17s6 -42 6 -92v-16c0 -48 -2.33301 -78.833 -7 -92.5s-14 -20.5 -28 -20.5h-776c-40 -0 -65.333 1.83301 -76 5.5s-16 12.167 -16 25.5v1413c0 13.333 5.33301 21.833 16 25.5s36 5.5 76 5.5zM729 2003h98
c43.333 0 65.333 -5.66699 66 -17c0.666992 -4.66699 -1.33301 -10 -6 -16l-266 -334c-12.667 -14.667 -40.667 -22 -84 -22h-78c-24 0 -39.833 2.16699 -47.5 6.5s-8.16699 12.5 -1.5 24.5l217 333c5.33301 9.33301 14.5 15.833 27.5 19.5s37.833 5.5 74.5 5.5z" />
    <glyph glyph-name="Ecircumflex" unicode="&#xca;" horiz-adv-x="1157" 
d="M242 1475h768c15.333 0 24.833 -5.5 28.5 -16.5s5.5 -41.833 5.5 -92.5v-16c0 -48.667 -2.16699 -79.667 -6.5 -93s-13.5 -20 -27.5 -20h-564v-373h478c15.333 0 24.833 -5.5 28.5 -16.5s5.5 -41.5 5.5 -91.5v-17c0 -48.667 -2.16699 -79.5 -6.5 -92.5
s-13.5 -19.5 -27.5 -19.5h-478v-389h572c15.333 0 25 -5.66699 29 -17s6 -42 6 -92v-16c0 -48 -2.33301 -78.833 -7 -92.5s-14 -20.5 -28 -20.5h-776c-40 -0 -65.333 1.83301 -76 5.5s-16 12.167 -16 25.5v1413c0 13.333 5.33301 21.833 16 25.5s36 5.5 76 5.5zM276 1751
l187.004 199c12 13.333 26.5 22 43.5 26s44.833 6 83.5 6h28c38.667 0 66.5 -2 83.5 -6s31.5 -12.667 43.5 -26l187 -199c9.33301 -10.667 12.166 -20.667 8.49902 -30s-14.834 -23.333 -33.501 -42l-20 -20c-21.333 -21.333 -36.333 -33.833 -45 -37.5s-19 -1.5 -31 6.5
l-207 180l-207 -180c-12.667 -8 -23 -10.167 -31 -6.5s-22.667 16.167 -44 37.5l-21 20c-18.667 18.667 -29.834 32.667 -33.501 42s-0.833984 19.333 8.49902 30z" />
    <glyph glyph-name="Edieresis" unicode="&#xcb;" horiz-adv-x="1157" 
d="M242 1475h768c15.333 0 24.833 -5.5 28.5 -16.5s5.5 -41.833 5.5 -92.5v-16c0 -48.667 -2.16699 -79.667 -6.5 -93s-13.5 -20 -27.5 -20h-564v-373h478c15.333 0 24.833 -5.5 28.5 -16.5s5.5 -41.5 5.5 -91.5v-17c0 -48.667 -2.16699 -79.5 -6.5 -92.5
s-13.5 -19.5 -27.5 -19.5h-478v-389h572c15.333 0 25 -5.66699 29 -17s6 -42 6 -92v-16c0 -48 -2.33301 -78.833 -7 -92.5s-14 -20.5 -28 -20.5h-776c-40 -0 -65.333 1.83301 -76 5.5s-16 12.167 -16 25.5v1413c0 13.333 5.33301 21.833 16 25.5s36 5.5 76 5.5zM209 1784
c0 40.667 14.167 75 42.5 103s63.833 42 106.5 42c43.333 0 79.166 -14 107.499 -42s42.5 -62.333 42.5 -103c0 -39.333 -14.167 -72.833 -42.5 -100.5s-64.166 -41.5 -107.499 -41.5c-42.667 0 -78.167 13.833 -106.5 41.5s-42.5 61.167 -42.5 100.5zM655 1784
c0 40.667 13.666 75 40.999 103s62.333 42 105 42c44.667 0 81.334 -14 110.001 -42s43 -62.333 43 -103c0 -39.333 -14.5 -72.833 -43.5 -100.5s-65.5 -41.5 -109.5 -41.5c-42 0 -76.833 13.667 -104.5 41s-41.5 61 -41.5 101z" />
    <glyph glyph-name="Igrave" unicode="&#xcc;" horiz-adv-x="829" 
d="M133 1475h563c6.66699 0 11.667 -2.16699 15 -6.5s5.83301 -13.833 7.5 -28.5s2.5 -36.667 2.5 -66v-10c0 -29.333 -0.833008 -51.333 -2.5 -66s-4.16699 -24 -7.5 -28s-8.33301 -6 -15 -6h-133v-1053h133c6.66699 0 11.667 -2 15 -6s5.83301 -13.333 7.5 -28
s2.5 -36.667 2.5 -66v-11c0 -29.333 -0.833008 -51.333 -2.5 -66s-4.16699 -24 -7.5 -28s-8.33301 -6 -15 -6h-563c-9.33301 0 -15.666 6 -18.999 18s-5 39.333 -5 82v11c0 43.333 1.66699 70.833 5 82.5s9.66602 17.5 18.999 17.5h133v1053h-133
c-9.33301 0 -15.666 6 -18.999 18s-5 39.333 -5 82v10c0 43.333 1.66699 71 5 83s9.66602 18 18.999 18zM221 2003h98c36.667 0 61.667 -1.83301 75 -5.5s22.666 -10.167 27.999 -19.5l217 -333c6.66699 -12 6.16699 -20.167 -1.5 -24.5s-23.5 -6.5 -47.5 -6.5h-78
c-43.333 0 -71.333 7.33301 -84 22l-266 334c-11.333 16.667 -5.66602 26.667 17.001 30c10 2 24 3 42 3z" />
    <glyph glyph-name="Iacute" unicode="&#xcd;" horiz-adv-x="829" 
d="M133 1475h563c6.66699 0 11.667 -2.16699 15 -6.5s5.83301 -13.833 7.5 -28.5s2.5 -36.667 2.5 -66v-10c0 -29.333 -0.833008 -51.333 -2.5 -66s-4.16699 -24 -7.5 -28s-8.33301 -6 -15 -6h-133v-1053h133c6.66699 0 11.667 -2 15 -6s5.83301 -13.333 7.5 -28
s2.5 -36.667 2.5 -66v-11c0 -29.333 -0.833008 -51.333 -2.5 -66s-4.16699 -24 -7.5 -28s-8.33301 -6 -15 -6h-563c-9.33301 0 -15.666 6 -18.999 18s-5 39.333 -5 82v11c0 43.333 1.66699 70.833 5 82.5s9.66602 17.5 18.999 17.5h133v1053h-133
c-9.33301 0 -15.666 6 -18.999 18s-5 39.333 -5 82v10c0 43.333 1.66699 71 5 83s9.66602 18 18.999 18zM528 2003h98.999c42.667 0 64.334 -5.66699 65.001 -17c0.666992 -4 -1.33301 -9.33301 -6 -16l-266 -334c-12.667 -14.667 -40.667 -22 -84 -22h-78
c-24 0 -39.833 2.16699 -47.5 6.5s-8.16699 12.5 -1.5 24.5l217 333c5.33301 9.33301 14.5 15.833 27.5 19.5s37.833 5.5 74.5 5.5z" />
    <glyph glyph-name="Icircumflex" unicode="&#xce;" horiz-adv-x="829" 
d="M133 1475h563c6.66699 0 11.667 -2.16699 15 -6.5s5.83301 -13.833 7.5 -28.5s2.5 -36.667 2.5 -66v-10c0 -29.333 -0.833008 -51.333 -2.5 -66s-4.16699 -24 -7.5 -28s-8.33301 -6 -15 -6h-133v-1053h133c6.66699 0 11.667 -2 15 -6s5.83301 -13.333 7.5 -28
s2.5 -36.667 2.5 -66v-11c0 -29.333 -0.833008 -51.333 -2.5 -66s-4.16699 -24 -7.5 -28s-8.33301 -6 -15 -6h-563c-9.33301 0 -15.666 6 -18.999 18s-5 39.333 -5 82v11c0 43.333 1.66699 70.833 5 82.5s9.66602 17.5 18.999 17.5h133v1053h-133
c-9.33301 0 -15.666 6 -18.999 18s-5 39.333 -5 82v10c0 43.333 1.66699 71 5 83s9.66602 18 18.999 18zM88 1751l186.003 199.001c12 13.333 26.5 22 43.5 26s44.833 6 83.5 6h29c38.667 0 66.5 -2 83.5 -6s31.5 -12.667 43.5 -26l186 -199
c9.33301 -10.667 12.166 -20.834 8.49902 -30.501s-14.5 -23.5 -32.5 -41.5l-21 -20c-21.333 -21.333 -36 -33.833 -44 -37.5s-18.333 -1.5 -31 6.5l-207 180l-207 -180c-12 -8 -22.333 -10.167 -31 -6.5s-23.667 16.167 -45 37.5l-20 20
c-18.667 18.667 -29.834 32.667 -33.501 42s-0.833984 19.333 8.49902 30z" />
    <glyph glyph-name="Idieresis" unicode="&#xcf;" horiz-adv-x="829" 
d="M133 1475h563c6.66699 0 11.667 -2.16699 15 -6.5s5.83301 -13.833 7.5 -28.5s2.5 -36.667 2.5 -66v-10c0 -29.333 -0.833008 -51.333 -2.5 -66s-4.16699 -24 -7.5 -28s-8.33301 -6 -15 -6h-133v-1053h133c6.66699 0 11.667 -2 15 -6s5.83301 -13.333 7.5 -28
s2.5 -36.667 2.5 -66v-11c0 -29.333 -0.833008 -51.333 -2.5 -66s-4.16699 -24 -7.5 -28s-8.33301 -6 -15 -6h-563c-9.33301 0 -15.666 6 -18.999 18s-5 39.333 -5 82v11c0 43.333 1.66699 70.833 5 82.5s9.66602 17.5 18.999 17.5h133v1053h-133
c-9.33301 0 -15.666 6 -18.999 18s-5 39.333 -5 82v10c0 43.333 1.66699 71 5 83s9.66602 18 18.999 18zM43 1784c0 40.667 14.333 75 43 103s64.334 42 107.001 42c43.333 0 79 -14 107 -42s42 -62.333 42 -103c0 -40 -14 -73.667 -42 -101s-63.667 -41 -107 -41
c-42.667 0 -78.334 13.833 -107.001 41.5s-43 61.167 -43 100.5zM489 1784c0 40.667 13.666 75 40.999 103s62.333 42 105 42c44.667 0 81.334 -14 110.001 -42s43 -62.333 43 -103c0 -39.333 -14.5 -72.833 -43.5 -100.5s-65.5 -41.5 -109.5 -41.5
c-42 0 -76.833 13.667 -104.5 41s-41.5 61 -41.5 101z" />
    <glyph glyph-name="Eth" unicode="&#xd0;" horiz-adv-x="1398" 
d="M266 1475l307 -0.00195312c261.333 0 450 -61 566 -183c58 -60 103.5 -137.167 136.5 -231.5s49.5 -200.166 49.5 -317.499c0 -256 -71.667 -451.667 -215 -587c-60 -56.667 -132.667 -96.834 -218 -120.501s-188 -35.5 -308 -35.5h-318c-40 0 -65.333 1.83301 -76 5.5
s-16 12.167 -16 25.5v602h-133c-10.667 0 -18.167 6.33301 -22.5 19s-6.5 40.334 -6.5 83.001v21c0 42.667 2.16699 70.334 6.5 83.001s11.833 19 22.5 19h133v586c0 13.333 5.33301 21.833 16 25.5s36 5.5 76 5.5zM471 1237v-379h197c10.667 0 18 -6.33301 22 -19
s6 -40.334 6 -83.001v-21c0 -42.667 -2 -70.334 -6 -83.001s-11.333 -19 -22 -19h-197v-395h107c143.333 0 249 31.333 317 94c84.667 80.667 127 216.334 127 407.001c0 168.667 -32 291.667 -96 369c-37.333 44.667 -83 77.334 -137 98.001s-121.667 31 -203 31h-115z" />
    <glyph glyph-name="Ntilde" unicode="&#xd1;" horiz-adv-x="1445" 
d="M266 1475l9.99805 0.000976562c54 0 89.5 -2.33301 106.5 -7s29.5 -13.334 37.5 -26.001l368 -561c82.667 -127.333 138.334 -215 167.001 -263s53.667 -98.333 75 -151c-8 98 -12 255.667 -12 473v504c0 12 8.16699 20.167 24.5 24.5s51.833 6.5 106.5 6.5h14
c52 0 87.167 -2.16699 105.5 -6.5s27.5 -12.5 27.5 -24.5v-1413c0 -13.333 -6.5 -21.833 -19.5 -25.5s-45.833 -5.5 -98.5 -5.5h-13c-48.667 0 -82 2.16699 -100 6.5s-31 13.166 -39 26.499l-369 561c-79.333 120.667 -135.833 209.667 -169.5 267s-58.167 107 -73.5 149
c9.33301 -89.333 14 -247.666 14 -474.999v-504c0 -12.667 -8.66699 -21 -26 -25s-52.333 -6 -105 -6h-12c-57.333 -0 -94.166 1.83301 -110.499 5.5s-24.5 12.167 -24.5 25.5v1413c0 14 5.83301 22.667 17.5 26s44.5 5 98.5 5zM409.998 1710l-9.00391 8
c-20 20 -32.167 35 -36.5 45s-2.83301 20.333 4.5 31c73.333 91.333 151.666 137 234.999 137c30 0 60.333 -6.33301 91 -19s58.334 -25.334 83.001 -38.001s45.334 -19 62.001 -19c36.667 0 77 22 121 66c4 3.33301 8.16699 5.33301 12.5 6s11.666 -2.5 21.999 -9.5
s23.166 -18.167 38.499 -33.5l8 -8c20 -20 32.333 -35 37 -45s3.33398 -20.333 -3.99902 -31c-73.333 -91.333 -151.666 -137 -234.999 -137c-29.333 0 -59 6.33301 -89 19s-57.667 25.334 -83 38.001s-46.666 19 -63.999 19c-36.667 0 -77 -22 -121 -66
c-4 -3.33301 -8.16699 -5.33301 -12.5 -6s-11.666 2.5 -21.999 9.5s-23.166 18.167 -38.499 33.5z" />
    <glyph glyph-name="Ograve" unicode="&#xd2;" horiz-adv-x="1427" 
d="M729 1247c-114 0 -200.833 -44.668 -260.5 -134.001s-89.5 -218.666 -89.5 -387.999c0 -332 106.333 -498 319 -498c114 0 201 44.833 261 134.5s90 219.167 90 388.5c0 331.333 -106.667 497 -320 497zM735 1495c93.333 0 177.168 -14.167 251.501 -42.5
s139.166 -71.666 194.499 -129.999s98 -135.166 128 -230.499s45 -206.666 45 -333.999c0 -158.667 -24.5 -295.667 -73.5 -411s-123.5 -205.333 -223.5 -270s-221.667 -97 -365 -97c-93.333 0 -177 14.167 -251 42.5s-138.667 71.666 -194 129.999
s-98 135.166 -128 230.499s-45 206.666 -45 333.999c0 158.667 24.333 295.667 73 411s123 205.333 223 270s221.667 97 365 97zM520.002 2003h98c36.667 0 61.667 -1.83301 75 -5.5s22.666 -10.167 27.999 -19.5l217 -333c6.66699 -12 6.16699 -20.167 -1.5 -24.5
s-23.5 -6.5 -47.5 -6.5h-78c-43.333 0 -71.333 7.33301 -84 22l-266 334c-11.333 16.667 -5.66602 26.667 17.001 30c10 2 24 3 42 3z" />
    <glyph glyph-name="Oacute" unicode="&#xd3;" horiz-adv-x="1427" 
d="M729 1247c-114 0 -200.833 -44.668 -260.5 -134.001s-89.5 -218.666 -89.5 -387.999c0 -332 106.333 -498 319 -498c114 0 201 44.833 261 134.5s90 219.167 90 388.5c0 331.333 -106.667 497 -320 497zM735 1495c93.333 0 177.168 -14.167 251.501 -42.5
s139.166 -71.666 194.499 -129.999s98 -135.166 128 -230.499s45 -206.666 45 -333.999c0 -158.667 -24.5 -295.667 -73.5 -411s-123.5 -205.333 -223.5 -270s-221.667 -97 -365 -97c-93.333 0 -177 14.167 -251 42.5s-138.667 71.666 -194 129.999
s-98 135.166 -128 230.499s-45 206.666 -45 333.999c0 158.667 24.333 295.667 73 411s123 205.333 223 270s221.667 97 365 97zM825.002 2003h98.999c42.667 0 64.334 -5.66699 65.001 -17c0.666992 -4 -1.33301 -9.33301 -6 -16l-266 -334
c-12.667 -14.667 -40.667 -22 -84 -22h-78c-24 0 -39.833 2.16699 -47.5 6.5s-8.16699 12.5 -1.5 24.5l217 333c5.33301 9.33301 14.5 15.833 27.5 19.5s37.833 5.5 74.5 5.5z" />
    <glyph glyph-name="Ocircumflex" unicode="&#xd4;" horiz-adv-x="1427" 
d="M729 1247c-114 0 -200.833 -44.668 -260.5 -134.001s-89.5 -218.666 -89.5 -387.999c0 -332 106.333 -498 319 -498c114 0 201 44.833 261 134.5s90 219.167 90 388.5c0 331.333 -106.667 497 -320 497zM735 1495c93.333 0 177.168 -14.167 251.501 -42.5
s139.166 -71.666 194.499 -129.999s98 -135.166 128 -230.499s45 -206.666 45 -333.999c0 -158.667 -24.5 -295.667 -73.5 -411s-123.5 -205.333 -223.5 -270s-221.667 -97 -365 -97c-93.333 0 -177 14.167 -251 42.5s-138.667 71.666 -194 129.999
s-98 135.166 -128 230.499s-45 206.666 -45 333.999c0 158.667 24.333 295.667 73 411s123 205.333 223 270s221.667 97 365 97zM385.002 1751l186.003 199.001c12 13.333 26.5 22 43.5 26s44.833 6 83.5 6h29c38.667 0 66.5 -2 83.5 -6s31.5 -12.667 43.5 -26l186 -199
c9.33301 -10.667 12.166 -20.834 8.49902 -30.501s-14.5 -23.5 -32.5 -41.5l-21 -20c-21.333 -21.333 -36 -33.833 -44 -37.5s-18.333 -1.5 -31 6.5l-207 180l-207 -180c-12 -8 -22.333 -10.167 -31 -6.5s-23.667 16.167 -45 37.5l-20 20
c-18.667 18.667 -29.834 32.667 -33.501 42s-0.833984 19.333 8.49902 30z" />
    <glyph glyph-name="Otilde" unicode="&#xd5;" horiz-adv-x="1427" 
d="M729 1247c-114 0 -200.833 -44.668 -260.5 -134.001s-89.5 -218.666 -89.5 -387.999c0 -332 106.333 -498 319 -498c114 0 201 44.833 261 134.5s90 219.167 90 388.5c0 331.333 -106.667 497 -320 497zM735 1495c93.333 0 177.168 -14.167 251.501 -42.5
s139.166 -71.666 194.499 -129.999s98 -135.166 128 -230.499s45 -206.666 45 -333.999c0 -158.667 -24.5 -295.667 -73.5 -411s-123.5 -205.333 -223.5 -270s-221.667 -97 -365 -97c-93.333 0 -177 14.167 -251 42.5s-138.667 71.666 -194 129.999
s-98 135.166 -128 230.499s-45 206.666 -45 333.999c0 158.667 24.333 295.667 73 411s123 205.333 223 270s221.667 97 365 97zM401.002 1710l-8 8c-20 20 -32.333 35 -37 45s-3.33398 20.333 3.99902 31c73.333 91.333 152 137 236 137c30 0 60.167 -6.33301 90.5 -19
s57.833 -25.334 82.5 -38.001s45.334 -19 62.001 -19c36.667 0 77 22 121 66c12 12.667 36.667 0.333984 74 -36.999l8 -8c20 -20 32.333 -35 37 -45s3.33398 -20.333 -3.99902 -31c-73.333 -91.333 -152 -137 -236 -137c-29.333 0 -59 6.33301 -89 19
s-57.5 25.334 -82.5 38.001s-46.167 19 -63.5 19c-36.667 0 -77 -22 -121 -66c-12.667 -12.667 -37.334 -0.333984 -74.001 36.999z" />
    <glyph glyph-name="Odieresis" unicode="&#xd6;" horiz-adv-x="1427" 
d="M729 1247c-114 0 -200.833 -44.668 -260.5 -134.001s-89.5 -218.666 -89.5 -387.999c0 -332 106.333 -498 319 -498c114 0 201 44.833 261 134.5s90 219.167 90 388.5c0 331.333 -106.667 497 -320 497zM735 1495c93.333 0 177.168 -14.167 251.501 -42.5
s139.166 -71.666 194.499 -129.999s98 -135.166 128 -230.499s45 -206.666 45 -333.999c0 -158.667 -24.5 -295.667 -73.5 -411s-123.5 -205.333 -223.5 -270s-221.667 -97 -365 -97c-93.333 0 -177 14.167 -251 42.5s-138.667 71.666 -194 129.999
s-98 135.166 -128 230.499s-45 206.666 -45 333.999c0 158.667 24.333 295.667 73 411s123 205.333 223 270s221.667 97 365 97zM340.002 1784c0 40.667 14.167 75 42.5 103s63.833 42 106.5 42c43.333 0 79.166 -14 107.499 -42s42.5 -62.333 42.5 -103
c0 -39.333 -14.167 -72.833 -42.5 -100.5s-64.166 -41.5 -107.499 -41.5c-42.667 0 -78.167 13.833 -106.5 41.5s-42.5 61.167 -42.5 100.5zM786.002 1784c0 40.667 13.666 75 40.999 103s62.333 42 105 42c44.667 0 81.334 -14 110.001 -42s43 -62.333 43 -103
c0 -39.333 -14.5 -72.833 -43.5 -100.5s-65.5 -41.5 -109.5 -41.5c-42.667 0 -77.667 13.667 -105 41s-41 61 -41 101z" />
    <glyph glyph-name="multiply" unicode="&#xd7;" 
d="M238 1057l20 20.002c20.667 21.333 37 36.666 49 45.999s21 14 27 14s11.333 -2.33301 16 -7l254 -253l254 256c6 8 15.333 8.5 28 1.5s34 -25.5 64 -55.5l21 -20c21.333 -20.667 36.666 -37 45.999 -49s14 -21 14 -27s-2.33301 -11.333 -7 -16l-256 -256l256 -254
c4.66699 -4.66699 7 -10 7 -16s-4.66699 -15 -14 -27s-24.666 -28.333 -45.999 -49l-21 -21c-30 -30 -51.5 -48.5 -64.5 -55.5s-22.167 -6.16699 -27.5 2.5l-254 256l-254 -254c-4.66699 -4.66699 -10 -7 -16 -7s-15 4.66699 -27 14s-28.333 24.666 -49 45.999l-20 21
c-30 30 -48.5 51.333 -55.5 64s-6.5 22 1.5 28l254 252l-254 254c-8 6 -8.5 15.333 -1.5 28s25.5 34 55.5 64z" />
    <glyph glyph-name="Oslash" unicode="&#xd8;" horiz-adv-x="1427" 
d="M961 1462l63.002 116.998c8.66699 15.333 18.834 22.833 30.501 22.5s34.834 -8.5 69.501 -24.5l27 -12c37.333 -16.667 60.166 -30 68.499 -40s8.16602 -21.333 -0.500977 -34l-74 -135c139.333 -124.667 209 -324 209 -598c0 -158.667 -24.5 -295.667 -73.5 -411
s-123.5 -205.333 -223.5 -270s-221.667 -97 -365 -97c-100.667 0 -190.667 16.333 -270 49l-72 -133c-8.66699 -15.333 -18.334 -22.666 -29.001 -21.999s-34.334 9.33398 -71.001 26.001l-27 12c-35.333 16.667 -56.833 29.5 -64.5 38.5s-8.5 20.167 -2.5 33.5l92 168
c-116 124.667 -174 313 -174 565c0 158.667 24.333 295.667 73 411s123 205.333 223 270s221.667 97 365 97c84 0 159.333 -11 226 -33zM993.002 1077l-444 -815c40 -23.333 89.667 -35 149 -35c114 0 201 44.833 261 134.5s90 219.167 90 388.5
c0 139.333 -18.667 248.333 -56 327zM412.002 452.998l422 778c-33.333 10.667 -68.333 16 -105 16c-114 0 -200.833 -44.667 -260.5 -134s-89.5 -218.666 -89.5 -387.999c0 -112.667 11 -203.334 33 -272.001z" />
    <glyph glyph-name="Ugrave" unicode="&#xd9;" horiz-adv-x="1417" 
d="M276 1475h23.0029c54 0 90.667 -2.16699 110 -6.5s29 -12.5 29 -24.5v-887c0 -125.333 26 -214 78 -266c42.667 -42.667 107 -64 193 -64c82.667 0 148 24 196 72c53.333 55.333 80 141.333 80 258v887c0 12 8.66699 20.167 26 24.5s53.666 6.5 108.999 6.5h17
c54 0 90.667 -2.16699 110 -6.5s29 -12.5 29 -24.5v-846c0 -112.667 -11.167 -206.167 -33.5 -280.5s-57.5 -136.5 -105.5 -186.5c-96.667 -100.667 -242.334 -151 -437.001 -151c-200.667 0 -346.667 51.667 -438 155c-41.333 46.667 -71.833 102.667 -91.5 168
s-29.5 149.333 -29.5 252v889c0 12 8.66699 20.167 26 24.5s53.666 6.5 108.999 6.5zM479.003 2003h98.999c36.667 0 61.5 -1.83301 74.5 -5.5s22.167 -10.167 27.5 -19.5l217 -333c6.66699 -12 6.16699 -20.167 -1.5 -24.5s-23.5 -6.5 -47.5 -6.5h-78
c-43.333 0 -71.333 7.33301 -84 22l-266 334c-11.333 16.667 -5.66602 26.667 17.001 30c10 2 24 3 42 3z" />
    <glyph glyph-name="Uacute" unicode="&#xda;" horiz-adv-x="1417" 
d="M276 1475h23.0029c54 0 90.667 -2.16699 110 -6.5s29 -12.5 29 -24.5v-887c0 -125.333 26 -214 78 -266c42.667 -42.667 107 -64 193 -64c82.667 0 148 24 196 72c53.333 55.333 80 141.333 80 258v887c0 12 8.66699 20.167 26 24.5s53.666 6.5 108.999 6.5h17
c54 0 90.667 -2.16699 110 -6.5s29 -12.5 29 -24.5v-846c0 -112.667 -11.167 -206.167 -33.5 -280.5s-57.5 -136.5 -105.5 -186.5c-96.667 -100.667 -242.334 -151 -437.001 -151c-200.667 0 -346.667 51.667 -438 155c-41.333 46.667 -71.833 102.667 -91.5 168
s-29.5 149.333 -29.5 252v889c0 12 8.66699 20.167 26 24.5s53.666 6.5 108.999 6.5zM848.003 2003h98.001c43.333 0 65.333 -5.66699 66 -17c0.666992 -4.66699 -1.33301 -10 -6 -16l-267 -334c-12.667 -14.667 -40.667 -22 -84 -22h-77c-24 0 -40 2.16699 -48 6.5
s-8.66699 12.5 -2 24.5l217 333c5.33301 9.33301 14.666 15.833 27.999 19.5s38.333 5.5 75 5.5z" />
    <glyph glyph-name="Ucircumflex" unicode="&#xdb;" horiz-adv-x="1417" 
d="M276 1475h23.0029c54 0 90.667 -2.16699 110 -6.5s29 -12.5 29 -24.5v-887c0 -125.333 26 -214 78 -266c42.667 -42.667 107 -64 193 -64c82.667 0 148 24 196 72c53.333 55.333 80 141.333 80 258v887c0 12 8.66699 20.167 26 24.5s53.666 6.5 108.999 6.5h17
c54 0 90.667 -2.16699 110 -6.5s29 -12.5 29 -24.5v-846c0 -112.667 -11.167 -206.167 -33.5 -280.5s-57.5 -136.5 -105.5 -186.5c-96.667 -100.667 -242.334 -151 -437.001 -151c-200.667 0 -346.667 51.667 -438 155c-41.333 46.667 -71.833 102.667 -91.5 168
s-29.5 149.333 -29.5 252v889c0 12 8.66699 20.167 26 24.5s53.666 6.5 108.999 6.5zM381.003 1751l186.003 199.001c12 13.333 26.5 22 43.5 26s44.833 6 83.5 6h29c38.667 0 66.5 -2 83.5 -6s31.5 -12.667 43.5 -26l186 -199
c9.33301 -10.667 12.166 -20.834 8.49902 -30.501s-14.5 -23.5 -32.5 -41.5l-21 -20c-21.333 -21.333 -36.333 -33.833 -45 -37.5s-19 -1.5 -31 6.5l-206 180l-207 -180c-12 -8 -22.333 -10.167 -31 -6.5s-23.667 16.167 -45 37.5l-20 20
c-18.667 18.667 -29.834 32.667 -33.501 42s-0.833984 19.333 8.49902 30z" />
    <glyph glyph-name="Udieresis" unicode="&#xdc;" horiz-adv-x="1417" 
d="M276 1475h23.0029c54 0 90.667 -2.16699 110 -6.5s29 -12.5 29 -24.5v-887c0 -125.333 26 -214 78 -266c42.667 -42.667 107 -64 193 -64c82.667 0 148 24 196 72c53.333 55.333 80 141.333 80 258v887c0 12 8.66699 20.167 26 24.5s53.666 6.5 108.999 6.5h17
c54 0 90.667 -2.16699 110 -6.5s29 -12.5 29 -24.5v-846c0 -112.667 -11.167 -206.167 -33.5 -280.5s-57.5 -136.5 -105.5 -186.5c-96.667 -100.667 -242.334 -151 -437.001 -151c-200.667 0 -346.667 51.667 -438 155c-41.333 46.667 -71.833 102.667 -91.5 168
s-29.5 149.333 -29.5 252v889c0 12 8.66699 20.167 26 24.5s53.666 6.5 108.999 6.5zM336.003 1784c0 40.667 14.167 75 42.5 103s63.833 42 106.5 42c43.333 0 79.166 -14 107.499 -42s42.5 -62.333 42.5 -103c0 -39.333 -14.167 -72.833 -42.5 -100.5
s-64.166 -41.5 -107.499 -41.5c-42.667 0 -78.167 13.833 -106.5 41.5s-42.5 61.167 -42.5 100.5zM782.003 1784c0 40.667 13.666 75 40.999 103s62.333 42 105 42c44.667 0 81.334 -14 110.001 -42s43 -62.333 43 -103c0 -39.333 -14.5 -72.833 -43.5 -100.5
s-65.5 -41.5 -109.5 -41.5c-42.667 0 -77.667 13.667 -105 41s-41 61 -41 101z" />
    <glyph glyph-name="Yacute" unicode="&#xdd;" horiz-adv-x="1210" 
d="M154 1475l46.999 -0.000976562c55.333 0 92.833 -2.33301 112.5 -7s32.5 -13.334 38.5 -26.001l148 -307c56.667 -117.333 98.334 -217 125.001 -299c45.333 124.667 85.333 224.334 120 299.001l144 309c5.33301 12.667 15.833 21 31.5 25s50.167 6 103.5 6h45
c74.667 0 114.334 -5.66699 119.001 -17c2 -3.33301 1.33301 -8.66602 -2 -15.999l-434 -869v-542c0 -12.667 -9.5 -21 -28.5 -25s-56.167 -6 -111.5 -6h-22c-56.667 0 -93.334 2 -110.001 6s-25 12.333 -25 25v542l-430 867c-6.66699 14 -1.66699 23.333 15 28
c18.667 4.66699 56.667 7 114 7zM820.999 2003h98.999c42.667 0 64.334 -5.66699 65.001 -17c0.666992 -4 -1.33301 -9.33301 -6 -16l-266 -334c-12.667 -14.667 -40.667 -22 -84 -22h-78c-24 0 -39.833 2.16699 -47.5 6.5s-8.16699 12.5 -1.5 24.5l217 333
c5.33301 9.33301 14.5 15.833 27.5 19.5s37.833 5.5 74.5 5.5z" />
    <glyph glyph-name="Thorn" unicode="&#xde;" horiz-adv-x="1175" 
d="M283 1475h22c54.667 0 91.5 -2 110.5 -6s28.5 -12.333 28.5 -25v-240h50c126.667 0 229.167 -9.83301 307.5 -29.5s144.166 -56.167 197.499 -109.5c74 -74 111 -182.667 111 -326c0 -144 -43.667 -260.667 -131 -350c-90.667 -92.667 -228.667 -139 -414 -139
c-39.333 0 -79.666 1.33301 -120.999 4v-223c0 -12.667 -9.5 -21 -28.5 -25s-55.833 -6 -110.5 -6h-22c-56.667 0 -93.5 2 -110.5 6s-25.5 12.333 -25.5 25v1413c0 12.667 8.5 21 25.5 25s53.833 6 110.5 6zM444 967v-475c34 -4.66699 69 -7 105 -7c97.333 0 167 26 209 78
c35.333 43.333 53 102 53 176c0 64 -15.667 114.667 -47 152c-22.667 26.667 -52.667 46 -90 58s-86 18 -146 18h-84z" />
    <glyph glyph-name="germandbls" unicode="&#xdf;" horiz-adv-x="1409" 
d="M416 1014v-983c0 -8.66699 -2.66699 -14.834 -8 -18.501s-17.5 -6.66699 -36.5 -9s-48.5 -3.5 -88.5 -3.5h-11c-43.333 0 -74.833 1.16699 -94.5 3.5s-31.667 5.33301 -36 9s-6.5 9.83398 -6.5 18.501v999c0 175.333 48.667 310.666 146 405.999
c96 94 228.333 141 397 141c146 0 266.833 -34.333 362.5 -103s143.5 -157.334 143.5 -266.001c0 -46 -10.5 -88.667 -31.5 -128s-46.667 -72.333 -77 -99s-60.5 -51.5 -90.5 -74.5s-55.5 -45.833 -76.5 -68.5s-31.5 -44.667 -31.5 -66c0 -20 8.5 -37.5 25.5 -52.5
s39 -28 66 -39s57 -22 90 -33s66 -24.5 99 -40.5s63 -34.833 90 -56.5s49 -50.5 66 -86.5s25.5 -77.333 25.5 -124c0 -57.333 -12.167 -109.333 -36.5 -156s-57.166 -84.5 -98.499 -113.5s-87.833 -51.333 -139.5 -67s-106.167 -23.5 -163.5 -23.5
c-152.667 0 -276.334 40.667 -371.001 122c-8.66699 6 -11.667 15.833 -9 29.5s12 34.834 28 63.501l20 36c18 31.333 32.333 51.833 43 61.5s21.667 10.5 33 2.5c88.667 -58.667 172.667 -88 252 -88c54.667 0 96.334 8.83301 125.001 26.5s43 40.834 43 69.501
c0 20 -8.66699 37.667 -26 53s-40 28.5 -68 39.5s-58.833 22.167 -92.5 33.5s-67.167 25.166 -100.5 41.499s-64 35.333 -92 57s-50.667 50.167 -68 85.5s-26 76 -26 122c0 39.333 7.5 75.833 22.5 109.5s33.667 61.334 56 83.001s46.666 43.667 72.999 66l73 60.5
c22.333 18 41 39.667 56 65s22.5 52.333 22.5 81c0 46 -19.667 82.833 -59 110.5s-91.333 41.5 -156 41.5c-76 0 -136.667 -22.667 -182 -68c-54.667 -56.667 -82 -146.667 -82 -270z" />
    <glyph glyph-name="agrave" unicode="&#xe0;" horiz-adv-x="1181" 
d="M786 981l9.00293 74.002c0.666992 6.66699 3.16699 11.667 7.5 15s15.166 6 32.499 8s44 3 80 3h13c51.333 0 84 -1.66699 98 -5s21 -11 21 -23c0 -14 -0.833008 -75.333 -2.5 -184s-2.5 -195 -2.5 -259v-125c0 -160 5 -309.333 15 -448
c1.33301 -16 -4 -26.167 -16 -30.5s-45.667 -6.5 -101 -6.5h-10c-50 0 -82.333 1.66699 -97 5s-24 10.666 -28 21.999c-2.66699 6 -7.33398 29 -14.001 69c-30 -34.667 -71.167 -62.667 -123.5 -84s-104.833 -32 -157.5 -32c-134 0 -239.833 48 -317.5 144
s-116.5 228 -116.5 396c0 90.667 12 173.167 36 247.5s56.667 135.666 98 183.999s89.166 85.5 143.499 111.5s112.5 39 174.5 39c54 0 104.5 -11.333 151.5 -34s82.5 -51.667 106.5 -87zM762.003 391.002v369c-20 30 -45.833 53.833 -77.5 71.5s-65.167 26.5 -100.5 26.5
c-146 0 -219 -110 -219 -330c0 -99.333 16.333 -176.333 49 -231s88 -82 166 -82c32.667 0 62.667 5.5 90 16.5s48.333 25.833 63 44.5c19.333 24.667 29 63 29 115zM375.003 1610h98c36.667 0 61.5 -1.83301 74.5 -5.5s22.167 -10.167 27.5 -19.5l218 -334
c6.66699 -12 6 -20 -2 -24s-24 -6 -48 -6h-77c-43.333 0 -71.333 7.33301 -84 22l-267 334c-12 16.667 -5.33301 27 20 31c10 1.33301 23.333 2 40 2z" />
    <glyph glyph-name="aacute" unicode="&#xe1;" horiz-adv-x="1181" 
d="M786 981l9.00293 74.002c0.666992 6.66699 3.16699 11.667 7.5 15s15.166 6 32.499 8s44 3 80 3h13c51.333 0 84 -1.66699 98 -5s21 -11 21 -23c0 -14 -0.833008 -75.333 -2.5 -184s-2.5 -195 -2.5 -259v-125c0 -160 5 -309.333 15 -448
c1.33301 -16 -4 -26.167 -16 -30.5s-45.667 -6.5 -101 -6.5h-10c-50 0 -82.333 1.66699 -97 5s-24 10.666 -28 21.999c-2.66699 6 -7.33398 29 -14.001 69c-30 -34.667 -71.167 -62.667 -123.5 -84s-104.833 -32 -157.5 -32c-134 0 -239.833 48 -317.5 144
s-116.5 228 -116.5 396c0 90.667 12 173.167 36 247.5s56.667 135.666 98 183.999s89.166 85.5 143.499 111.5s112.5 39 174.5 39c54 0 104.5 -11.333 151.5 -34s82.5 -51.667 106.5 -87zM762.003 391.002v369c-20 30 -45.833 53.833 -77.5 71.5s-65.167 26.5 -100.5 26.5
c-146 0 -219 -110 -219 -330c0 -99.333 16.333 -176.333 49 -231s88 -82 166 -82c32.667 0 62.667 5.5 90 16.5s48.333 25.833 63 44.5c19.333 24.667 29 63 29 115zM709.003 1610h98c42.667 0 64.334 -5.66699 65.001 -17c0.666992 -4 -1.33301 -9.33301 -6 -16l-266 -334
c-12.667 -14.667 -40.667 -22 -84 -22h-78c-24 0 -39.833 2 -47.5 6s-8.16699 12 -1.5 24l217 334c5.33301 9.33301 14.666 15.833 27.999 19.5s38.333 5.5 75 5.5z" />
    <glyph glyph-name="acircumflex" unicode="&#xe2;" horiz-adv-x="1181" 
d="M786 981l9.00293 74.002c0.666992 6.66699 3.16699 11.667 7.5 15s15.166 6 32.499 8s44 3 80 3h13c51.333 0 84 -1.66699 98 -5s21 -11 21 -23c0 -14 -0.833008 -75.333 -2.5 -184s-2.5 -195 -2.5 -259v-125c0 -160 5 -309.333 15 -448
c1.33301 -16 -4 -26.167 -16 -30.5s-45.667 -6.5 -101 -6.5h-10c-50 0 -82.333 1.66699 -97 5s-24 10.666 -28 21.999c-2.66699 6 -7.33398 29 -14.001 69c-30 -34.667 -71.167 -62.667 -123.5 -84s-104.833 -32 -157.5 -32c-134 0 -239.833 48 -317.5 144
s-116.5 228 -116.5 396c0 90.667 12 173.167 36 247.5s56.667 135.666 98 183.999s89.166 85.5 143.499 111.5s112.5 39 174.5 39c54 0 104.5 -11.333 151.5 -34s82.5 -51.667 106.5 -87zM762.003 391.002v369c-20 30 -45.833 53.833 -77.5 71.5s-65.167 26.5 -100.5 26.5
c-146 0 -219 -110 -219 -330c0 -99.333 16.333 -176.333 49 -231s88 -82 166 -82c32.667 0 62.667 5.5 90 16.5s48.333 25.833 63 44.5c19.333 24.667 29 63 29 115zM250.003 1358l185.998 198c12.667 13.333 27.334 22.166 44.001 26.499s44.334 6.5 83.001 6.5h29
c38.667 0 66.334 -2.16699 83.001 -6.5s31.334 -13.166 44.001 -26.499l186 -198c9.33301 -10.667 12.166 -20.834 8.49902 -30.501s-14.5 -23.5 -32.5 -41.5l-21 -20c-21.333 -21.333 -36.333 -33.833 -45 -37.5s-19 -1.5 -31 6.5l-206 180l-207 -180
c-12 -8 -22.333 -10.167 -31 -6.5s-23.667 16.167 -45 37.5l-21 20c-18 18 -28.833 31.833 -32.5 41.5s-0.833984 19.834 8.49902 30.501z" />
    <glyph glyph-name="atilde" unicode="&#xe3;" horiz-adv-x="1181" 
d="M786 981l9.00293 74.002c0.666992 6.66699 3.16699 11.667 7.5 15s15.166 6 32.499 8s44 3 80 3h13c51.333 0 84 -1.66699 98 -5s21 -11 21 -23c0 -14 -0.833008 -75.333 -2.5 -184s-2.5 -195 -2.5 -259v-125c0 -160 5 -309.333 15 -448
c1.33301 -16 -4 -26.167 -16 -30.5s-45.667 -6.5 -101 -6.5h-10c-50 0 -82.333 1.66699 -97 5s-24 10.666 -28 21.999c-2.66699 6 -7.33398 29 -14.001 69c-30 -34.667 -71.167 -62.667 -123.5 -84s-104.833 -32 -157.5 -32c-134 0 -239.833 48 -317.5 144
s-116.5 228 -116.5 396c0 90.667 12 173.167 36 247.5s56.667 135.666 98 183.999s89.166 85.5 143.499 111.5s112.5 39 174.5 39c54 0 104.5 -11.333 151.5 -34s82.5 -51.667 106.5 -87zM762.003 391.002v369c-20 30 -45.833 53.833 -77.5 71.5s-65.167 26.5 -100.5 26.5
c-146 0 -219 -110 -219 -330c0 -99.333 16.333 -176.333 49 -231s88 -82 166 -82c32.667 0 62.667 5.5 90 16.5s48.333 25.833 63 44.5c19.333 24.667 29 63 29 115zM279.003 1317l-9.00684 8c-20 20 -32.167 35 -36.5 45s-2.83301 20.333 4.5 31
c73.333 91.333 151.666 137 234.999 137c30 0 60.333 -6.33301 91 -19s58.334 -25.334 83.001 -38.001s45.334 -19 62.001 -19c36 0 76 22 120 66c12.667 12 37.334 -0.333008 74.001 -37l8 -8c20 -20 32.333 -35 37 -45s3.33398 -20.333 -3.99902 -31
c-73.333 -91.333 -151.666 -137 -234.999 -137c-29.333 0 -59 6.33301 -89 19s-57.667 25.334 -83 38.001s-46.666 19 -63.999 19c-36.667 0 -77 -22 -121 -66c-4 -3.33301 -8.16699 -5.33301 -12.5 -6s-11.666 2.5 -21.999 9.5s-23.166 18.167 -38.499 33.5z" />
    <glyph glyph-name="adieresis" unicode="&#xe4;" horiz-adv-x="1181" 
d="M786 981l9.00293 74.002c0.666992 6.66699 3.16699 11.667 7.5 15s15.166 6 32.499 8s44 3 80 3h13c51.333 0 84 -1.66699 98 -5s21 -11 21 -23c0 -14 -0.833008 -75.333 -2.5 -184s-2.5 -195 -2.5 -259v-125c0 -160 5 -309.333 15 -448
c1.33301 -16 -4 -26.167 -16 -30.5s-45.667 -6.5 -101 -6.5h-10c-50 0 -82.333 1.66699 -97 5s-24 10.666 -28 21.999c-2.66699 6 -7.33398 29 -14.001 69c-30 -34.667 -71.167 -62.667 -123.5 -84s-104.833 -32 -157.5 -32c-134 0 -239.833 48 -317.5 144
s-116.5 228 -116.5 396c0 90.667 12 173.167 36 247.5s56.667 135.666 98 183.999s89.166 85.5 143.499 111.5s112.5 39 174.5 39c54 0 104.5 -11.333 151.5 -34s82.5 -51.667 106.5 -87zM762.003 391.002v369c-20 30 -45.833 53.833 -77.5 71.5s-65.167 26.5 -100.5 26.5
c-146 0 -219 -110 -219 -330c0 -99.333 16.333 -176.333 49 -231s88 -82 166 -82c32.667 0 62.667 5.5 90 16.5s48.333 25.833 63 44.5c19.333 24.667 29 63 29 115zM217.003 1391c0 40.667 14.333 75 43 103s64.334 42 107.001 42c43.333 0 79 -14 107 -42
s42 -62.333 42 -103c0 -40 -14 -73.667 -42 -101s-63.667 -41 -107 -41c-42.667 0 -78.334 13.833 -107.001 41.5s-43 61.167 -43 100.5zM664.003 1391c0 40.667 13.667 75 41 103s62 42 104 42c44.667 0 81.5 -14 110.5 -42s43.5 -62.333 43.5 -103
c0 -39.333 -14.5 -72.833 -43.5 -100.5s-65.833 -41.5 -110.5 -41.5c-42 0 -76.667 13.667 -104 41s-41 61 -41 101z" />
    <glyph glyph-name="aring" unicode="&#xe5;" horiz-adv-x="1181" 
d="M786 981l9.00293 74.002c0.666992 6.66699 3.16699 11.667 7.5 15s15.166 6 32.499 8s44 3 80 3h13c51.333 0 84 -1.66699 98 -5s21 -11 21 -23c0 -14 -0.833008 -75.333 -2.5 -184s-2.5 -195 -2.5 -259v-125c0 -160 5 -309.333 15 -448
c1.33301 -16 -4 -26.167 -16 -30.5s-45.667 -6.5 -101 -6.5h-10c-50 0 -82.333 1.66699 -97 5s-24 10.666 -28 21.999c-2.66699 6 -7.33398 29 -14.001 69c-30 -34.667 -71.167 -62.667 -123.5 -84s-104.833 -32 -157.5 -32c-134 0 -239.833 48 -317.5 144
s-116.5 228 -116.5 396c0 90.667 12 173.167 36 247.5s56.667 135.666 98 183.999s89.166 85.5 143.499 111.5s112.5 39 174.5 39c54 0 104.5 -11.333 151.5 -34s82.5 -51.667 106.5 -87zM762.003 391.002v369c-20 30 -45.833 53.833 -77.5 71.5s-65.167 26.5 -100.5 26.5
c-146 0 -219 -110 -219 -330c0 -99.333 16.333 -176.333 49 -231s88 -82 166 -82c32.667 0 62.667 5.5 90 16.5s48.333 25.833 63 44.5c19.333 24.667 29 63 29 115zM358.003 1436c0 62 23 114.667 69 158s101 65 165 65s118.5 -21.5 163.5 -64.5s67.5 -95.833 67.5 -158.5
c0 -63.333 -22.5 -116.833 -67.5 -160.5s-99.5 -65.5 -163.5 -65.5s-119 22.167 -165 66.5s-69 97.5 -69 159.5zM510.003 1436c0 -23.333 8 -42.833 24 -58.5s35.333 -23.5 58 -23.5c22 0 40.5 8 55.5 24s22.5 35.333 22.5 58c0 22 -7.5 40.833 -22.5 56.5
s-33.5 23.5 -55.5 23.5c-22.667 0 -42 -7.5 -58 -22.5s-24 -34.167 -24 -57.5z" />
    <glyph glyph-name="ae" unicode="&#xe6;" horiz-adv-x="1775" 
d="M166 872l-11.998 29c-13.333 30.667 -20.833 51.834 -22.5 63.501s2.16602 20.5 11.499 26.5c54 34 118.167 61 192.5 81s144.166 30 209.499 30c154 0 268 -39 342 -117c88.667 78 197.667 117 327 117c101.333 0 188 -24 260 -72s125.667 -112.833 161 -194.5
s53 -176.5 53 -284.5c0 -40 -1.5 -67.833 -4.5 -83.5s-8.5 -23.5 -16.5 -23.5h-663c11.333 -73.333 39.833 -129.166 85.5 -167.499s107.167 -57.5 184.5 -57.5c88.667 0 185 22 289 66c11.333 5.33301 20.5 4.16602 27.5 -3.50098s16.167 -26.5 27.5 -56.5l18 -51
c12 -35.333 17.833 -58.333 17.5 -69s-6.83301 -19.667 -19.5 -27c-52.667 -29.333 -114.5 -53 -185.5 -71s-141.5 -27 -211.5 -27c-166 0 -295 49 -387 147c-49.333 -46 -108 -82 -176 -108s-141 -39 -219 -39c-118 0 -212.333 33.333 -283 100
c-68 63.333 -102 146.666 -102 249.999c0 113.333 39.5 200 118.5 260s185.5 90 319.5 90c65.333 0 133 -11 203 -33v58c0 112.667 -65 169 -195 169c-90.667 0 -184 -22.333 -280 -67c-14 -6 -25.667 -4.83301 -35 3.5s-21 28.833 -35 61.5zM745.002 301
c-16 45.333 -25.9971 93.668 -29.9971 145.001c-61.333 19.333 -119.333 29 -174 29c-58.667 0 -105.167 -11.333 -139.5 -34s-51.5 -57 -51.5 -103c0 -42 16.167 -73.667 48.5 -95s70.166 -32 113.499 -32c45.333 0 88.666 8.16699 129.999 24.5
s75.666 38.166 102.999 65.499zM1004 645.002h402.999c-6 66.667 -25.333 120.167 -58 160.5s-76.667 60.5 -132 60.5s-101.166 -19.333 -137.499 -58s-61.5 -93 -75.5 -163z" />
    <glyph glyph-name="ccedilla" unicode="&#xe7;" horiz-adv-x="1034" 
d="M942 879l-20 -38.9961c-12.667 -23.333 -23.5 -40.5 -32.5 -51.5s-16.667 -16.333 -23 -16s-12.5 2.16602 -18.5 5.49902c-77.333 53.333 -153 80 -227 80c-74.667 0 -136 -25.833 -184 -77.5s-72 -129.5 -72 -233.5c0 -104.667 22.667 -184.834 68 -240.501
s112 -83.5 200 -83.5c67.333 0 143 20 227 60c12.667 6 22.5 5 29.5 -3s19.167 -32.333 36.5 -73l12 -29c14.667 -34 22.5 -57.5 23.5 -70.5s-3.5 -21.5 -13.5 -25.5c-95.333 -64 -208 -98 -338 -102l-4 -56c66 -2 118.667 -18.833 158 -50.5s59 -78.834 59 -141.501
c0 -62 -22.333 -114.333 -67 -157s-109 -64 -193 -64c-64.667 0 -118 8.66699 -160 26c-8.66699 3.33301 -13.5 9.16602 -14.5 17.499s1.83301 26.5 8.5 54.5l6 22c6.66699 24.667 12.834 40.834 18.501 48.501s14.834 9.5 27.501 5.5
c31.333 -8.66699 62.666 -13 93.999 -13c26.667 0 46.667 5.5 60 16.5s20 25.5 20 43.5c0 40.667 -31 61 -93 61c-41.333 0 -82 -2.66699 -122 -8l30 213c-77.333 17.333 -144 52 -200 104c-108 100 -162 243.333 -162 430c0 179.333 49.667 320.666 149 423.999
c95.333 97.333 223.666 146 384.999 146c64.667 0 127.167 -10.667 187.5 -32s113.833 -51 160.5 -89c11.333 -9.33301 16 -20 14 -32s-12 -35.333 -30 -70z" />
    <glyph glyph-name="egrave" unicode="&#xe8;" horiz-adv-x="1140" 
d="M1032 444h-663.001c11.333 -73.333 39.833 -129.166 85.5 -167.499s107.167 -57.5 184.5 -57.5c88.667 0 185 22 289 66c11.333 5.33301 20.5 4.16602 27.5 -3.50098s16.167 -26.5 27.5 -56.5l18 -51c12 -35.333 17.833 -58.333 17.5 -69s-6.83301 -19.667 -19.5 -27
c-52.667 -29.333 -114.5 -53 -185.5 -71s-141.5 -27 -211.5 -27c-162.667 0 -291 48.167 -385 144.5s-141 230.833 -141 403.5c0 112 20 211.167 60 297.5s98.333 154 175 203s166.334 73.5 269.001 73.5c101.333 0 188 -24 260 -72s125.5 -112.833 160.5 -194.5
s52.5 -176.5 52.5 -284.5c0 -40 -1.5 -67.833 -4.5 -83.5s-8.5 -23.5 -16.5 -23.5zM368.999 645h402.999c-6 66.667 -25.333 120.167 -58 160.5s-76.667 60.5 -132 60.5s-101.166 -19.333 -137.499 -58s-61.5 -93 -75.5 -163zM384.998 1610h98
c36.667 0 61.667 -1.83301 75 -5.5s22.666 -10.167 27.999 -19.5l217 -334c6.66699 -12 6.16699 -20 -1.5 -24s-23.5 -6 -47.5 -6h-78c-43.333 0 -71.333 7.33301 -84 22l-266 334c-11.333 16.667 -5.66602 26.667 17.001 30c10 2 24 3 42 3z" />
    <glyph glyph-name="eacute" unicode="&#xe9;" horiz-adv-x="1140" 
d="M1032 444h-663.001c11.333 -73.333 39.833 -129.166 85.5 -167.499s107.167 -57.5 184.5 -57.5c88.667 0 185 22 289 66c11.333 5.33301 20.5 4.16602 27.5 -3.50098s16.167 -26.5 27.5 -56.5l18 -51c12 -35.333 17.833 -58.333 17.5 -69s-6.83301 -19.667 -19.5 -27
c-52.667 -29.333 -114.5 -53 -185.5 -71s-141.5 -27 -211.5 -27c-162.667 0 -291 48.167 -385 144.5s-141 230.833 -141 403.5c0 112 20 211.167 60 297.5s98.333 154 175 203s166.334 73.5 269.001 73.5c101.333 0 188 -24 260 -72s125.5 -112.833 160.5 -194.5
s52.5 -176.5 52.5 -284.5c0 -40 -1.5 -67.833 -4.5 -83.5s-8.5 -23.5 -16.5 -23.5zM368.999 645h402.999c-6 66.667 -25.333 120.167 -58 160.5s-76.667 60.5 -132 60.5s-101.166 -19.333 -137.499 -58s-61.5 -93 -75.5 -163zM695.998 1610h98.999
c42.667 0 64.334 -5.66699 65.001 -17c0.666992 -4 -1.33301 -9.33301 -6 -16l-266 -334c-12.667 -14.667 -40.667 -22 -84 -22h-78c-24 0 -39.833 2 -47.5 6s-8.16699 12 -1.5 24l217 334c5.33301 9.33301 14.5 15.833 27.5 19.5s37.833 5.5 74.5 5.5z" />
    <glyph glyph-name="ecircumflex" unicode="&#xea;" horiz-adv-x="1140" 
d="M1032 444h-663.001c11.333 -73.333 39.833 -129.166 85.5 -167.499s107.167 -57.5 184.5 -57.5c88.667 0 185 22 289 66c11.333 5.33301 20.5 4.16602 27.5 -3.50098s16.167 -26.5 27.5 -56.5l18 -51c12 -35.333 17.833 -58.333 17.5 -69s-6.83301 -19.667 -19.5 -27
c-52.667 -29.333 -114.5 -53 -185.5 -71s-141.5 -27 -211.5 -27c-162.667 0 -291 48.167 -385 144.5s-141 230.833 -141 403.5c0 112 20 211.167 60 297.5s98.333 154 175 203s166.334 73.5 269.001 73.5c101.333 0 188 -24 260 -72s125.5 -112.833 160.5 -194.5
s52.5 -176.5 52.5 -284.5c0 -40 -1.5 -67.833 -4.5 -83.5s-8.5 -23.5 -16.5 -23.5zM368.999 645h402.999c-6 66.667 -25.333 120.167 -58 160.5s-76.667 60.5 -132 60.5s-101.166 -19.333 -137.499 -58s-61.5 -93 -75.5 -163zM243.998 1358l185.999 197.999
c12.667 13.333 27.334 22.166 44.001 26.499s44.334 6.5 83.001 6.5h29c38.667 0 66.334 -2.16699 83.001 -6.5s31.334 -13.166 44.001 -26.499l186 -198c9.33301 -10.667 12.166 -20.667 8.49902 -30s-14.834 -23.333 -33.501 -42l-20 -20
c-21.333 -21.333 -36.333 -33.833 -45 -37.5s-19 -1.5 -31 6.5l-207 180l-206 -180c-12 -8 -22.333 -10.167 -31 -6.5s-23.667 16.167 -45 37.5l-21 20c-18 18 -28.833 31.833 -32.5 41.5s-0.833984 19.834 8.49902 30.501z" />
    <glyph glyph-name="edieresis" unicode="&#xeb;" horiz-adv-x="1140" 
d="M1032 444h-663.001c11.333 -73.333 39.833 -129.166 85.5 -167.499s107.167 -57.5 184.5 -57.5c88.667 0 185 22 289 66c11.333 5.33301 20.5 4.16602 27.5 -3.50098s16.167 -26.5 27.5 -56.5l18 -51c12 -35.333 17.833 -58.333 17.5 -69s-6.83301 -19.667 -19.5 -27
c-52.667 -29.333 -114.5 -53 -185.5 -71s-141.5 -27 -211.5 -27c-162.667 0 -291 48.167 -385 144.5s-141 230.833 -141 403.5c0 112 20 211.167 60 297.5s98.333 154 175 203s166.334 73.5 269.001 73.5c101.333 0 188 -24 260 -72s125.5 -112.833 160.5 -194.5
s52.5 -176.5 52.5 -284.5c0 -40 -1.5 -67.833 -4.5 -83.5s-8.5 -23.5 -16.5 -23.5zM368.999 645h402.999c-6 66.667 -25.333 120.167 -58 160.5s-76.667 60.5 -132 60.5s-101.166 -19.333 -137.499 -58s-61.5 -93 -75.5 -163zM196.998 1391c0 40.667 14.167 75 42.5 103
s63.833 42 106.5 42c43.333 0 79.166 -14 107.499 -42s42.5 -62.333 42.5 -103c0 -39.333 -14.167 -72.833 -42.5 -100.5s-64.166 -41.5 -107.499 -41.5c-42.667 0 -78.167 13.833 -106.5 41.5s-42.5 61.167 -42.5 100.5zM642.998 1391c0 40.667 13.667 75 41 103
s62 42 104 42c44.667 0 81.5 -14 110.5 -42s43.5 -62.333 43.5 -103c0 -39.333 -14.5 -72.833 -43.5 -100.5s-65.833 -41.5 -110.5 -41.5c-42 0 -76.667 13.667 -104 41s-41 61 -41 101z" />
    <glyph glyph-name="igrave" unicode="&#xec;" horiz-adv-x="567" 
d="M281 1081h10c40 0 69.5 -1 88.5 -3s31.167 -4.83301 36.5 -8.5s8 -9.83398 8 -18.501v-1020c0 -8.66699 -2.66699 -14.834 -8 -18.501s-17.5 -6.66699 -36.5 -9s-48.5 -3.5 -88.5 -3.5h-10c-44 0 -75.833 1.16699 -95.5 3.5s-31.667 5.33301 -36 9
s-6.5 9.83398 -6.5 18.501v1020c0 8.66699 2.16699 14.834 6.5 18.501s16.333 6.5 36 8.5s51.5 3 95.5 3zM70 1610h98c36.667 0 61.5 -1.83301 74.5 -5.5s22.167 -10.167 27.5 -19.5l217 -334c6.66699 -12 6.16699 -20 -1.5 -24s-23.5 -6 -47.5 -6h-78
c-43.333 0 -71.333 7.33301 -84 22l-266 334c-12 16.667 -5.33301 27 20 31c10 1.33301 23.333 2 40 2z" />
    <glyph glyph-name="iacute" unicode="&#xed;" horiz-adv-x="567" 
d="M281 1081h10c40 0 69.5 -1 88.5 -3s31.167 -4.83301 36.5 -8.5s8 -9.83398 8 -18.501v-1020c0 -8.66699 -2.66699 -14.834 -8 -18.501s-17.5 -6.66699 -36.5 -9s-48.5 -3.5 -88.5 -3.5h-10c-44 0 -75.833 1.16699 -95.5 3.5s-31.667 5.33301 -36 9
s-6.5 9.83398 -6.5 18.501v1020c0 8.66699 2.16699 14.834 6.5 18.501s16.333 6.5 36 8.5s51.5 3 95.5 3zM401 1610h98.999c42.667 0 64.334 -5.66699 65.001 -17c0.666992 -4 -1.33301 -9.33301 -6 -16l-266 -334c-12.667 -14.667 -40.667 -22 -84 -22h-78
c-24 0 -39.833 2 -47.5 6s-8.16699 12 -1.5 24l217 334c5.33301 9.33301 14.5 15.833 27.5 19.5s37.833 5.5 74.5 5.5z" />
    <glyph glyph-name="icircumflex" unicode="&#xee;" horiz-adv-x="567" 
d="M281 1081h10c40 0 69.5 -1 88.5 -3s31.167 -4.83301 36.5 -8.5s8 -9.83398 8 -18.501v-1020c0 -8.66699 -2.66699 -14.834 -8 -18.501s-17.5 -6.66699 -36.5 -9s-48.5 -3.5 -88.5 -3.5h-10c-44 0 -75.833 1.16699 -95.5 3.5s-31.667 5.33301 -36 9
s-6.5 9.83398 -6.5 18.501v1020c0 8.66699 2.16699 14.834 6.5 18.501s16.333 6.5 36 8.5s51.5 3 95.5 3zM-43 1358l185.999 198.001c12.667 13.333 27.334 22.166 44.001 26.499s44.334 6.5 83.001 6.5h29c38.667 0 66.334 -2.16699 83.001 -6.5
s31.334 -13.166 44.001 -26.499l186 -198c9.33301 -10.667 12.166 -20.834 8.49902 -30.501s-14.5 -23.5 -32.5 -41.5l-21 -20c-21.333 -21.333 -36 -33.833 -44 -37.5s-18.333 -1.5 -31 6.5l-207 180l-207 -180c-12 -8 -22.333 -10.167 -31 -6.5s-23.667 16.167 -45 37.5
l-20 20c-18.667 18.667 -29.834 32.667 -33.501 42s-0.833984 19.333 8.49902 30z" />
    <glyph glyph-name="idieresis" unicode="&#xef;" horiz-adv-x="567" 
d="M281 1081h10c40 0 69.5 -1 88.5 -3s31.167 -4.83301 36.5 -8.5s8 -9.83398 8 -18.501v-1020c0 -8.66699 -2.66699 -14.834 -8 -18.501s-17.5 -6.66699 -36.5 -9s-48.5 -3.5 -88.5 -3.5h-10c-44 0 -75.833 1.16699 -95.5 3.5s-31.667 5.33301 -36 9
s-6.5 9.83398 -6.5 18.501v1020c0 8.66699 2.16699 14.834 6.5 18.501s16.333 6.5 36 8.5s51.5 3 95.5 3zM-88 1391c0 40.667 14.167 75 42.5 103s63.833 42 106.5 42c43.333 0 79.166 -14 107.499 -42s42.5 -62.333 42.5 -103c0 -39.333 -14.167 -72.833 -42.5 -100.5
s-64.166 -41.5 -107.499 -41.5c-42.667 0 -78.167 13.833 -106.5 41.5s-42.5 61.167 -42.5 100.5zM358 1391c0 40.667 13.666 75 40.999 103s62.333 42 105 42c44.667 0 81.334 -14 110.001 -42s43 -62.333 43 -103c0 -39.333 -14.5 -72.833 -43.5 -100.5
s-65.5 -41.5 -109.5 -41.5c-42.667 0 -77.667 13.833 -105 41.5s-41 61.167 -41 100.5z" />
    <glyph glyph-name="eth" unicode="&#xf0;" horiz-adv-x="1196" 
d="M408 1479l25.999 39c18.667 26.667 33.5 42.834 44.5 48.501s23.5 4.5 37.5 -3.5c115.333 -57.333 213 -127 293 -209l240 65c8.66699 2 15.167 -0.166992 19.5 -6.5s10.5 -23.166 18.5 -50.499l9 -29c6 -22.667 8.83301 -38.334 8.5 -47.001s-4.5 -14 -12.5 -16
l-172 -47c121.333 -170.667 182 -366.667 182 -588c0 -199.333 -46 -358.333 -138 -477s-226.333 -178 -403 -178c-148.667 0 -266.667 48.5 -354 145.5s-131 225.833 -131 386.5c0 81.333 12.667 155.333 38 222s59.333 121.667 102 165s91.834 76.666 147.501 99.999
s114.167 35 175.5 35c76 0 142.667 -16.333 200 -49c-29.333 63.333 -60.666 117.333 -93.999 162l-215 -57c-8 -2 -14.5 0.5 -19.5 7.5s-11.5 23.5 -19.5 49.5l-8 29c-6.66699 22.667 -9.83398 38.167 -9.50098 46.5s4.83301 13.833 13.5 16.5l141 39
c-38 34.667 -86.333 69.334 -145 104.001c-20 11.333 -11.667 43.666 25 96.999zM802.999 739c-65.333 48 -133.667 72 -205 72c-74.667 0 -132.667 -26 -174 -78s-62 -127.667 -62 -227c0 -95.333 18.833 -168 56.5 -218s89.167 -75 154.5 -75
c84 0 144.333 34.167 181 102.5s55 179.5 55 333.5c0 28.667 -2 58.667 -6 90z" />
    <glyph glyph-name="ntilde" unicode="&#xf1;" horiz-adv-x="1206" 
d="M248 1081l9.99805 0.000976562c50.667 0 83.5 -1.5 98.5 -4.5s24.5 -10.167 28.5 -21.5s8.66699 -38.666 14 -81.999c34 39.333 76.833 70.666 128.5 93.999s107.834 35 168.501 35c125.333 0 220.333 -37 285 -111c34 -38 58.5 -82.833 73.5 -134.5
s22.5 -116.5 22.5 -194.5v-631c0 -8.66699 -2.66699 -14.834 -8 -18.501s-17.5 -6.66699 -36.5 -9s-48.5 -3.5 -88.5 -3.5h-10c-43.333 0 -74.833 1.16699 -94.5 3.5s-31.667 5.33301 -36 9s-6.5 9.83398 -6.5 18.501v553c0 70.667 -2.66699 120.5 -8 149.5
s-16.333 52.833 -33 71.5c-27.333 31.333 -73.333 47 -138 47c-56 0 -101.667 -11 -137 -33c-20 -12.667 -34 -27.167 -42 -43.5s-13 -37.833 -15 -64.5c-2.66699 -31.333 -4 -98.333 -4 -201v-479c0 -8.66699 -2.66699 -14.834 -8 -18.501s-17.5 -6.66699 -36.5 -9
s-48.5 -3.5 -88.5 -3.5h-11c-43.333 0 -74.833 1.16699 -94.5 3.5s-31.667 5.33301 -36 9s-6.5 9.83398 -6.5 18.501v565c0 169.333 -4.66699 318.666 -14 447.999c-1.33301 15.333 4.83398 25.333 18.501 30s48.5 7 104.5 7zM294.998 1317l-8 8c-20 20 -32.333 35 -37 45
s-3.33398 20.333 3.99902 31c73.333 91.333 151.666 137 234.999 137c30 0 60.333 -6.33301 91 -19s58.334 -25.334 83.001 -38.001s45.334 -19 62.001 -19c36.667 0 77 22 121 66c4 2.66699 8.33301 4.5 13 5.5s12.167 -2 22.5 -9s23.166 -18.167 38.499 -33.5l8 -8
c20 -20 32.333 -35 37 -45s3.33398 -20.333 -3.99902 -31c-73.333 -91.333 -152 -137 -236 -137c-29.333 0 -59 6.33301 -89 19s-57.667 25.334 -83 38.001s-46.666 19 -63.999 19c-36 0 -76 -22 -120 -66c-12.667 -12 -37.334 0.333008 -74.001 37z" />
    <glyph glyph-name="ograve" unicode="&#xf2;" horiz-adv-x="1169" 
d="M602 1102c154.667 0 275.333 -46.502 362 -139.502s130 -226.833 130 -401.5c0 -186 -45.333 -329.333 -136 -430s-221 -151 -391 -151c-154.667 0 -275.167 46.333 -361.5 139s-129.5 226.334 -129.5 401.001c0 186.667 45.167 330.334 135.5 431.001
s220.5 151 390.5 151zM595.999 859.998c-154 0 -231 -109.333 -231 -328c0 -207.333 69.333 -311 208 -311c154.667 0 232 109.333 232 328c0 207.333 -69.667 311 -209 311zM370.999 1610h98c36.667 0 61.5 -1.83301 74.5 -5.5s22.167 -10.167 27.5 -19.5l217 -334
c6.66699 -12 6.16699 -20 -1.5 -24s-23.5 -6 -47.5 -6h-77c-43.333 0 -71.333 7.33301 -84 22l-267 334c-12 16.667 -5.33301 27 20 31c10 1.33301 23.333 2 40 2z" />
    <glyph glyph-name="oacute" unicode="&#xf3;" horiz-adv-x="1169" 
d="M602 1102c154.667 0 275.333 -46.502 362 -139.502s130 -226.833 130 -401.5c0 -186 -45.333 -329.333 -136 -430s-221 -151 -391 -151c-154.667 0 -275.167 46.333 -361.5 139s-129.5 226.334 -129.5 401.001c0 186.667 45.167 330.334 135.5 431.001
s220.5 151 390.5 151zM595.999 859.998c-154 0 -231 -109.333 -231 -328c0 -207.333 69.333 -311 208 -311c154.667 0 232 109.333 232 328c0 207.333 -69.667 311 -209 311zM697.999 1610h98.999c42.667 0 64.334 -5.66699 65.001 -17
c0.666992 -4 -1.33301 -9.33301 -6 -16l-266 -334c-12.667 -14.667 -40.667 -22 -84 -22h-78c-24 0 -39.833 2 -47.5 6s-8.16699 12 -1.5 24l217 334c5.33301 9.33301 14.5 15.833 27.5 19.5s37.833 5.5 74.5 5.5z" />
    <glyph glyph-name="ocircumflex" unicode="&#xf4;" horiz-adv-x="1169" 
d="M602 1102c154.667 0 275.333 -46.502 362 -139.502s130 -226.833 130 -401.5c0 -186 -45.333 -329.333 -136 -430s-221 -151 -391 -151c-154.667 0 -275.167 46.333 -361.5 139s-129.5 226.334 -129.5 401.001c0 186.667 45.167 330.334 135.5 431.001
s220.5 151 390.5 151zM595.999 859.998c-154 0 -231 -109.333 -231 -328c0 -207.333 69.333 -311 208 -311c154.667 0 232 109.333 232 328c0 207.333 -69.667 311 -209 311zM255.999 1358l185.999 198.001c12.667 13.333 27.334 22.166 44.001 26.499
s44.334 6.5 83.001 6.5h29c38.667 0 66.334 -2.16699 83.001 -6.5s31.334 -13.166 44.001 -26.499l186 -198c9.33301 -10.667 12.166 -20.834 8.49902 -30.501s-14.5 -23.5 -32.5 -41.5l-21 -20c-21.333 -21.333 -36 -33.833 -44 -37.5s-18.333 -1.5 -31 6.5l-207 180
l-207 -180c-12 -8 -22.333 -10.167 -31 -6.5s-23.667 16.167 -45 37.5l-20 20c-18.667 18.667 -29.834 32.667 -33.501 42s-0.833984 19.333 8.49902 30z" />
    <glyph glyph-name="otilde" unicode="&#xf5;" horiz-adv-x="1169" 
d="M602 1102c154.667 0 275.333 -46.502 362 -139.502s130 -226.833 130 -401.5c0 -186 -45.333 -329.333 -136 -430s-221 -151 -391 -151c-154.667 0 -275.167 46.333 -361.5 139s-129.5 226.334 -129.5 401.001c0 186.667 45.167 330.334 135.5 431.001
s220.5 151 390.5 151zM595.999 859.998c-154 0 -231 -109.333 -231 -328c0 -207.333 69.333 -311 208 -311c154.667 0 232 109.333 232 328c0 207.333 -69.667 311 -209 311zM271.999 1317l-8.00293 8c-20 20 -32.333 35 -37 45s-3.33398 20.333 3.99902 31
c73.333 91.333 152 137 236 137c30 0 60.167 -6.33301 90.5 -19s57.833 -25.334 82.5 -38.001s45.334 -19 62.001 -19c36.667 0 77 22 121 66c12.667 12 37.334 -0.333008 74.001 -37l8 -8c20 -20 32.333 -35 37 -45s3.33398 -20.333 -3.99902 -31
c-73.333 -91.333 -152 -137 -236 -137c-29.333 0 -59 6.33301 -89 19s-57.5 25.334 -82.5 38.001s-46.167 19 -63.5 19c-36.667 0 -77 -22 -121 -66c-4 -2.66699 -8.33301 -4.5 -13 -5.5s-12.167 2 -22.5 9s-23.166 18.167 -38.499 33.5z" />
    <glyph glyph-name="odieresis" unicode="&#xf6;" horiz-adv-x="1169" 
d="M602 1102c154.667 0 275.333 -46.502 362 -139.502s130 -226.833 130 -401.5c0 -186 -45.333 -329.333 -136 -430s-221 -151 -391 -151c-154.667 0 -275.167 46.333 -361.5 139s-129.5 226.334 -129.5 401.001c0 186.667 45.167 330.334 135.5 431.001
s220.5 151 390.5 151zM595.999 859.998c-154 0 -231 -109.333 -231 -328c0 -207.333 69.333 -311 208 -311c154.667 0 232 109.333 232 328c0 207.333 -69.667 311 -209 311zM210.999 1391c0 40.667 14.167 75 42.5 103s63.833 42 106.5 42c43.333 0 79.166 -14 107.499 -42
s42.5 -62.333 42.5 -103c0 -39.333 -14.167 -72.833 -42.5 -100.5s-64.166 -41.5 -107.499 -41.5c-42.667 0 -78.167 13.833 -106.5 41.5s-42.5 61.167 -42.5 100.5zM656.999 1391c0 40.667 13.666 75 40.999 103s62.333 42 105 42c44.667 0 81.334 -14 110.001 -42
s43 -62.333 43 -103c0 -39.333 -14.5 -72.833 -43.5 -100.5s-65.5 -41.5 -109.5 -41.5c-42 0 -76.833 13.833 -104.5 41.5s-41.5 61.167 -41.5 100.5z" />
    <glyph glyph-name="divide" unicode="&#xf7;" 
d="M127 829h952c10.667 0 18.167 -6.33301 22.5 -19s6.5 -40.334 6.5 -83.001v-29c0 -42.667 -2.16699 -70.334 -6.5 -83.001s-11.833 -19 -22.5 -19h-952c-10.667 0 -18.167 6.33301 -22.5 19s-6.5 40.334 -6.5 83.001v29c0 42.667 2.16699 70.334 6.5 83.001
s11.833 19 22.5 19zM424 262c0 47.333 16.667 87.5 50 120.5s74.666 49.5 123.999 49.5c50.667 0 92.667 -16.5 126 -49.5s50 -73.167 50 -120.5c0 -46.667 -16.667 -86.334 -50 -119.001s-75.333 -49 -126 -49c-49.333 0 -90.666 16.333 -123.999 49
s-50 72.334 -50 119.001zM424 1161c0 47.333 16.667 87.5 50 120.5s74.666 49.5 123.999 49.5c50.667 0 92.667 -16.5 126 -49.5s50 -73.167 50 -120.5c0 -46.667 -16.667 -86.334 -50 -119.001s-75.333 -49 -126 -49c-49.333 0 -90.666 16.333 -123.999 49
s-50 72.334 -50 119.001z" />
    <glyph glyph-name="oslash" unicode="&#xf8;" horiz-adv-x="1169" 
d="M762 1081l65 120.999c8 15.333 17.667 22.833 29 22.5s35.333 -9.16602 72 -26.499l26 -12c36.667 -16.667 59 -29.667 67 -39s8.33301 -21 1 -35l-74 -135c97.333 -93.333 146 -232 146 -416c0 -186 -45.333 -329.333 -136 -430s-221 -151 -391 -151
c-48.667 0 -97 5.33301 -145 16l-66 -123c-8 -15.333 -17.5 -22.833 -28.5 -22.5s-34.833 9.16602 -71.5 26.499l-27 12c-35.333 16 -57.166 28.833 -65.499 38.5s-8.83301 21.5 -1.5 35.5l67 129c-102 94 -153 236.667 -153 428c0 186.667 45.167 330.334 135.5 431.001
s220.5 151 390.5 151c49.333 0 102.666 -7 159.999 -21zM383 376.999l256 479c-16 2.66699 -30.333 4 -43 4c-154 0 -231 -109.333 -231 -328c0 -60 6 -111.667 18 -155zM791 681.999l-245.999 -459c5.33301 -1.33301 14.666 -2 27.999 -2c154.667 0 232 109.333 232 328
c0 52 -4.66699 96.333 -14 133z" />
    <glyph glyph-name="ugrave" unicode="&#xf9;" horiz-adv-x="1202" 
d="M266 1081l10.002 -0.000976562c40 0 69.5 -1 88.5 -3s31.333 -4.83301 37 -8.5s8.5 -9.83398 8.5 -18.501v-553c0 -70.667 2.66699 -120.667 8 -150s16.333 -53.333 33 -72c27.333 -31.333 72.333 -47 135 -47c54.667 0 99.667 11 135 33c20 12.667 34 27.334 42 44.001
s13 38.334 15 65.001c2.66699 31.333 4 98 4 200v480c0 8.66699 2.16699 14.834 6.5 18.501s16.333 6.5 36 8.5s51.5 3 95.5 3h10c40 0 69.5 -1 88.5 -3s31.167 -4.83301 36.5 -8.5s8 -9.83398 8 -18.501v-566c0 -169.333 4.66699 -318.666 14 -447.999
c1.33301 -15.333 -4.83398 -25.333 -18.501 -30s-48.5 -7 -104.5 -7h-10c-50 0 -82.667 1.66699 -98 5s-25 10.666 -29 21.999s-8.66699 38.666 -14 81.999c-34 -40 -76.5 -71.5 -127.5 -94.5s-106.833 -34.5 -167.5 -34.5c-124.667 0 -219 36.667 -283 110
c-34 38 -58.5 83 -73.5 135s-22.5 117 -22.5 195v631c0 8.66699 2.16699 14.834 6.5 18.501s16.166 6.5 35.499 8.5s51 3 95 3zM379.002 1610h98.001c36.667 0 61.667 -1.83301 75 -5.5s22.666 -10.167 27.999 -19.5l217 -334c6.66699 -12 6.16699 -20 -1.5 -24
s-23.5 -6 -47.5 -6h-78c-43.333 0 -71.333 7.33301 -84 22l-267 334c-12 16.667 -5.33301 27 20 31c10 1.33301 23.333 2 40 2z" />
    <glyph glyph-name="uacute" unicode="&#xfa;" horiz-adv-x="1202" 
d="M266 1081l10.002 -0.000976562c40 0 69.5 -1 88.5 -3s31.333 -4.83301 37 -8.5s8.5 -9.83398 8.5 -18.501v-553c0 -70.667 2.66699 -120.667 8 -150s16.333 -53.333 33 -72c27.333 -31.333 72.333 -47 135 -47c54.667 0 99.667 11 135 33c20 12.667 34 27.334 42 44.001
s13 38.334 15 65.001c2.66699 31.333 4 98 4 200v480c0 8.66699 2.16699 14.834 6.5 18.501s16.333 6.5 36 8.5s51.5 3 95.5 3h10c40 0 69.5 -1 88.5 -3s31.167 -4.83301 36.5 -8.5s8 -9.83398 8 -18.501v-566c0 -169.333 4.66699 -318.666 14 -447.999
c1.33301 -15.333 -4.83398 -25.333 -18.501 -30s-48.5 -7 -104.5 -7h-10c-50 0 -82.667 1.66699 -98 5s-25 10.666 -29 21.999s-8.66699 38.666 -14 81.999c-34 -40 -76.5 -71.5 -127.5 -94.5s-106.833 -34.5 -167.5 -34.5c-124.667 0 -219 36.667 -283 110
c-34 38 -58.5 83 -73.5 135s-22.5 117 -22.5 195v631c0 8.66699 2.16699 14.834 6.5 18.501s16.166 6.5 35.499 8.5s51 3 95 3zM727.002 1610h98.001c43.333 0 65.333 -5.66699 66 -17c0.666992 -4.66699 -1.33301 -10 -6 -16l-267 -334
c-12.667 -14.667 -40.334 -22 -83.001 -22h-78c-24 0 -39.833 2 -47.5 6s-8.16699 12 -1.5 24l217 334c5.33301 9.33301 14.5 15.833 27.5 19.5s37.833 5.5 74.5 5.5z" />
    <glyph glyph-name="ucircumflex" unicode="&#xfb;" horiz-adv-x="1202" 
d="M266 1081l10.002 -0.000976562c40 0 69.5 -1 88.5 -3s31.333 -4.83301 37 -8.5s8.5 -9.83398 8.5 -18.501v-553c0 -70.667 2.66699 -120.667 8 -150s16.333 -53.333 33 -72c27.333 -31.333 72.333 -47 135 -47c54.667 0 99.667 11 135 33c20 12.667 34 27.334 42 44.001
s13 38.334 15 65.001c2.66699 31.333 4 98 4 200v480c0 8.66699 2.16699 14.834 6.5 18.501s16.333 6.5 36 8.5s51.5 3 95.5 3h10c40 0 69.5 -1 88.5 -3s31.167 -4.83301 36.5 -8.5s8 -9.83398 8 -18.501v-566c0 -169.333 4.66699 -318.666 14 -447.999
c1.33301 -15.333 -4.83398 -25.333 -18.501 -30s-48.5 -7 -104.5 -7h-10c-50 0 -82.667 1.66699 -98 5s-25 10.666 -29 21.999s-8.66699 38.666 -14 81.999c-34 -40 -76.5 -71.5 -127.5 -94.5s-106.833 -34.5 -167.5 -34.5c-124.667 0 -219 36.667 -283 110
c-34 38 -58.5 83 -73.5 135s-22.5 117 -22.5 195v631c0 8.66699 2.16699 14.834 6.5 18.501s16.166 6.5 35.499 8.5s51 3 95 3zM272.002 1358l187 198c12.667 13.333 27.334 22.166 44.001 26.499s44.334 6.5 83.001 6.5h28c38.667 0 66.334 -2.16699 83.001 -6.5
s31.334 -13.166 44.001 -26.499l187 -198c9.33301 -10.667 12.166 -20.667 8.49902 -30s-14.834 -23.333 -33.501 -42l-20 -20c-21.333 -21.333 -36.333 -33.833 -45 -37.5s-19 -1.5 -31 6.5l-207 180l-207 -180c-12 -8 -22.333 -10.167 -31 -6.5s-23.667 16.167 -45 37.5
l-20 20c-18.667 18.667 -29.834 32.667 -33.501 42s-0.833984 19.333 8.49902 30z" />
    <glyph glyph-name="udieresis" unicode="&#xfc;" horiz-adv-x="1202" 
d="M266 1081l10.002 -0.000976562c40 0 69.5 -1 88.5 -3s31.333 -4.83301 37 -8.5s8.5 -9.83398 8.5 -18.501v-553c0 -70.667 2.66699 -120.667 8 -150s16.333 -53.333 33 -72c27.333 -31.333 72.333 -47 135 -47c54.667 0 99.667 11 135 33c20 12.667 34 27.334 42 44.001
s13 38.334 15 65.001c2.66699 31.333 4 98 4 200v480c0 8.66699 2.16699 14.834 6.5 18.501s16.333 6.5 36 8.5s51.5 3 95.5 3h10c40 0 69.5 -1 88.5 -3s31.167 -4.83301 36.5 -8.5s8 -9.83398 8 -18.501v-566c0 -169.333 4.66699 -318.666 14 -447.999
c1.33301 -15.333 -4.83398 -25.333 -18.501 -30s-48.5 -7 -104.5 -7h-10c-50 0 -82.667 1.66699 -98 5s-25 10.666 -29 21.999s-8.66699 38.666 -14 81.999c-34 -40 -76.5 -71.5 -127.5 -94.5s-106.833 -34.5 -167.5 -34.5c-124.667 0 -219 36.667 -283 110
c-34 38 -58.5 83 -73.5 135s-22.5 117 -22.5 195v631c0 8.66699 2.16699 14.834 6.5 18.501s16.166 6.5 35.499 8.5s51 3 95 3zM227.002 1391c0 40.667 14.333 75 43 103s64.334 42 107.001 42c43.333 0 79 -14 107 -42s42 -62.333 42 -103c0 -40 -14 -73.667 -42 -101
s-63.667 -41 -107 -41c-42.667 0 -78.334 13.833 -107.001 41.5s-43 61.167 -43 100.5zM674.002 1391c0 40.667 13.667 75 41 103s62 42 104 42c44.667 0 81.5 -14 110.5 -42s43.5 -62.333 43.5 -103c0 -39.333 -14.5 -72.833 -43.5 -100.5s-65.833 -41.5 -110.5 -41.5
c-42 0 -76.667 13.667 -104 41s-41 61 -41 101z" />
    <glyph glyph-name="yacute" unicode="&#xfd;" horiz-adv-x="1089" 
d="M178 1081l27 0.000976562c57.333 0 93.833 -2 109.5 -6s25.5 -12 29.5 -24l127 -402c44.667 -142 75.334 -264.667 92.001 -368c18.667 98 48.667 219.333 90 364l119 406c4 12 13.5 20 28.5 24s48.5 6 100.5 6h27c78 0 120 -6.33301 126 -19c2 -4 1.66699 -10 -1 -18
l-351 -1026c-60.667 -178 -129.667 -305 -207 -381s-181 -114 -311 -114c-43.333 0 -85.5 4.83301 -126.5 14.5s-72.5 21.834 -94.5 36.501c-8.66699 8 -12.5 17.167 -11.5 27.5s6.16699 33.166 15.5 68.499l8 29c10 36 19 59.167 27 69.5s19.667 13.166 35 8.49902
c46 -14 88.333 -21 127 -21c58 0 106.167 16.833 144.5 50.5s74.833 96.167 109.5 187.5l-369 1050c-4.66699 14 0 23.333 14 28c17.333 6 55.666 9 114.999 9zM711 1610h98c42.667 0 64.334 -5.66699 65.001 -17c0.666992 -4 -1.33301 -9.33301 -6 -16l-266 -334
c-12.667 -14.667 -40.667 -22 -84 -22h-78c-24 0 -39.833 2 -47.5 6s-8.16699 12 -1.5 24l217 334c5.33301 9.33301 14.666 15.833 27.999 19.5s38.333 5.5 75 5.5z" />
    <glyph glyph-name="thorn" unicode="&#xfe;" horiz-adv-x="1185" 
d="M272 1556h11.001c40 0 69.5 -1 88.5 -3s31.167 -4.83301 36.5 -8.5s8 -9.83398 8 -18.501v-531c73.333 71.333 163.333 107 270 107c128.667 0 231.5 -49.167 308.5 -147.5s115.5 -230.833 115.5 -397.5c0 -178.667 -41.5 -319.5 -124.5 -422.5
s-192.5 -154.5 -328.5 -154.5c-98 0 -178.333 26.333 -241 79v-485c0 -8.66699 -2.66699 -14.834 -8 -18.501s-17.5 -6.66699 -36.5 -9s-48.5 -3.5 -88.5 -3.5h-11c-43.333 0 -74.833 1.16699 -94.5 3.5s-31.667 5.33301 -36 9s-6.5 9.83398 -6.5 18.501v1952
c0 8.66699 2.16699 14.834 6.5 18.501s16.166 6.5 35.499 8.5s51 3 95 3zM416.001 698v-401c50 -52 110.667 -78 182 -78c74 0 129.667 28.833 167 86.5s56 141.5 56 251.5c0 112.667 -22.333 194.667 -67 246c-34 39.333 -85.333 59 -154 59
c-29.333 0 -58.833 -4.83301 -88.5 -14.5s-52.167 -22.5 -67.5 -38.5c-18.667 -20 -28 -57 -28 -111z" />
    <glyph glyph-name="ydieresis" unicode="&#xff;" horiz-adv-x="1085" 
d="M174 1081l27 0.000976562c57.333 0 93.833 -2 109.5 -6s25.5 -12 29.5 -24l127 -402c44.667 -142 75.334 -264.667 92.001 -368c18.667 98 48.667 219.333 90 364l119 406c4 12 13.5 20 28.5 24s48.5 6 100.5 6h27c78 0 120 -6.33301 126 -19c2 -4 1.66699 -10 -1 -18
l-351 -1026c-60.667 -178 -129.667 -305 -207 -381s-181 -114 -311 -114c-43.333 0 -85.5 4.83301 -126.5 14.5s-72.5 21.834 -94.5 36.501c-8.66699 8 -12.5 17.167 -11.5 27.5s6.16699 33.166 15.5 68.499l8 29c10 36 19 59.167 27 69.5s19.667 13.166 35 8.49902
c46 -14 88.333 -21 127 -21c58 0 106.167 16.833 144.5 50.5s74.833 96.167 109.5 187.5l-369 1050c-4.66699 14 0 23.333 14 28c17.333 6 55.666 9 114.999 9zM170 1391c0 40.667 14.167 75 42.5 103s63.833 42 106.5 42c43.333 0 79.166 -14 107.499 -42
s42.5 -62.333 42.5 -103c0 -39.333 -14.167 -72.833 -42.5 -100.5s-64.166 -41.5 -107.499 -41.5c-42.667 0 -78.167 13.833 -106.5 41.5s-42.5 61.167 -42.5 100.5zM616 1391c0 40.667 13.666 75 40.999 103s62.333 42 105 42c44.667 0 81.334 -14 110.001 -42
s43 -62.333 43 -103c0 -39.333 -14.5 -72.833 -43.5 -100.5s-65.5 -41.5 -109.5 -41.5c-42.667 0 -77.667 13.833 -105 41.5s-41 61.167 -41 100.5z" />
    <glyph glyph-name="Ldot" unicode="&#x13f;" horiz-adv-x="1056" 
d="M610 829c0 40.667 15 75.5 45 104.5s65.667 43.5 107 43.5c40.667 0 75.334 -14.333 104.001 -43s43 -63.667 43 -105s-14.333 -76.5 -43 -105.5s-63.334 -43.5 -104.001 -43.5c-41.333 0 -77 14.667 -107 44s-45 64.333 -45 105zM285 1475h22.001
c54 0 90.667 -2.16699 110 -6.5s29 -12.5 29 -24.5v-1206h525c15.333 0 25 -5.66699 29 -17s6 -42 6 -92v-16c0 -48 -2.33301 -78.833 -7 -92.5s-14 -20.5 -28 -20.5h-729c-40 -0 -65.333 1.83301 -76 5.5s-16 12.167 -16 25.5v1413c0 12 8.66699 20.167 26 24.5
s53.666 6.5 108.999 6.5z" />
    <glyph glyph-name="ldot" unicode="&#x140;" horiz-adv-x="843" 
d="M256 1556l10 0.00292969c56 0 92 -1.66699 108 -5s25 -10.333 27 -21c12.667 -62 19 -260.667 19 -596v-651c0 -24.667 5 -42.5 15 -53.5s27.333 -16.5 52 -16.5h25c8.66699 0 14.167 -5.33301 16.5 -16s3.5 -35.334 3.5 -74.001v-19c0 -36.667 -1 -59.834 -3 -69.501
s-7 -16.5 -15 -20.5c-35.333 -16 -81 -24 -137 -24c-74 0 -131.333 20.333 -172 61c-44 44 -66 115.667 -66 215v711c0 91.333 -1.83301 196.166 -5.5 314.499s-7.16699 197.833 -10.5 238.5c-0.666992 6.66699 -0.5 11.334 0.5 14.001s6.16699 5.16699 15.5 7.5
s22.333 3.66602 39 3.99902s42.667 0.5 78 0.5zM530 760.003c0 40.667 15.002 75.3301 45.002 103.997s65.667 43 107 43s76.166 -14.167 104.499 -42.5s42.5 -63.166 42.5 -104.499s-14.333 -76.666 -43 -105.999s-63.334 -44 -104.001 -44c-41.333 0 -77 14.833 -107 44.5
s-45 64.834 -45 105.501z" />
    <glyph glyph-name="florin" unicode="&#x192;" horiz-adv-x="1085" 
d="M274 932l156.004 -0.00292969l14 117c18 144.667 65.167 255.167 141.5 331.5s182.833 114.5 319.5 114.5c65.333 0 133 -12.333 203 -37c8.66699 -3.33301 13.167 -10.333 13.5 -21s-4.83398 -35.667 -15.501 -75l-10 -35c-12 -38.667 -21.5 -62.5 -28.5 -71.5
s-16.167 -11.833 -27.5 -8.5c-46.667 11.333 -84.667 17 -114 17c-64.667 0 -111.334 -17.333 -140.001 -52s-48.334 -92 -59.001 -172l-14 -108h231c7.33301 0 12.333 -1.66699 15 -5s4.5 -12.666 5.5 -27.999s-1.16699 -38.666 -6.5 -69.999l-2 -14
c-4.66699 -31.333 -9.33398 -54.666 -14.001 -69.999s-8.83398 -24.5 -12.501 -27.5s-9.16699 -4.5 -16.5 -4.5h-233l-66 -492c-38.667 -297.333 -192 -446 -460 -446c-65.333 0 -133 12.333 -203 37c-8.66699 3.33301 -13.167 10.333 -13.5 21s4.83398 35.667 15.501 75
l10 35c12 38.667 21.5 62.5 28.5 71.5s15.833 11.833 26.5 8.5c46.667 -11.333 85 -17 115 -17c65.333 0 111.833 16.167 139.5 48.5s47.5 90.5 59.5 174.5l67 484h-155c-4.66699 -0.666992 -8.33398 0 -11.001 2s-4.5 6.5 -5.5 13.5s-1.16699 17.333 -0.5 31
s2.66699 32.167 6 55.5l3 14c6.66699 45.333 12.334 73.833 17.001 85.5s11.667 17.5 21 17.5z" />
    <glyph glyph-name="circumflex" unicode="&#x2c6;" horiz-adv-x="716" 
d="M31 1358l185.998 198c12.667 13.333 27.334 22.166 44.001 26.499s44.334 6.5 83.001 6.5h29c38.667 0 66.334 -2.16699 83.001 -6.5s31.334 -13.166 44.001 -26.499l186 -198c9.33301 -10.667 12.166 -20.834 8.49902 -30.501s-14.5 -23.5 -32.5 -41.5l-21 -20
c-21.333 -21.333 -36.333 -33.833 -45 -37.5s-19 -1.5 -31 6.5l-207 180l-206 -180c-12 -8 -22.333 -10.167 -31 -6.5s-23.667 16.167 -45 37.5l-21 20c-18 18 -28.833 31.833 -32.5 41.5s-0.833984 19.834 8.49902 30.501z" />
    <glyph glyph-name="ring" unicode="&#x2da;" horiz-adv-x="716" 
d="M125 1436c0 62 22.833 114.667 68.5 158s100.5 65 164.5 65s118.667 -21.5 164 -64.5s68 -95.833 68 -158.5c0 -63.333 -22.667 -116.833 -68 -160.5s-100 -65.5 -164 -65.5s-118.833 22.167 -164.5 66.5s-68.5 97.5 -68.5 159.5zM276 1436c0 -23.333 8 -42.833 24 -58.5
s35.333 -23.5 58 -23.5c22 0 40.5 8 55.5 24s22.5 35.333 22.5 58c0 22 -7.5 40.833 -22.5 56.5s-33.5 23.5 -55.5 23.5c-22.667 0 -42 -7.5 -58 -22.5s-24 -34.167 -24 -57.5z" />
    <glyph glyph-name="tilde" unicode="&#x2dc;" horiz-adv-x="716" 
d="M47 1317l-7.99902 8c-20 20 -32.333 35 -37 45s-3.33398 20.333 3.99902 31c73.333 91.333 152 137 236 137c30 0 60.167 -6.33301 90.5 -19s57.833 -25.334 82.5 -38.001s45.334 -19 62.001 -19c36.667 0 77 22 121 66c4 2.66699 8.33301 4.5 13 5.5s12.167 -2 22.5 -9
s23.166 -18.167 38.499 -33.5l8 -8c20 -20 32.333 -35 37 -45s3.33398 -20.333 -3.99902 -31c-73.333 -91.333 -152 -137 -236 -137c-29.333 0 -59 6.33301 -89 19s-57.5 25.334 -82.5 38.001s-46.167 19 -63.5 19c-36.667 0 -77 -22 -121 -66
c-12.667 -12 -37.334 0.333008 -74.001 37z" />
    <glyph glyph-name="uni2000" unicode="&#x2000;" horiz-adv-x="1001" 
 />
    <glyph glyph-name="uni2001" unicode="&#x2001;" horiz-adv-x="2003" 
 />
    <glyph glyph-name="uni2002" unicode="&#x2002;" horiz-adv-x="1001" 
 />
    <glyph glyph-name="uni2003" unicode="&#x2003;" horiz-adv-x="2003" 
 />
    <glyph glyph-name="uni2004" unicode="&#x2004;" horiz-adv-x="667" 
 />
    <glyph glyph-name="uni2005" unicode="&#x2005;" horiz-adv-x="500" 
 />
    <glyph glyph-name="uni2006" unicode="&#x2006;" horiz-adv-x="333" 
 />
    <glyph glyph-name="uni2007" unicode="&#x2007;" horiz-adv-x="333" 
 />
    <glyph glyph-name="uni2008" unicode="&#x2008;" horiz-adv-x="250" 
 />
    <glyph glyph-name="uni2009" unicode="&#x2009;" horiz-adv-x="400" 
 />
    <glyph glyph-name="uni200A" unicode="&#x200a;" horiz-adv-x="111" 
 />
    <glyph glyph-name="uni2010" unicode="&#x2010;" horiz-adv-x="798" 
d="M98 707h602c10.667 0 18.167 -6.5 22.5 -19.5s6.5 -40.833 6.5 -83.5v-29c0 -42.667 -2.16699 -70.334 -6.5 -83.001s-11.833 -19 -22.5 -19h-602c-10.667 0 -18 6.33301 -22 19s-6 40.334 -6 83.001v29c0 42.667 2 70.5 6 83.5s11.333 19.5 22 19.5z" />
    <glyph glyph-name="uni2011" unicode="&#x2011;" horiz-adv-x="798" 
d="M98 707h602c10.667 0 18.167 -6.5 22.5 -19.5s6.5 -40.833 6.5 -83.5v-29c0 -42.667 -2.16699 -70.334 -6.5 -83.001s-11.833 -19 -22.5 -19h-602c-10.667 0 -18 6.33301 -22 19s-6 40.334 -6 83.001v29c0 42.667 2 70.5 6 83.5s11.333 19.5 22 19.5z" />
    <glyph glyph-name="figuredash" unicode="&#x2012;" horiz-adv-x="798" 
d="M98 707h602c10.667 0 18.167 -6.5 22.5 -19.5s6.5 -40.833 6.5 -83.5v-29c0 -42.667 -2.16699 -70.334 -6.5 -83.001s-11.833 -19 -22.5 -19h-602c-10.667 0 -18 6.33301 -22 19s-6 40.334 -6 83.001v29c0 42.667 2 70.5 6 83.5s11.333 19.5 22 19.5z" />
    <glyph glyph-name="endash" unicode="&#x2013;" horiz-adv-x="1024" 
d="M29 690h966c10.667 0 18.167 -6.33301 22.5 -19s6.5 -40.334 6.5 -83.001v-13c0 -42.667 -2.16699 -70.334 -6.5 -83.001s-11.833 -19 -22.5 -19h-966c-10.667 0 -18.167 6.33301 -22.5 19s-6.5 40.334 -6.5 83.001v13c0 42.667 2.16699 70.334 6.5 83.001
s11.833 19 22.5 19z" />
    <glyph glyph-name="emdash" unicode="&#x2014;" horiz-adv-x="2048" 
d="M29 690h1990c10.667 0 18.167 -6.33301 22.5 -19s6.5 -40.334 6.5 -83.001v-13c0 -42.667 -2.16699 -70.334 -6.5 -83.001s-11.833 -19 -22.5 -19h-1990c-10.667 0 -18.167 6.33301 -22.5 19s-6.5 40.334 -6.5 83.001v13c0 42.667 2.16699 70.334 6.5 83.001
s11.833 19 22.5 19z" />
    <glyph glyph-name="quoteleft" unicode="&#x2018;" horiz-adv-x="561" 
d="M406 1475l36.001 -33c12 -10.667 18.667 -19.167 20 -25.5s-2.33398 -15.5 -11.001 -27.5c-75.333 -96.667 -113 -179.334 -113 -248.001c0 -21.333 4.83301 -40.666 14.5 -57.999s20.167 -31.333 31.5 -42s21.833 -25.167 31.5 -43.5s14.5 -38.833 14.5 -61.5
c0 -38.667 -15 -73 -45 -103s-67.667 -45 -113 -45c-53.333 0 -97 18.833 -131 56.5s-51 86.5 -51 146.5c0 82.667 22.5 165.834 67.5 249.501s107.833 162.5 188.5 236.5c18.667 17.333 38.667 16.666 60 -2.00098z" />
    <glyph glyph-name="quoteright" unicode="&#x2019;" horiz-adv-x="561" 
d="M156 809l-36.999 33c-12 10 -18.5 18.333 -19.5 25s2.83301 16 11.5 28c74.667 96 112 178.667 112 248c0 21.333 -4.83301 40.666 -14.5 57.999s-20.167 31.333 -31.5 42s-21.833 25.167 -31.5 43.5s-14.5 38.833 -14.5 61.5c0 38.667 15 72.834 45 102.501
s67.667 44.5 113 44.5c53.333 0 97 -18.833 131 -56.5s51 -86.5 51 -146.5c0 -82.667 -22.5 -165.667 -67.5 -249s-107.833 -162 -188.5 -236c-18.667 -16.667 -38.334 -16 -59.001 2z" />
    <glyph glyph-name="quotesinglbase" unicode="&#x201a;" horiz-adv-x="561" 
d="M156 -502l-36.999 33.001c-12 10 -18.5 18.333 -19.5 25s2.83301 16 11.5 28c74.667 96 112 178.667 112 248c0 21.333 -4.83301 40.666 -14.5 57.999s-20.167 31.333 -31.5 42s-21.833 25.167 -31.5 43.5s-14.5 38.833 -14.5 61.5c0 38.667 15 72.834 45 102.501
s67.667 44.5 113 44.5c53.333 0 97 -18.667 131 -56s51 -86 51 -146c0 -82.667 -22.5 -165.834 -67.5 -249.501s-107.833 -162.5 -188.5 -236.5c-18.667 -16.667 -38.334 -16 -59.001 2z" />
    <glyph glyph-name="quotedblleft" unicode="&#x201c;" horiz-adv-x="1001" 
d="M846 1475l36.999 -33c12 -10 18.5 -18.333 19.5 -25s-2.83301 -16 -11.5 -28c-75.333 -96.667 -113 -179.334 -113 -248.001c0 -21.333 4.83301 -40.666 14.5 -57.999s20.167 -31.333 31.5 -42s21.833 -25.167 31.5 -43.5s14.5 -38.833 14.5 -61.5
c0 -38.667 -14.833 -73 -44.5 -103s-67.167 -45 -112.5 -45c-53.333 0 -97.166 18.833 -131.499 56.5s-51.5 86.5 -51.5 146.5c0 82.667 22.5 165.834 67.5 249.501s107.833 162.5 188.5 236.5c18.667 17.333 38.667 16.666 60 -2.00098zM405.999 1475l36.001 -33
c12 -10.667 18.667 -19.167 20 -25.5s-2.33398 -15.5 -11.001 -27.5c-75.333 -96.667 -113 -179.334 -113 -248.001c0 -21.333 4.83301 -40.666 14.5 -57.999s20.167 -31.333 31.5 -42s21.833 -25.167 31.5 -43.5s14.5 -38.833 14.5 -61.5c0 -38.667 -15 -73 -45 -103
s-67.667 -45 -113 -45c-53.333 0 -97 18.833 -131 56.5s-51 86.5 -51 146.5c0 82.667 22.5 165.834 67.5 249.501s107.833 162.5 188.5 236.5c18.667 17.333 38.667 16.666 60 -2.00098z" />
    <glyph glyph-name="quotedblright" unicode="&#x201d;" horiz-adv-x="1001" 
d="M156 809l-36.999 33c-12 10 -18.5 18.333 -19.5 25s2.83301 16 11.5 28c74.667 96 112 178.667 112 248c0 21.333 -4.83301 40.666 -14.5 57.999s-20.167 31.333 -31.5 42s-21.833 25.167 -31.5 43.5s-14.5 38.833 -14.5 61.5c0 38.667 15 72.834 45 102.501
s67.667 44.5 113 44.5c53.333 0 97 -18.833 131 -56.5s51 -86.5 51 -146.5c0 -82.667 -22.5 -165.667 -67.5 -249s-107.833 -162 -188.5 -236c-18.667 -16.667 -38.334 -16 -59.001 2zM596.001 809l-36.9971 32.999c-12 10 -18.5 18.333 -19.5 25s2.83301 16 11.5 28
c75.333 96.667 113 179.334 113 248.001c0 21.333 -4.83301 40.666 -14.5 57.999s-20.334 31.333 -32.001 42s-22.334 25.167 -32.001 43.5s-14.5 38.833 -14.5 61.5c0 38.667 15 72.834 45 102.501s67.667 44.5 113 44.5c53.333 0 97 -18.833 131 -56.5s51 -86.5 51 -146.5
c0 -82.667 -22.5 -165.667 -67.5 -249s-107.833 -162 -188.5 -236c-18.667 -16.667 -38.334 -16 -59.001 2z" />
    <glyph glyph-name="quotedblbase" unicode="&#x201e;" horiz-adv-x="1001" 
d="M156 -502l-36.999 33.001c-12 10 -18.5 18.333 -19.5 25s2.83301 16 11.5 28c74.667 96 112 178.667 112 248c0 21.333 -4.83301 40.666 -14.5 57.999s-20.167 31.333 -31.5 42s-21.833 25.167 -31.5 43.5s-14.5 38.833 -14.5 61.5c0 38.667 15 72.834 45 102.501
s67.667 44.5 113 44.5c53.333 0 97 -18.667 131 -56s51 -86 51 -146c0 -82.667 -22.5 -165.834 -67.5 -249.501s-107.833 -162.5 -188.5 -236.5c-18.667 -16.667 -38.334 -16 -59.001 2zM596.001 -501.999l-36.9971 33c-12 10 -18.5 18.333 -19.5 25s2.83301 16 11.5 28
c75.333 96.667 113 179.334 113 248.001c0 21.333 -4.83301 40.666 -14.5 57.999s-20.334 31.333 -32.001 42s-22.334 25.167 -32.001 43.5s-14.5 38.833 -14.5 61.5c0 38.667 15 72.834 45 102.501s67.667 44.5 113 44.5c53.333 0 97 -18.667 131 -56s51 -86 51 -146
c0 -82.667 -22.5 -165.834 -67.5 -249.501s-107.833 -162.5 -188.5 -236.5c-18.667 -16.667 -38.334 -16 -59.001 2z" />
    <glyph glyph-name="dagger" unicode="&#x2020;" horiz-adv-x="985" 
d="M479 1475h23c36 0 63.167 -1.33301 81.5 -4s29.5 -5.83398 33.5 -9.50098s6 -9.5 6 -17.5v-418h292c10.667 0 18.167 -6.33301 22.5 -19s6.5 -40.334 6.5 -83.001v-29c0 -42.667 -2.16699 -70.334 -6.5 -83.001s-11.833 -19 -22.5 -19h-292v-1043
c0 -8 -2 -13.833 -6 -17.5s-15.167 -6.83398 -33.5 -9.50098s-45.5 -4 -81.5 -4h-23c-36.667 0 -63.334 1.16699 -80.001 3.5s-27 5.33301 -31 9s-6 9.83398 -6 18.501v1043h-292c-10.667 0 -18.167 6.33301 -22.5 19s-6.5 40.334 -6.5 83.001v29
c0 42.667 2.16699 70.334 6.5 83.001s11.833 19 22.5 19h292v418c0 8.66699 2 14.834 6 18.501s14.333 6.66699 31 9s43.334 3.5 80.001 3.5z" />
    <glyph glyph-name="daggerdbl" unicode="&#x2021;" horiz-adv-x="1026" 
d="M500 1475h22c36 0 63.167 -1.33301 81.5 -4s29.5 -5.83398 33.5 -9.50098s6 -9.5 6 -17.5v-418h293c10.667 0 18.167 -6.33301 22.5 -19s6.5 -40.334 6.5 -83.001v-29c0 -42.667 -2.16699 -70.334 -6.5 -83.001s-11.833 -19 -22.5 -19h-293v-392h293
c10.667 0 18.167 -6.33301 22.5 -19s6.5 -40.334 6.5 -83.001v-29c0 -42.667 -2.16699 -70.334 -6.5 -83.001s-11.833 -19 -22.5 -19h-293v-418c0 -8 -2 -13.833 -6 -17.5s-15.167 -6.83398 -33.5 -9.50098s-45.5 -4 -81.5 -4h-22c-36.667 0 -63.334 1.16699 -80.001 3.5
s-27 5.33301 -31 9s-6 9.83398 -6 18.501v418h-293c-10.667 0 -18.167 6.33301 -22.5 19s-6.5 40.334 -6.5 83.001v29c0 42.667 2.16699 70.334 6.5 83.001s11.833 19 22.5 19h293v392h-293c-10.667 0 -18.167 6.33301 -22.5 19s-6.5 40.334 -6.5 83.001v29
c0 42.667 2.16699 70.334 6.5 83.001s11.833 19 22.5 19h293v418c0 8.66699 2 14.834 6 18.501s14.333 6.66699 31 9s43.334 3.5 80.001 3.5z" />
    <glyph glyph-name="bullet" unicode="&#x2022;" horiz-adv-x="727" 
d="M360 1038c79.333 0 146.668 -27.667 202.001 -83s83 -122.333 83 -201c0 -77.333 -27.833 -143.166 -83.5 -197.499s-122.834 -81.5 -201.501 -81.5c-76.667 0 -142.167 27.167 -196.5 81.5s-81.5 120.166 -81.5 197.499c0 78.667 27 145.667 81 201s119.667 83 197 83z
" />
    <glyph glyph-name="ellipsis" unicode="&#x2026;" horiz-adv-x="1468" 
d="M70 147c0 47.333 16.667 87.5 50 120.5s74.666 49.5 123.999 49.5c50.667 0 92.667 -16.5 126 -49.5s50 -73.167 50 -120.5c0 -46.667 -16.667 -86.167 -50 -118.5s-75.333 -48.5 -126 -48.5c-49.333 0 -90.666 16.167 -123.999 48.5s-50 71.833 -50 118.5zM559 147
c0 47.333 16.667 87.5 50 120.5s74.666 49.5 123.999 49.5c50.667 0 92.667 -16.5 126 -49.5s50 -73.167 50 -120.5c0 -46.667 -16.667 -86.167 -50 -118.5s-75.333 -48.5 -126 -48.5c-49.333 0 -90.666 16.167 -123.999 48.5s-50 71.833 -50 118.5zM1049 147
c0 47.333 16.667 87.5 50 120.5s74.666 49.5 123.999 49.5c50.667 0 92.667 -16.5 126 -49.5s50 -73.167 50 -120.5c0 -46.667 -16.667 -86.167 -50 -118.5s-75.333 -48.5 -126 -48.5c-49.333 0 -90.666 16.167 -123.999 48.5s-50 71.833 -50 118.5z" />
    <glyph glyph-name="uni202F" unicode="&#x202f;" horiz-adv-x="400" 
 />
    <glyph glyph-name="guilsinglleft" unicode="&#x2039;" horiz-adv-x="659" 
d="M473 1065l33 -17.998c30 -17.333 49.5 -31.833 58.5 -43.5s9.83301 -23.834 2.5 -36.501l-215 -349l215 -348c7.33301 -12.667 6.5 -24.834 -2.5 -36.501s-28.5 -26.167 -58.5 -43.5l-33 -18c-29.333 -16.667 -51.166 -25.5 -65.499 -26.5s-25.166 5.16699 -32.499 18.5
l-262 381c-15.333 22 -23 44.333 -23 67v13c0 22.667 7.66699 45 23 67l262 381c7.33301 13.333 18.166 19.5 32.499 18.5s36.166 -9.83301 65.499 -26.5z" />
    <glyph glyph-name="guilsinglright" unicode="&#x203a;" horiz-adv-x="659" 
d="M154 1047l32 17.998c29.333 16.667 51.333 25.5 66 26.5s25.667 -5.16699 33 -18.5l262 -381c14.667 -20.667 22 -43 22 -67v-13c0 -24 -7.33301 -46.333 -22 -67l-262 -381c-7.33301 -13.333 -18.333 -19.5 -33 -18.5s-36.667 9.83301 -66 26.5l-32 18
c-30.667 17.333 -50.5 31.833 -59.5 43.5s-9.83301 23.834 -2.5 36.501l215 348l-215 349c-7.33301 12.667 -6.5 24.834 2.5 36.501s28.833 26.167 59.5 43.5z" />
    <glyph glyph-name="uni205F" unicode="&#x205f;" horiz-adv-x="500" 
 />
    <glyph glyph-name="Euro" unicode="&#x20ac;" 
d="M78 981h141c34 160.667 100 286.5 198 377.5s223.333 136.5 376 136.5c74 0 139.5 -8.83301 196.5 -26.5s112.833 -45.167 167.5 -82.5c18 -13.333 26.5 -26.666 25.5 -39.999s-11.5 -36 -31.5 -68l-23 -37c-20.667 -34.667 -35 -55.334 -43 -62.001s-17.333 -7 -28 -1
c-45.333 26.667 -86.5 45.5 -123.5 56.5s-77.833 16.5 -122.5 16.5c-73.333 0 -134.833 -23 -184.5 -69s-85.167 -113 -106.5 -201h334c8 0 13.667 -1.33301 17 -4s6.16602 -10.667 8.49902 -24s3.5 -34.666 3.5 -63.999v-2c0 -29.333 -1.16699 -50.666 -3.5 -63.999
s-5.16602 -21.333 -8.49902 -24s-9 -4 -17 -4h-358c-1.33301 -13.333 -2 -34.666 -2 -63.999c0 -27.333 0.666992 -47 2 -59h358c8 0 13.667 -1.33301 17 -4s6.16602 -10.667 8.49902 -24s3.5 -34.666 3.5 -63.999v-2c0 -29.333 -1.16699 -50.833 -3.5 -64.5
s-5.16602 -21.834 -8.49902 -24.501s-9 -4 -17 -4h-336c44.667 -173.333 145 -260 301 -260c86 0 168.667 21.333 248 64c12.667 8.66699 23.834 9.16699 33.501 1.5s22.5 -28.167 38.5 -61.5l18 -39c11.333 -22.667 18.666 -39.334 21.999 -50.001s3.5 -20 0.5 -28
s-10.5 -16 -22.5 -24c-112 -72 -239.667 -108 -383 -108c-158.667 0 -284.5 43.333 -377.5 130s-154.167 211.667 -183.5 375h-135c-8 0 -13.667 1.33301 -17 4s-6.16602 10.834 -8.49902 24.501s-3.5 35.167 -3.5 64.5v2c0 29.333 1.16699 50.666 3.5 63.999
s5.16602 21.333 8.49902 24s9 4 17 4h117v51c0 31.333 0.666992 55.333 2 72h-119c-8 0 -13.667 1.33301 -17 4s-6.16602 10.667 -8.49902 24s-3.5 34.666 -3.5 63.999v2c0 29.333 1.16699 50.666 3.5 63.999s5.16602 21.333 8.49902 24s9 4 17 4z" />
    <glyph glyph-name="trademark" unicode="&#x2122;" horiz-adv-x="1728" 
d="M53 1475h588.001c7.33301 0 12.166 -3.33301 14.499 -10s3.5 -24 3.5 -52v-49c0 -26.667 -1.16699 -44 -3.5 -52s-7.16602 -12 -14.499 -12h-190v-636c0 -6.66699 -5.5 -11.167 -16.5 -13.5s-31.5 -3.5 -61.5 -3.5h-54c-32.667 0 -53.334 1 -62.001 3s-13 6.66699 -13 14
v636h-191c-8.66699 0 -14.167 3.5 -16.5 10.5s-3.5 24.833 -3.5 53.5v49c0 28.667 1.16699 46.167 3.5 52.5s7.83301 9.5 16.5 9.5zM829.001 1475l95 0.000976562c30 0 50 -1.5 60 -4.5s16.667 -8.5 20 -16.5l108 -260c38.667 -92 62.667 -157.667 72 -197
c15.333 60 37 124.333 65 193l109 264c2.66699 5.33301 5.33398 9.33301 8.00098 12s9.66699 4.83398 21 6.50098s28.333 2.5 51 2.5h88c33.333 0 55.333 -1.33301 66 -4s16 -7.66699 16 -15l26 -792c0 -7.33301 -3.83301 -12 -11.5 -14s-28.834 -3 -63.501 -3h-50
c-32 0 -52.167 1 -60.5 3s-12.5 6 -12.5 12l-4 286c-2.66699 122 -2.66699 205.333 0 250c-18 -60 -49 -142.667 -93 -248l-61 -153c-3.33301 -7.33301 -9 -12.333 -17 -15s-26.333 -4 -55 -4h-53c-28 0 -46.5 1.5 -55.5 4.5s-14.5 7.83301 -16.5 14.5l-65 149
c-42 101.333 -73.333 184.666 -94 249.999c5.33301 -90 6 -180 2 -270l-9 -264c0 -6.66699 -4 -10.834 -12 -12.501s-27.667 -2.5 -59 -2.5h-49c-34 0 -54.833 1 -62.5 3s-11.5 6.66699 -11.5 14l31 792c0 8 4.5 13.167 13.5 15.5s30.167 3.5 63.5 3.5z" />
    <glyph glyph-name="lozenge" unicode="&#x25ca;" horiz-adv-x="1185" 
d="M598 1186l-248 -443l248 -436l244 443zM586 1542h32.001c22 0 37.167 -1.33301 45.5 -4s15.166 -8 20.499 -16l379 -676c13.333 -23.333 20 -49.333 20 -78v-27c0 -30.667 -6.66699 -58 -20 -82l-391 -686c-5.33301 -8 -12.166 -13.333 -20.499 -16s-23.5 -4 -45.5 -4
h-33c-38.667 0 -61.667 6.66699 -69 20l-381 674c-6 11.333 -10 19.5 -12 24.5s-4 12.333 -6 22s-3 21.5 -3 35.5v29c0 26.667 7 52.667 21 78l393 686c7.33301 13.333 30.666 20 69.999 20z" />
    <glyph glyph-name="uni25FC" unicode="&#x25fc;" horiz-adv-x="1085" 
d="M0 1085h1085v-1085h-1085v1085z" />
    <glyph glyph-name="glyph1" horiz-adv-x="0" 
 />
    <glyph glyph-name="glyph2" horiz-adv-x="682" 
 />
    </font>
</defs>
</svg>
