<?xml version="1.0" encoding="UTF-8"?>
<svg width="40px" height="40px" viewBox="0 0 40 40" version="1.1" xmlns="http://www.w3.org/2000/svg" xmlns:xlink="http://www.w3.org/1999/xlink">
    <!-- Generator: Sketch 55.2 (78181) - https://sketchapp.com -->
    <title>noun_Hospital_1283902</title>
    <desc>Created with Sketch.</desc>
    <g id="Page-1" stroke="none" stroke-width="1" fill="none" fill-rule="evenodd">
        <g id="Artboard" transform="translate(-50.000000, -296.000000)" fill="#AA005F" fill-rule="nonzero">
            <g id="Group-3" transform="translate(30.000000, 165.000000)">
                <g id="Group-2" transform="translate(20.000000, 126.000000)">
                    <g id="noun_Hospital_1283902" transform="translate(0.000000, 5.000000)">
                        <g id="Group">
                            <rect id="Rectangle" x="10.3225806" y="20.6451613" width="1.29032258" height="1.29032258"></rect>
                            <rect id="Rectangle" x="15.483871" y="20.6451613" width="1.29032258" height="1.29032258"></rect>
                            <rect id="Rectangle" x="20.6451613" y="20.6451613" width="1.29032258" height="1.29032258"></rect>
                            <path d="M38.0645161,11.6129032 L37.4193548,11.6129032 L37.4193548,3.22580645 C37.4193548,1.44709677 35.9722581,0 34.1935484,0 L28.3870968,0 L28.3870968,1.29032258 L30.3225806,1.29032258 L30.3225806,3.22580645 L28.3870968,3.22580645 L28.3870968,7.74193548 C28.3870968,8.80903226 29.2554839,9.67741935 30.3225806,9.67741935 L30.3225806,11.6129032 C29.2554839,11.6129032 28.3870968,12.4812903 28.3870968,13.5483871 L28.3870968,15.483871 L27.0967742,15.483871 L27.0967742,14.1935484 C27.0967742,13.4819355 26.5180645,12.9032258 25.8064516,12.9032258 L9.03225806,12.9032258 C8.32064516,12.9032258 7.74193548,13.4819355 7.74193548,14.1935484 L7.74193548,15.483871 L1.93548387,15.483871 C0.868387097,15.483871 0,16.3522581 0,17.4193548 L0,22.5806452 C0,23.6477419 0.868387097,24.516129 1.93548387,24.516129 L2.58064516,24.516129 L2.58064516,33.2516129 C1.79096774,33.9612903 1.29032258,34.9864516 1.29032258,36.1290323 C1.29032258,38.263871 3.02645161,40 5.16129032,40 C7.29612903,40 9.03225806,38.263871 9.03225806,36.1290323 C9.03225806,34.9864516 8.5316129,33.9612903 7.74193548,33.2516129 L7.74193548,31.6129032 L32.2580645,31.6129032 L32.2580645,33.2516129 C31.4683871,33.9606452 30.9677419,34.9858065 30.9677419,36.1290323 C30.9677419,38.263871 32.703871,40 34.8387097,40 C36.9735484,40 38.7096774,38.263871 38.7096774,36.1290323 C38.7096774,34.9864516 38.2090323,33.9612903 37.4193548,33.2516129 L37.4193548,24.516129 L38.0645161,24.516129 C39.1316129,24.516129 40,23.6477419 40,22.5806452 L40,20 L40,17.4193548 L40,13.5483871 C40,12.4812903 39.1316129,11.6129032 38.0645161,11.6129032 Z M29.6774194,7.74193548 L29.6774194,4.51612903 L32.2580645,4.51612903 L32.2580645,7.74193548 C32.2580645,8.09741935 31.9683871,8.38709677 31.6129032,8.38709677 L30.3225806,8.38709677 C29.9670968,8.38709677 29.6774194,8.09741935 29.6774194,7.74193548 Z M31.6129032,9.67741935 C32.68,9.67741935 33.5483871,8.80903226 33.5483871,7.74193548 L33.5483871,3.22580645 L31.6129032,3.22580645 L31.6129032,1.29032258 L34.1935484,1.29032258 C35.2606452,1.29032258 36.1290323,2.15870968 36.1290323,3.22580645 L36.1290323,11.6129032 L31.6129032,11.6129032 L31.6129032,9.67741935 Z M29.6774194,13.5483871 C29.6774194,13.1929032 29.9670968,12.9032258 30.3225806,12.9032258 L38.0645161,12.9032258 C38.42,12.9032258 38.7096774,13.1929032 38.7096774,13.5483871 L38.7096774,15.6025806 C38.5070968,15.5303226 38.2916129,15.483871 38.0645161,15.483871 L29.6774194,15.483871 L29.6774194,13.5483871 Z M9.03225806,14.1935484 L10.3225806,14.1935484 L10.3225806,19.3548387 L11.6129032,19.3548387 L11.6129032,14.1935484 L12.9032258,14.1935484 L12.9032258,21.9354839 L14.1935484,21.9354839 L14.1935484,14.1935484 L15.483871,14.1935484 L15.483871,19.3548387 L16.7741935,19.3548387 L16.7741935,14.1935484 L18.0645161,14.1935484 L18.0645161,21.9354839 L19.3548387,21.9354839 L19.3548387,14.1935484 L20.6451613,14.1935484 L20.6451613,19.3548387 L21.9354839,19.3548387 L21.9354839,14.1935484 L23.2258065,14.1935484 L23.2258065,21.9354839 L24.516129,21.9354839 L24.516129,14.1935484 L25.8064516,14.1935484 L25.8064516,16.1290323 L25.8064516,16.7741935 L25.8064516,23.2258065 L9.03225806,23.2258065 L9.03225806,16.7741935 L9.03225806,16.1290323 L9.03225806,14.1935484 Z M32.2580645,27.7419355 L7.74193548,27.7419355 L7.74193548,24.516129 L32.2580645,24.516129 L32.2580645,27.7419355 Z M1.93548387,23.2258065 C1.58,23.2258065 1.29032258,22.936129 1.29032258,22.5806452 L1.29032258,17.4193548 C1.29032258,17.063871 1.58,16.7741935 1.93548387,16.7741935 L7.74193548,16.7741935 L7.74193548,23.2258065 L2.58064516,23.2258065 L1.93548387,23.2258065 Z M5.16129032,38.7096774 C3.73806452,38.7096774 2.58064516,37.5522581 2.58064516,36.1290323 C2.58064516,34.7058065 3.73806452,33.5483871 5.16129032,33.5483871 C6.58451613,33.5483871 7.74193548,34.7058065 7.74193548,36.1290323 C7.74193548,37.5522581 6.58451613,38.7096774 5.16129032,38.7096774 Z M5.16129032,32.2580645 C4.7083871,32.2580645 4.27548387,32.3406452 3.87096774,32.483871 L3.87096774,24.516129 L6.4516129,24.516129 L6.4516129,32.483871 C6.04709677,32.3406452 5.61419355,32.2580645 5.16129032,32.2580645 Z M7.74193548,30.3225806 L7.74193548,29.0322581 L32.2580645,29.0322581 L32.2580645,30.3225806 L7.74193548,30.3225806 Z M34.8387097,38.7096774 C33.4154839,38.7096774 32.2580645,37.5522581 32.2580645,36.1290323 C32.2580645,34.7058065 33.4154839,33.5483871 34.8387097,33.5483871 C36.2619355,33.5483871 37.4193548,34.7058065 37.4193548,36.1290323 C37.4193548,37.5522581 36.2619355,38.7096774 34.8387097,38.7096774 Z M36.1290323,32.483871 C35.7245161,32.3406452 35.2916129,32.2580645 34.8387097,32.2580645 C34.3858065,32.2580645 33.9529032,32.3406452 33.5483871,32.483871 L33.5483871,24.516129 L36.1290323,24.516129 L36.1290323,32.483871 Z M38.7096774,22.5806452 C38.7096774,22.936129 38.42,23.2258065 38.0645161,23.2258065 L37.4193548,23.2258065 L32.2580645,23.2258065 L27.0967742,23.2258065 L27.0967742,16.7741935 L38.0645161,16.7741935 C38.42,16.7741935 38.7096774,17.063871 38.7096774,17.4193548 L38.7096774,20 L38.7096774,22.5806452 Z" id="Shape"></path>
                            <rect id="Rectangle" x="34.1935484" y="35.483871" width="1.29032258" height="1.29032258"></rect>
                            <rect id="Rectangle" x="4.51612903" y="35.483871" width="1.29032258" height="1.29032258"></rect>
                        </g>
                    </g>
                </g>
            </g>
        </g>
    </g>
</svg>