<?xml version="1.0" encoding="UTF-8"?>
<svg width="40px" height="40px" viewBox="0 0 40 40" version="1.1" xmlns="http://www.w3.org/2000/svg" xmlns:xlink="http://www.w3.org/1999/xlink">
    <!-- Generator: Sketch 55.2 (78181) - https://sketchapp.com -->
    <title>noun_test tubes_1451989</title>
    <desc>Created with Sketch.</desc>
    <g id="Page-1" stroke="none" stroke-width="1" fill="none" fill-rule="evenodd">
        <g id="Artboard" transform="translate(-50.000000, -509.000000)" fill="#AA005F" fill-rule="nonzero">
            <g id="Group-3" transform="translate(30.000000, 165.000000)">
                <g id="Group-2-Copy-3" transform="translate(20.000000, 339.000000)">
                    <g id="noun_test-tubes_1451989" transform="translate(0.000000, 5.000000)">
                        <g id="Group">
                            <path d="M0,20.2670968 L1.3683871,21.636129 C1.72903226,21.996129 1.93548387,22.4948387 1.93548387,23.0045161 L1.93548387,36.7741935 C1.93548387,38.5529032 3.38258065,40 5.16129032,40 L17.4193548,40 C19.1980645,40 20.6451613,38.5529032 20.6451613,36.7741935 L20.6451613,18.0645161 L0,18.0645161 L0,20.2670968 Z M17.4193548,38.7096774 L5.16129032,38.7096774 C4.09419355,38.7096774 3.22580645,37.8412903 3.22580645,36.7741935 L3.22580645,24.5264516 C6.28258065,24.58 8.46903226,24.996129 10.7632258,25.44 C13.1864516,25.9090323 15.7019355,26.3883871 19.3548387,26.4406452 L19.3548387,36.7741935 C19.3548387,37.8412903 18.4864516,38.7096774 17.4193548,38.7096774 Z M1.29032258,19.3548387 L19.3548387,19.3548387 L19.3548387,25.1509677 C15.8232258,25.0980645 13.3709677,24.6309677 11.0077419,24.1735484 C8.75354839,23.7374194 6.41612903,23.2916129 3.22580645,23.2367742 L3.22580645,23.0045161 C3.22580645,22.1432258 2.88967742,21.3329032 2.28064516,20.723871 L1.29032258,19.7329032 L1.29032258,19.3548387 Z" id="Shape"></path>
                            <path d="M6.4516129,28.3870968 C5.38451613,28.3870968 4.51612903,29.2554839 4.51612903,30.3225806 C4.51612903,31.3896774 5.38451613,32.2580645 6.4516129,32.2580645 C7.51870968,32.2580645 8.38709677,31.3896774 8.38709677,30.3225806 C8.38709677,29.2554839 7.51870968,28.3870968 6.4516129,28.3870968 Z M6.4516129,30.9677419 C6.09548387,30.9677419 5.80645161,30.6780645 5.80645161,30.3225806 C5.80645161,29.9670968 6.09548387,29.6774194 6.4516129,29.6774194 C6.80774194,29.6774194 7.09677419,29.9670968 7.09677419,30.3225806 C7.09677419,30.6780645 6.80774194,30.9677419 6.4516129,30.9677419 Z" id="Shape"></path>
                            <path d="M13.5483871,31.6129032 C12.1251613,31.6129032 10.9677419,32.7703226 10.9677419,34.1935484 C10.9677419,35.6167742 12.1251613,36.7741935 13.5483871,36.7741935 C14.9716129,36.7741935 16.1290323,35.6167742 16.1290323,34.1935484 C16.1290323,32.7703226 14.9716129,31.6129032 13.5483871,31.6129032 Z M13.5483871,35.483871 C12.8367742,35.483871 12.2580645,34.9051613 12.2580645,34.1935484 C12.2580645,33.4819355 12.8367742,32.9032258 13.5483871,32.9032258 C14.26,32.9032258 14.8387097,33.4819355 14.8387097,34.1935484 C14.8387097,34.9051613 14.26,35.483871 13.5483871,35.483871 Z" id="Shape"></path>
                            <path d="M35.483871,0 L35.483871,9.03225806 L16.1290323,9.03225806 L16.1290323,0 L11.6129032,0 L11.6129032,16.7741935 L12.9032258,16.7741935 L12.9032258,3.87096774 L14.8387097,3.87096774 L14.8387097,16.7741935 L16.1290323,16.7741935 L16.1290323,12.9032258 L35.483871,12.9032258 L35.483871,25.1612903 L21.9354839,25.1612903 L21.9354839,26.4516129 L36.7741935,26.4516129 L36.7741935,3.87096774 L38.7096774,3.87096774 L38.7096774,27.7419355 C38.7096774,28.0974194 38.4206452,28.3870968 38.0645161,28.3870968 L21.9354839,28.3870968 L21.9354839,29.6774194 L38.0645161,29.6774194 C39.1316129,29.6774194 40,28.8090323 40,27.7419355 L40,0 L35.483871,0 Z M12.9032258,2.58064516 L12.9032258,1.29032258 L14.8387097,1.29032258 L14.8387097,2.58064516 L12.9032258,2.58064516 Z M16.1290323,11.6129032 L16.1290323,10.3225806 L35.483871,10.3225806 L35.483871,11.6129032 L16.1290323,11.6129032 Z M36.7741935,2.58064516 L36.7741935,1.29032258 L38.7096774,1.29032258 L38.7096774,2.58064516 L36.7741935,2.58064516 Z" id="Shape"></path>
                            <path d="M18.7096774,7.74193548 L20,7.74193548 L20,5.16129032 L22.5806452,5.16129032 L22.5806452,7.74193548 L23.8709677,7.74193548 L23.8709677,5.16129032 L25.1612903,5.16129032 L25.1612903,1.29032258 L17.4193548,1.29032258 L17.4193548,5.16129032 L18.7096774,5.16129032 L18.7096774,7.74193548 Z M18.7096774,2.58064516 L23.8709677,2.58064516 L23.8709677,3.87096774 L18.7096774,3.87096774 L18.7096774,2.58064516 Z" id="Shape"></path>
                            <rect id="Rectangle" x="18.7096774" y="14.1935484" width="1.29032258" height="2.58064516"></rect>
                            <path d="M23.8709677,21.2903226 L23.8709677,14.1935484 L22.5806452,14.1935484 L22.5806452,21.2903226 C22.5806452,21.8367742 22.2348387,22.3251613 21.7206452,22.5070968 L22.1503226,23.723871 C23.18,23.36 23.8709677,22.3819355 23.8709677,21.2903226 Z" id="Path"></path>
                            <path d="M27.7419355,7.74193548 L29.0322581,7.74193548 L29.0322581,5.16129032 L31.6129032,5.16129032 L31.6129032,7.74193548 L32.9032258,7.74193548 L32.9032258,5.16129032 L34.1935484,5.16129032 L34.1935484,1.29032258 L26.4516129,1.29032258 L26.4516129,5.16129032 L27.7419355,5.16129032 L27.7419355,7.74193548 Z M27.7419355,2.58064516 L32.9032258,2.58064516 L32.9032258,3.87096774 L27.7419355,3.87096774 L27.7419355,2.58064516 Z" id="Shape"></path>
                            <path d="M27.7419355,14.1935484 L27.7419355,21.2903226 C27.7419355,22.7135484 28.8993548,23.8709677 30.3225806,23.8709677 C31.7458065,23.8709677 32.9032258,22.7135484 32.9032258,21.2903226 L32.9032258,14.1935484 L31.6129032,14.1935484 L31.6129032,21.2903226 C31.6129032,22.0019355 31.0341935,22.5806452 30.3225806,22.5806452 C29.6109677,22.5806452 29.0322581,22.0019355 29.0322581,21.2903226 L29.0322581,14.1935484 L27.7419355,14.1935484 Z" id="Path"></path>
                            <path d="M7.74193548,16.7741935 C9.16516129,16.7741935 10.3225806,15.6167742 10.3225806,14.1935484 C10.3225806,12.7703226 9.16516129,11.6129032 7.74193548,11.6129032 C6.31870968,11.6129032 5.16129032,12.7703226 5.16129032,14.1935484 C5.16129032,15.6167742 6.31870968,16.7741935 7.74193548,16.7741935 Z M7.74193548,12.9032258 C8.45354839,12.9032258 9.03225806,13.4819355 9.03225806,14.1935484 C9.03225806,14.9051613 8.45354839,15.483871 7.74193548,15.483871 C7.03032258,15.483871 6.4516129,14.9051613 6.4516129,14.1935484 C6.4516129,13.4819355 7.03032258,12.9032258 7.74193548,12.9032258 Z" id="Shape"></path>
                            <path d="M1.93548387,9.67741935 C3.00258065,9.67741935 3.87096774,8.80903226 3.87096774,7.74193548 C3.87096774,6.67483871 3.00258065,5.80645161 1.93548387,5.80645161 C0.868387097,5.80645161 0,6.67483871 0,7.74193548 C0,8.80903226 0.868387097,9.67741935 1.93548387,9.67741935 Z M1.93548387,7.09677419 C2.2916129,7.09677419 2.58064516,7.38645161 2.58064516,7.74193548 C2.58064516,8.09741935 2.2916129,8.38709677 1.93548387,8.38709677 C1.57935484,8.38709677 1.29032258,8.09741935 1.29032258,7.74193548 C1.29032258,7.38645161 1.57935484,7.09677419 1.93548387,7.09677419 Z" id="Shape"></path>
                            <path d="M7.74193548,3.87096774 C8.80903226,3.87096774 9.67741935,3.00258065 9.67741935,1.93548387 C9.67741935,0.868387097 8.80903226,0 7.74193548,0 C6.67483871,0 5.80645161,0.868387097 5.80645161,1.93548387 C5.80645161,3.00258065 6.67483871,3.87096774 7.74193548,3.87096774 Z M7.74193548,1.29032258 C8.09806452,1.29032258 8.38709677,1.58 8.38709677,1.93548387 C8.38709677,2.29096774 8.09806452,2.58064516 7.74193548,2.58064516 C7.38580645,2.58064516 7.09677419,2.29096774 7.09677419,1.93548387 C7.09677419,1.58 7.38580645,1.29032258 7.74193548,1.29032258 Z" id="Shape"></path>
                        </g>
                    </g>
                </g>
            </g>
        </g>
    </g>
</svg>