<?xml version="1.0" encoding="UTF-8"?>
<svg width="40px" height="40px" viewBox="0 0 40 40" version="1.1" xmlns="http://www.w3.org/2000/svg" xmlns:xlink="http://www.w3.org/1999/xlink">
    <!-- Generator: Sketch 55.2 (78181) - https://sketchapp.com -->
    <title>noun_Prescription_1949535</title>
    <desc>Created with Sketch.</desc>
    <g id="Page-1" stroke="none" stroke-width="1" fill="none" fill-rule="evenodd">
        <g id="Artboard" transform="translate(-50.000000, -580.000000)" fill="#AA005F" fill-rule="nonzero">
            <g id="Group-3" transform="translate(30.000000, 165.000000)">
                <g id="Group-2-Copy-4" transform="translate(20.000000, 410.000000)">
                    <g id="noun_Prescription_1949535" transform="translate(0.000000, 5.000000)">
                        <g id="Group">
                            <rect id="Rectangle" x="32.9032258" y="16.1290323" width="3.87096774" height="1.29032258"></rect>
                            <path d="M40,23.2258065 L38.7096774,23.2258065 L38.7096774,16.1290323 C38.7096774,15.7729032 38.4206452,15.483871 38.0645161,15.483871 C37.7083871,15.483871 37.4193548,15.7729032 37.4193548,16.1290323 L36.1290323,16.1290323 C36.1290323,15.0619355 36.9974194,14.1935484 38.0645161,14.1935484 C39.1316129,14.1935484 40,15.0619355 40,16.1290323 L40,23.2258065 Z" id="Path"></path>
                            <path d="M17.4193548,18.0645161 L1.93548387,18.0645161 C0.868387097,18.0645161 0,17.196129 0,16.1290323 L0,14.8387097 C0,13.7716129 0.868387097,12.9032258 1.93548387,12.9032258 L17.4193548,12.9032258 C18.4864516,12.9032258 19.3548387,13.7716129 19.3548387,14.8387097 L19.3548387,16.1290323 C19.3548387,17.196129 18.4864516,18.0645161 17.4193548,18.0645161 Z M1.93548387,14.1935484 C1.57935484,14.1935484 1.29032258,14.4825806 1.29032258,14.8387097 L1.29032258,16.1290323 C1.29032258,16.4851613 1.57935484,16.7741935 1.93548387,16.7741935 L17.4193548,16.7741935 C17.7754839,16.7741935 18.0645161,16.4851613 18.0645161,16.1290323 L18.0645161,14.8387097 C18.0645161,14.4825806 17.7754839,14.1935484 17.4193548,14.1935484 L1.93548387,14.1935484 Z" id="Shape"></path>
                            <path d="M14.8387097,33.5483871 L4.51612903,33.5483871 C2.73741935,33.5483871 1.29032258,32.1012903 1.29032258,30.3225806 L1.29032258,17.4193548 L2.58064516,17.4193548 L2.58064516,30.3225806 C2.58064516,31.3896774 3.44903226,32.2580645 4.51612903,32.2580645 L14.8387097,32.2580645 C15.9058065,32.2580645 16.7741935,31.3896774 16.7741935,30.3225806 L16.7741935,17.4193548 L18.0645161,17.4193548 L18.0645161,30.3225806 C18.0645161,32.1012903 16.6174194,33.5483871 14.8387097,33.5483871 Z" id="Path"></path>
                            <path d="M9.67741935,30.9677419 C6.47548387,30.9677419 3.87096774,28.3632258 3.87096774,25.1612903 C3.87096774,21.9593548 6.47548387,19.3548387 9.67741935,19.3548387 C12.8793548,19.3548387 15.483871,21.9593548 15.483871,25.1612903 C15.483871,28.3632258 12.8793548,30.9677419 9.67741935,30.9677419 Z M9.67741935,20.6451613 C7.18774194,20.6451613 5.16129032,22.6716129 5.16129032,25.1612903 C5.16129032,27.6509677 7.18774194,29.6774194 9.67741935,29.6774194 C12.1670968,29.6774194 14.1935484,27.6509677 14.1935484,25.1612903 C14.1935484,22.6716129 12.1670968,20.6451613 9.67741935,20.6451613 Z" id="Shape"></path>
                            <rect id="Rectangle" x="9.03225806" y="21.9354839" width="1.29032258" height="6.4516129"></rect>
                            <rect id="Rectangle" x="6.4516129" y="24.516129" width="6.4516129" height="1.29032258"></rect>
                            <rect id="Rectangle" x="2.58064516" y="13.5483871" width="1.29032258" height="1.93548387"></rect>
                            <rect id="Rectangle" x="5.16129032" y="13.5483871" width="1.29032258" height="1.93548387"></rect>
                            <rect id="Rectangle" x="7.74193548" y="13.5483871" width="1.29032258" height="1.93548387"></rect>
                            <rect id="Rectangle" x="10.3225806" y="13.5483871" width="1.29032258" height="1.93548387"></rect>
                            <rect id="Rectangle" x="12.9032258" y="13.5483871" width="1.29032258" height="1.93548387"></rect>
                            <rect id="Rectangle" x="15.483871" y="13.5483871" width="1.29032258" height="1.93548387"></rect>
                            <polygon id="Path" points="35.483871 40 3.87096774 40 3.87096774 32.9032258 5.16129032 32.9032258 5.16129032 38.7096774 34.1935484 38.7096774 34.1935484 34.8387097 35.483871 34.8387097"></polygon>
                            <polygon id="Path" points="5.16129032 13.5483871 3.87096774 13.5483871 3.87096774 0 29.2993548 0 35.483871 6.18451613 35.483871 10.4354839 34.1935484 10.4354839 34.1935484 6.71870968 28.7651613 1.29032258 5.16129032 1.29032258"></polygon>
                            <polygon id="Path" points="34.8387097 7.09677419 28.3870968 7.09677419 28.3870968 0.64516129 29.6774194 0.64516129 29.6774194 5.80645161 34.8387097 5.80645161"></polygon>
                            <path d="M34.8387097,35.483871 C34.1625806,35.483871 33.5754839,35.0258065 33.4116129,34.3696774 L32.2580645,29.6774194 L32.2580645,12.3677419 C32.2580645,10.9329032 33.3309677,9.75225806 34.7006452,9.68064516 L34.7012903,9.68064516 C35.4264516,9.65290323 36.0967742,9.89483871 36.6154839,10.3864516 C37.1264516,10.8716129 37.4193548,11.5535484 37.4193548,12.2580645 L37.4,29.8335484 L36.2658065,34.3690323 C36.1019355,35.0258065 35.5148387,35.483871 34.8387097,35.483871 Z M33.5483871,29.5980645 L34.6632258,34.0567742 C34.7032258,34.2167742 34.9741935,34.2174194 35.0148387,34.056129 L36.1290323,29.5980645 L36.1290323,12.2580645 C36.1290323,11.9006452 35.9858065,11.5690323 35.7270968,11.3225806 C35.4677419,11.0754839 35.1258065,10.9509677 34.7690323,10.9696774 L34.7690323,10.9696774 C34.096129,11.0051613 33.5483871,11.6316129 33.5483871,12.3677419 L33.5483871,29.5980645 Z" id="Shape"></path>
                            <rect id="Rectangle" x="32.9032258" y="29.0322581" width="3.87096774" height="1.29032258"></rect>
                            <rect id="Rectangle" x="6.4516129" y="2.58064516" width="8.38709677" height="1.29032258"></rect>
                            <rect id="Rectangle" x="6.4516129" y="5.16129032" width="8.38709677" height="1.29032258"></rect>
                            <rect id="Rectangle" x="20.6451613" y="15.483871" width="10.3225806" height="1.29032258"></rect>
                            <rect id="Rectangle" x="20.6451613" y="18.0645161" width="10.3225806" height="1.29032258"></rect>
                            <rect id="Rectangle" x="20.6451613" y="20.6451613" width="10.3225806" height="1.29032258"></rect>
                            <rect id="Rectangle" x="20.6451613" y="23.2258065" width="10.3225806" height="1.29032258"></rect>
                            <rect id="Rectangle" x="20.6451613" y="25.8064516" width="10.3225806" height="1.29032258"></rect>
                            <rect id="Rectangle" x="20.6451613" y="28.3870968" width="10.3225806" height="1.29032258"></rect>
                            <rect id="Rectangle" x="20.6451613" y="30.9677419" width="10.3225806" height="1.29032258"></rect>
                            <rect id="Rectangle" x="6.4516129" y="7.74193548" width="5.80645161" height="1.29032258"></rect>
                            <rect id="Rectangle" x="13.5483871" y="7.74193548" width="1.29032258" height="1.29032258"></rect>
                        </g>
                    </g>
                </g>
            </g>
        </g>
    </g>
</svg>